{
	"asset":{
		"generator":"Khronos glTF Blender I/O v4.4.55",
		"version":"2.0"
	},
	"scene":0,
	"scenes":[
		{
			"name":"Scene",
			"nodes":[
				5
			]
		}
	],
	"nodes":[
		{
			"name":"head.001"
		},
		{
			"name":"\u30dc\u30fc\u30f3.001",
			"rotation":[
				6.572936683824082e-08,
				3.0146331653213565e-08,
				-0.7016471028327942,
				0.7125247120857239
			],
			"scale":[
				0.9999999403953552,
				0.9999999403953552,
				1
			],
			"translation":[
				2.0629632047075575e-07,
				0.8015339970588684,
				0
			]
		},
		{
			"children":[
				1
			],
			"name":"\u30dc\u30fc\u30f3",
			"rotation":[
				-8.557136332854043e-09,
				-2.7937536728472878e-08,
				-1.0823264062764792e-08,
				1
			],
			"translation":[
				-5.122507928945197e-08,
				-2.584742730959988e-08,
				0
			]
		},
		{
			"name":"neutral_bone",
			"rotation":[
				-0.7071067690849304,
				0,
				0,
				0.7071067690849304
			],
			"translation":[
				-5.122507928945197e-08,
				-2.584742730959988e-08,
				0
			]
		},
		{
			"mesh":0,
			"name":"\u7acb\u65b9\u4f53.001",
			"skin":0
		},
		{
			"children":[
				0,
				4,
				2,
				3
			],
			"name":"\u30a2\u30fc\u30de\u30c1\u30e5\u30a2",
			"rotation":[
				0,
				0,
				1,
				4.371138828673793e-08
			],
			"translation":[
				-1.0679352283477783,
				-0.5859466195106506,
				0
			]
		}
	],
	"animations":[
		{
			"channels":[
				{
					"sampler":0,
					"target":{
						"node":2,
						"path":"translation"
					}
				},
				{
					"sampler":1,
					"target":{
						"node":2,
						"path":"rotation"
					}
				},
				{
					"sampler":2,
					"target":{
						"node":2,
						"path":"scale"
					}
				},
				{
					"sampler":3,
					"target":{
						"node":1,
						"path":"translation"
					}
				},
				{
					"sampler":4,
					"target":{
						"node":1,
						"path":"rotation"
					}
				},
				{
					"sampler":5,
					"target":{
						"node":1,
						"path":"scale"
					}
				},
				{
					"sampler":6,
					"target":{
						"node":3,
						"path":"translation"
					}
				},
				{
					"sampler":7,
					"target":{
						"node":3,
						"path":"rotation"
					}
				},
				{
					"sampler":8,
					"target":{
						"node":3,
						"path":"scale"
					}
				}
			],
			"name":"\u30a2\u30fc\u30de\u30c1\u30e5\u30a2Action",
			"samplers":[
				{
					"input":8,
					"interpolation":"LINEAR",
					"output":9
				},
				{
					"input":10,
					"interpolation":"STEP",
					"output":11
				},
				{
					"input":8,
					"interpolation":"LINEAR",
					"output":12
				},
				{
					"input":10,
					"interpolation":"STEP",
					"output":13
				},
				{
					"input":8,
					"interpolation":"LINEAR",
					"output":14
				},
				{
					"input":10,
					"interpolation":"STEP",
					"output":15
				},
				{
					"input":10,
					"interpolation":"STEP",
					"output":16
				},
				{
					"input":10,
					"interpolation":"STEP",
					"output":17
				},
				{
					"input":10,
					"interpolation":"STEP",
					"output":18
				}
			]
		},
		{
			"channels":[
				{
					"sampler":0,
					"target":{
						"node":0,
						"path":"translation"
					}
				},
				{
					"sampler":1,
					"target":{
						"node":0,
						"path":"rotation"
					}
				},
				{
					"sampler":2,
					"target":{
						"node":0,
						"path":"scale"
					}
				}
			],
			"name":"head.001Action.001",
			"samplers":[
				{
					"input":19,
					"interpolation":"LINEAR",
					"output":20
				},
				{
					"input":19,
					"interpolation":"LINEAR",
					"output":21
				},
				{
					"input":19,
					"interpolation":"LINEAR",
					"output":22
				}
			]
		}
	],
	"materials":[
		{
			"doubleSided":true,
			"name":"\u30de\u30c6\u30ea\u30a2\u30eb.004",
			"pbrMetallicRoughness":{
				"baseColorTexture":{
					"index":0
				},
				"metallicFactor":0,
				"roughnessFactor":0.5
			}
		}
	],
	"meshes":[
		{
			"name":"\u7acb\u65b9\u4f53.001",
			"primitives":[
				{
					"attributes":{
						"POSITION":0,
						"NORMAL":1,
						"TEXCOORD_0":2,
						"TEXCOORD_1":3,
						"JOINTS_0":4,
						"WEIGHTS_0":5
					},
					"indices":6,
					"material":0
				}
			]
		}
	],
	"textures":[
		{
			"sampler":0,
			"source":0
		}
	],
	"images":[
		{
			"mimeType":"image/png",
			"name":"head",
			"uri":"head.png"
		}
	],
	"skins":[
		{
			"inverseBindMatrices":7,
			"joints":[
				2,
				1,
				3
			],
			"name":"\u30a2\u30fc\u30de\u30c1\u30e5\u30a2"
		}
	],
	"accessors":[
		{
			"bufferView":0,
			"componentType":5126,
			"count":8771,
			"max":[
				1.4203685522079468,
				1.7119916677474976,
				1.0093481540679932
			],
			"min":[
				-2.0576624870300293,
				-1.4357526302337646,
				-1.034615159034729
			],
			"type":"VEC3"
		},
		{
			"bufferView":1,
			"componentType":5126,
			"count":8771,
			"type":"VEC3"
		},
		{
			"bufferView":2,
			"componentType":5126,
			"count":8771,
			"type":"VEC2"
		},
		{
			"bufferView":3,
			"componentType":5126,
			"count":8771,
			"type":"VEC2"
		},
		{
			"bufferView":4,
			"componentType":5121,
			"count":8771,
			"type":"VEC4"
		},
		{
			"bufferView":5,
			"componentType":5126,
			"count":8771,
			"type":"VEC4"
		},
		{
			"bufferView":6,
			"componentType":5123,
			"count":15876,
			"type":"SCALAR"
		},
		{
			"bufferView":7,
			"componentType":5126,
			"count":3,
			"type":"MAT4"
		},
		{
			"bufferView":8,
			"componentType":5126,
			"count":11,
			"max":[
				0.4583333333333333
			],
			"min":[
				0.041666666666666664
			],
			"type":"SCALAR"
		},
		{
			"bufferView":9,
			"componentType":5126,
			"count":11,
			"type":"VEC3"
		},
		{
			"bufferView":10,
			"componentType":5126,
			"count":2,
			"max":[
				0.4583333333333333
			],
			"min":[
				0.041666666666666664
			],
			"type":"SCALAR"
		},
		{
			"bufferView":11,
			"componentType":5126,
			"count":2,
			"type":"VEC4"
		},
		{
			"bufferView":12,
			"componentType":5126,
			"count":11,
			"type":"VEC3"
		},
		{
			"bufferView":13,
			"componentType":5126,
			"count":2,
			"type":"VEC3"
		},
		{
			"bufferView":14,
			"componentType":5126,
			"count":11,
			"type":"VEC4"
		},
		{
			"bufferView":15,
			"componentType":5126,
			"count":2,
			"type":"VEC3"
		},
		{
			"bufferView":16,
			"componentType":5126,
			"count":2,
			"type":"VEC3"
		},
		{
			"bufferView":17,
			"componentType":5126,
			"count":2,
			"type":"VEC4"
		},
		{
			"bufferView":18,
			"componentType":5126,
			"count":2,
			"type":"VEC3"
		},
		{
			"bufferView":19,
			"componentType":5126,
			"count":15,
			"max":[
				0.625
			],
			"min":[
				0.041666666666666664
			],
			"type":"SCALAR"
		},
		{
			"bufferView":20,
			"componentType":5126,
			"count":15,
			"type":"VEC3"
		},
		{
			"bufferView":21,
			"componentType":5126,
			"count":15,
			"type":"VEC4"
		},
		{
			"bufferView":22,
			"componentType":5126,
			"count":15,
			"type":"VEC3"
		}
	],
	"bufferViews":[
		{
			"buffer":0,
			"byteLength":105252,
			"byteOffset":0,
			"target":34962
		},
		{
			"buffer":0,
			"byteLength":105252,
			"byteOffset":105252,
			"target":34962
		},
		{
			"buffer":0,
			"byteLength":70168,
			"byteOffset":210504,
			"target":34962
		},
		{
			"buffer":0,
			"byteLength":70168,
			"byteOffset":280672,
			"target":34962
		},
		{
			"buffer":0,
			"byteLength":35084,
			"byteOffset":350840,
			"target":34962
		},
		{
			"buffer":0,
			"byteLength":140336,
			"byteOffset":385924,
			"target":34962
		},
		{
			"buffer":0,
			"byteLength":31752,
			"byteOffset":526260,
			"target":34963
		},
		{
			"buffer":0,
			"byteLength":192,
			"byteOffset":558012
		},
		{
			"buffer":0,
			"byteLength":44,
			"byteOffset":558204
		},
		{
			"buffer":0,
			"byteLength":132,
			"byteOffset":558248
		},
		{
			"buffer":0,
			"byteLength":8,
			"byteOffset":558380
		},
		{
			"buffer":0,
			"byteLength":32,
			"byteOffset":558388
		},
		{
			"buffer":0,
			"byteLength":132,
			"byteOffset":558420
		},
		{
			"buffer":0,
			"byteLength":24,
			"byteOffset":558552
		},
		{
			"buffer":0,
			"byteLength":176,
			"byteOffset":558576
		},
		{
			"buffer":0,
			"byteLength":24,
			"byteOffset":558752
		},
		{
			"buffer":0,
			"byteLength":24,
			"byteOffset":558776
		},
		{
			"buffer":0,
			"byteLength":32,
			"byteOffset":558800
		},
		{
			"buffer":0,
			"byteLength":24,
			"byteOffset":558832
		},
		{
			"buffer":0,
			"byteLength":60,
			"byteOffset":558856
		},
		{
			"buffer":0,
			"byteLength":180,
			"byteOffset":558916
		},
		{
			"buffer":0,
			"byteLength":240,
			"byteOffset":559096
		},
		{
			"buffer":0,
			"byteLength":180,
			"byteOffset":559336
		}
	],
	"samplers":[
		{
			"magFilter":9729,
			"minFilter":9987
		}
	],
	"buffers":[
		{
			"byteLength":559516,
			"uri":"eat_2.bin"
		}
	]
}
