{
	"asset":{
		"generator":"Khronos glTF Blender I/O v4.4.55",
		"version":"2.0"
	},
	"scene":0,
	"scenes":[
		{
			"name":"Scene",
			"nodes":[
				2,
				13
			]
		}
	],
	"nodes":[
		{
			"name":"Bone",
			"rotation":[
				-8.557136332854043e-09,
				1.7114272665708086e-08,
				-2.928983286277023e-16,
				1
			]
		},
		{
			"name":"neutral_bone",
			"rotation":[
				-0.7071067690849304,
				0,
				0,
				0.7071067690849304
			]
		},
		{
			"children":[
				0,
				1
			],
			"name":"Armature"
		},
		{
			"name":"Bone.007",
			"rotation":[
				1.805112148645094e-08,
				1.4166342054977576e-07,
				-0.22906485199928284,
				0.9734112024307251
			],
			"scale":[
				1,
				0.9999999403953552,
				1
			],
			"translation":[
				8.940696005765858e-08,
				0.1307525932788849,
				-3.197442310920451e-14
			]
		},
		{
			"children":[
				3
			],
			"name":"Bone.006",
			"rotation":[
				3.521608338274973e-09,
				-6.92636490384757e-08,
				-0.11496562510728836,
				0.993369460105896
			],
			"scale":[
				1,
				1.0000001192092896,
				1
			],
			"translation":[
				-6.705522537231445e-08,
				0.22174665331840515,
				-1.4210854715202004e-14
			]
		},
		{
			"children":[
				4
			],
			"name":"Bone.005",
			"rotation":[
				1.6796983803857302e-09,
				6.801963081670692e-08,
				-0.0808987244963646,
				0.9967223405838013
			],
			"translation":[
				2.086162567138672e-07,
				0.1512279510498047,
				-2.4868995751603507e-14
			]
		},
		{
			"children":[
				5
			],
			"name":"Bone.004",
			"rotation":[
				-6.248280226550662e-10,
				1.7336734714490376e-08,
				-0.12455647438764572,
				0.9922125339508057
			],
			"scale":[
				1,
				1,
				0.9999999403953552
			],
			"translation":[
				-2.9802322387695312e-08,
				0.21710610389709473,
				-1.7763568394002505e-14
			]
		},
		{
			"children":[
				6
			],
			"name":"Bone.003",
			"rotation":[
				-1.340843103214695e-09,
				3.6517999291163505e-08,
				-0.1944630891084671,
				0.9809098243713379
			],
			"scale":[
				0.9999999403953552,
				1.0000001192092896,
				1
			],
			"translation":[
				8.940696716308594e-08,
				0.15302497148513794,
				-1.0658141036401503e-14
			]
		},
		{
			"children":[
				7
			],
			"name":"Bone.002",
			"rotation":[
				-5.315681228523772e-10,
				-5.53847634421345e-08,
				-0.019386939704418182,
				0.9998120665550232
			],
			"scale":[
				0.9999998807907104,
				1,
				1
			],
			"translation":[
				-5.960464477539063e-08,
				0.21716052293777466,
				-1.0658141036401503e-14
			]
		},
		{
			"children":[
				8
			],
			"name":"Bone.001",
			"rotation":[
				-2.3521383241131844e-07,
				-4.682034759895259e-10,
				0.10026069730520248,
				0.9949612021446228
			],
			"translation":[
				-1.1920928955078125e-07,
				0.17985445261001587,
				7.105427357601002e-15
			]
		},
		{
			"children":[
				9
			],
			"name":"Bone",
			"rotation":[
				1.5724765489721904e-07,
				3.1526720789543106e-08,
				-0.0637422725558281,
				0.9979664087295532
			],
			"scale":[
				1,
				1,
				0.9999999403953552
			],
			"translation":[
				-5.960464477539063e-08,
				1.1920928955078125e-07,
				0
			]
		},
		{
			"name":"neutral_bone",
			"rotation":[
				-0.7071067690849304,
				0,
				0,
				0.7071067690849304
			],
			"translation":[
				0,
				5.960464477539063e-08,
				0
			]
		},
		{
			"mesh":0,
			"name":"head.001",
			"skin":0
		},
		{
			"children":[
				12,
				10,
				11
			],
			"name":"Armature.001",
			"rotation":[
				0,
				0,
				0.9269661903381348,
				0.37514492869377136
			],
			"translation":[
				-1.3107835054397583,
				-0.9113163352012634,
				0
			]
		}
	],
	"animations":[
		{
			"channels":[
				{
					"sampler":0,
					"target":{
						"node":10,
						"path":"translation"
					}
				},
				{
					"sampler":1,
					"target":{
						"node":10,
						"path":"rotation"
					}
				},
				{
					"sampler":2,
					"target":{
						"node":10,
						"path":"scale"
					}
				},
				{
					"sampler":3,
					"target":{
						"node":9,
						"path":"translation"
					}
				},
				{
					"sampler":4,
					"target":{
						"node":9,
						"path":"rotation"
					}
				},
				{
					"sampler":5,
					"target":{
						"node":9,
						"path":"scale"
					}
				},
				{
					"sampler":6,
					"target":{
						"node":8,
						"path":"translation"
					}
				},
				{
					"sampler":7,
					"target":{
						"node":8,
						"path":"rotation"
					}
				},
				{
					"sampler":8,
					"target":{
						"node":8,
						"path":"scale"
					}
				},
				{
					"sampler":9,
					"target":{
						"node":7,
						"path":"translation"
					}
				},
				{
					"sampler":10,
					"target":{
						"node":7,
						"path":"rotation"
					}
				},
				{
					"sampler":11,
					"target":{
						"node":7,
						"path":"scale"
					}
				},
				{
					"sampler":12,
					"target":{
						"node":6,
						"path":"translation"
					}
				},
				{
					"sampler":13,
					"target":{
						"node":6,
						"path":"rotation"
					}
				},
				{
					"sampler":14,
					"target":{
						"node":6,
						"path":"scale"
					}
				},
				{
					"sampler":15,
					"target":{
						"node":5,
						"path":"translation"
					}
				},
				{
					"sampler":16,
					"target":{
						"node":5,
						"path":"rotation"
					}
				},
				{
					"sampler":17,
					"target":{
						"node":5,
						"path":"scale"
					}
				},
				{
					"sampler":18,
					"target":{
						"node":4,
						"path":"translation"
					}
				},
				{
					"sampler":19,
					"target":{
						"node":4,
						"path":"rotation"
					}
				},
				{
					"sampler":20,
					"target":{
						"node":4,
						"path":"scale"
					}
				},
				{
					"sampler":21,
					"target":{
						"node":3,
						"path":"translation"
					}
				},
				{
					"sampler":22,
					"target":{
						"node":3,
						"path":"rotation"
					}
				},
				{
					"sampler":23,
					"target":{
						"node":3,
						"path":"scale"
					}
				},
				{
					"sampler":24,
					"target":{
						"node":11,
						"path":"translation"
					}
				},
				{
					"sampler":25,
					"target":{
						"node":11,
						"path":"rotation"
					}
				},
				{
					"sampler":26,
					"target":{
						"node":11,
						"path":"scale"
					}
				}
			],
			"name":"\u30a2\u30fc\u30de\u30c1\u30e5\u30a2Action",
			"samplers":[
				{
					"input":8,
					"interpolation":"LINEAR",
					"output":9
				},
				{
					"input":8,
					"interpolation":"LINEAR",
					"output":10
				},
				{
					"input":11,
					"interpolation":"STEP",
					"output":12
				},
				{
					"input":11,
					"interpolation":"LINEAR",
					"output":13
				},
				{
					"input":11,
					"interpolation":"LINEAR",
					"output":14
				},
				{
					"input":11,
					"interpolation":"LINEAR",
					"output":15
				},
				{
					"input":11,
					"interpolation":"LINEAR",
					"output":16
				},
				{
					"input":11,
					"interpolation":"LINEAR",
					"output":17
				},
				{
					"input":11,
					"interpolation":"STEP",
					"output":18
				},
				{
					"input":11,
					"interpolation":"LINEAR",
					"output":19
				},
				{
					"input":11,
					"interpolation":"LINEAR",
					"output":20
				},
				{
					"input":11,
					"interpolation":"LINEAR",
					"output":21
				},
				{
					"input":11,
					"interpolation":"LINEAR",
					"output":22
				},
				{
					"input":11,
					"interpolation":"LINEAR",
					"output":23
				},
				{
					"input":11,
					"interpolation":"STEP",
					"output":24
				},
				{
					"input":11,
					"interpolation":"LINEAR",
					"output":25
				},
				{
					"input":11,
					"interpolation":"LINEAR",
					"output":26
				},
				{
					"input":11,
					"interpolation":"LINEAR",
					"output":27
				},
				{
					"input":11,
					"interpolation":"LINEAR",
					"output":28
				},
				{
					"input":11,
					"interpolation":"LINEAR",
					"output":29
				},
				{
					"input":11,
					"interpolation":"LINEAR",
					"output":30
				},
				{
					"input":11,
					"interpolation":"LINEAR",
					"output":31
				},
				{
					"input":11,
					"interpolation":"LINEAR",
					"output":32
				},
				{
					"input":11,
					"interpolation":"LINEAR",
					"output":33
				},
				{
					"input":11,
					"interpolation":"STEP",
					"output":34
				},
				{
					"input":11,
					"interpolation":"STEP",
					"output":35
				},
				{
					"input":11,
					"interpolation":"STEP",
					"output":36
				}
			]
		}
	],
	"materials":[
		{
			"doubleSided":true,
			"name":"\u30de\u30c6\u30ea\u30a2\u30eb.001",
			"pbrMetallicRoughness":{
				"baseColorTexture":{
					"index":0
				},
				"metallicFactor":0,
				"roughnessFactor":0.5
			}
		}
	],
	"meshes":[
		{
			"name":"\u7acb\u65b9\u4f53.002",
			"primitives":[
				{
					"attributes":{
						"POSITION":0,
						"NORMAL":1,
						"TEXCOORD_0":2,
						"TEXCOORD_1":3,
						"JOINTS_0":4,
						"WEIGHTS_0":5
					},
					"indices":6,
					"material":0
				}
			]
		}
	],
	"textures":[
		{
			"sampler":0,
			"source":0
		}
	],
	"images":[
		{
			"mimeType":"image/png",
			"name":"kirin_head",
			"uri":"kirin_head.png"
		}
	],
	"skins":[
		{
			"inverseBindMatrices":7,
			"joints":[
				10,
				9,
				8,
				7,
				6,
				5,
				4,
				3,
				11
			],
			"name":"Armature.001"
		},
		{
			"inverseBindMatrices":37,
			"joints":[
				0,
				1
			],
			"name":"Armature"
		}
	],
	"accessors":[
		{
			"bufferView":0,
			"componentType":5126,
			"count":9146,
			"max":[
				1.4203684329986572,
				1.7119916677474976,
				1.0093481540679932
			],
			"min":[
				-2.4977242946624756,
				-1.7567304372787476,
				-1.034615159034729
			],
			"type":"VEC3"
		},
		{
			"bufferView":1,
			"componentType":5126,
			"count":9146,
			"type":"VEC3"
		},
		{
			"bufferView":2,
			"componentType":5126,
			"count":9146,
			"type":"VEC2"
		},
		{
			"bufferView":3,
			"componentType":5126,
			"count":9146,
			"type":"VEC2"
		},
		{
			"bufferView":4,
			"componentType":5121,
			"count":9146,
			"type":"VEC4"
		},
		{
			"bufferView":5,
			"componentType":5126,
			"count":9146,
			"type":"VEC4"
		},
		{
			"bufferView":6,
			"componentType":5123,
			"count":17538,
			"type":"SCALAR"
		},
		{
			"bufferView":7,
			"componentType":5126,
			"count":9,
			"type":"MAT4"
		},
		{
			"bufferView":8,
			"componentType":5126,
			"count":24,
			"max":[
				0.9583333333333334
			],
			"min":[
				0
			],
			"type":"SCALAR"
		},
		{
			"bufferView":9,
			"componentType":5126,
			"count":24,
			"type":"VEC3"
		},
		{
			"bufferView":10,
			"componentType":5126,
			"count":24,
			"type":"VEC4"
		},
		{
			"bufferView":11,
			"componentType":5126,
			"count":2,
			"max":[
				0.9583333333333334
			],
			"min":[
				0
			],
			"type":"SCALAR"
		},
		{
			"bufferView":12,
			"componentType":5126,
			"count":2,
			"type":"VEC3"
		},
		{
			"bufferView":13,
			"componentType":5126,
			"count":2,
			"type":"VEC3"
		},
		{
			"bufferView":14,
			"componentType":5126,
			"count":2,
			"type":"VEC4"
		},
		{
			"bufferView":15,
			"componentType":5126,
			"count":2,
			"type":"VEC3"
		},
		{
			"bufferView":16,
			"componentType":5126,
			"count":2,
			"type":"VEC3"
		},
		{
			"bufferView":17,
			"componentType":5126,
			"count":2,
			"type":"VEC4"
		},
		{
			"bufferView":18,
			"componentType":5126,
			"count":2,
			"type":"VEC3"
		},
		{
			"bufferView":19,
			"componentType":5126,
			"count":2,
			"type":"VEC3"
		},
		{
			"bufferView":20,
			"componentType":5126,
			"count":2,
			"type":"VEC4"
		},
		{
			"bufferView":21,
			"componentType":5126,
			"count":2,
			"type":"VEC3"
		},
		{
			"bufferView":22,
			"componentType":5126,
			"count":2,
			"type":"VEC3"
		},
		{
			"bufferView":23,
			"componentType":5126,
			"count":2,
			"type":"VEC4"
		},
		{
			"bufferView":24,
			"componentType":5126,
			"count":2,
			"type":"VEC3"
		},
		{
			"bufferView":25,
			"componentType":5126,
			"count":2,
			"type":"VEC3"
		},
		{
			"bufferView":26,
			"componentType":5126,
			"count":2,
			"type":"VEC4"
		},
		{
			"bufferView":27,
			"componentType":5126,
			"count":2,
			"type":"VEC3"
		},
		{
			"bufferView":28,
			"componentType":5126,
			"count":2,
			"type":"VEC3"
		},
		{
			"bufferView":29,
			"componentType":5126,
			"count":2,
			"type":"VEC4"
		},
		{
			"bufferView":30,
			"componentType":5126,
			"count":2,
			"type":"VEC3"
		},
		{
			"bufferView":31,
			"componentType":5126,
			"count":2,
			"type":"VEC3"
		},
		{
			"bufferView":32,
			"componentType":5126,
			"count":2,
			"type":"VEC4"
		},
		{
			"bufferView":33,
			"componentType":5126,
			"count":2,
			"type":"VEC3"
		},
		{
			"bufferView":34,
			"componentType":5126,
			"count":2,
			"type":"VEC3"
		},
		{
			"bufferView":35,
			"componentType":5126,
			"count":2,
			"type":"VEC4"
		},
		{
			"bufferView":36,
			"componentType":5126,
			"count":2,
			"type":"VEC3"
		},
		{
			"bufferView":37,
			"componentType":5126,
			"count":2,
			"type":"MAT4"
		}
	],
	"bufferViews":[
		{
			"buffer":0,
			"byteLength":109752,
			"byteOffset":0,
			"target":34962
		},
		{
			"buffer":0,
			"byteLength":109752,
			"byteOffset":109752,
			"target":34962
		},
		{
			"buffer":0,
			"byteLength":73168,
			"byteOffset":219504,
			"target":34962
		},
		{
			"buffer":0,
			"byteLength":73168,
			"byteOffset":292672,
			"target":34962
		},
		{
			"buffer":0,
			"byteLength":36584,
			"byteOffset":365840,
			"target":34962
		},
		{
			"buffer":0,
			"byteLength":146336,
			"byteOffset":402424,
			"target":34962
		},
		{
			"buffer":0,
			"byteLength":35076,
			"byteOffset":548760,
			"target":34963
		},
		{
			"buffer":0,
			"byteLength":576,
			"byteOffset":583836
		},
		{
			"buffer":0,
			"byteLength":96,
			"byteOffset":584412
		},
		{
			"buffer":0,
			"byteLength":288,
			"byteOffset":584508
		},
		{
			"buffer":0,
			"byteLength":384,
			"byteOffset":584796
		},
		{
			"buffer":0,
			"byteLength":8,
			"byteOffset":585180
		},
		{
			"buffer":0,
			"byteLength":24,
			"byteOffset":585188
		},
		{
			"buffer":0,
			"byteLength":24,
			"byteOffset":585212
		},
		{
			"buffer":0,
			"byteLength":32,
			"byteOffset":585236
		},
		{
			"buffer":0,
			"byteLength":24,
			"byteOffset":585268
		},
		{
			"buffer":0,
			"byteLength":24,
			"byteOffset":585292
		},
		{
			"buffer":0,
			"byteLength":32,
			"byteOffset":585316
		},
		{
			"buffer":0,
			"byteLength":24,
			"byteOffset":585348
		},
		{
			"buffer":0,
			"byteLength":24,
			"byteOffset":585372
		},
		{
			"buffer":0,
			"byteLength":32,
			"byteOffset":585396
		},
		{
			"buffer":0,
			"byteLength":24,
			"byteOffset":585428
		},
		{
			"buffer":0,
			"byteLength":24,
			"byteOffset":585452
		},
		{
			"buffer":0,
			"byteLength":32,
			"byteOffset":585476
		},
		{
			"buffer":0,
			"byteLength":24,
			"byteOffset":585508
		},
		{
			"buffer":0,
			"byteLength":24,
			"byteOffset":585532
		},
		{
			"buffer":0,
			"byteLength":32,
			"byteOffset":585556
		},
		{
			"buffer":0,
			"byteLength":24,
			"byteOffset":585588
		},
		{
			"buffer":0,
			"byteLength":24,
			"byteOffset":585612
		},
		{
			"buffer":0,
			"byteLength":32,
			"byteOffset":585636
		},
		{
			"buffer":0,
			"byteLength":24,
			"byteOffset":585668
		},
		{
			"buffer":0,
			"byteLength":24,
			"byteOffset":585692
		},
		{
			"buffer":0,
			"byteLength":32,
			"byteOffset":585716
		},
		{
			"buffer":0,
			"byteLength":24,
			"byteOffset":585748
		},
		{
			"buffer":0,
			"byteLength":24,
			"byteOffset":585772
		},
		{
			"buffer":0,
			"byteLength":32,
			"byteOffset":585796
		},
		{
			"buffer":0,
			"byteLength":24,
			"byteOffset":585828
		},
		{
			"buffer":0,
			"byteLength":128,
			"byteOffset":585852
		}
	],
	"samplers":[
		{
			"magFilter":9729,
			"minFilter":9987
		}
	],
	"buffers":[
		{
			"byteLength":585980,
			"uri":"kirin_yodare.bin"
		}
	]
}
