{
	"asset":{
		"generator":"Khronos glTF Blender I/O v4.1.63",
		"version":"2.0"
	},
	"scene":0,
	"scenes":[
		{
			"name":"Scene",
			"nodes":[
				10
			]
		}
	],
	"nodes":[
		{
			"name":"\u30dc\u30fc\u30f3.007",
			"rotation":[
				3.9516734773314965e-08,
				5.747711639969566e-08,
				-0.22906462848186493,
				0.9734112620353699
			],
			"scale":[
				1,
				0.9999998807907104,
				0.9999999403953552
			],
			"translation":[
				1.1920928244535389e-07,
				0.1307523250579834,
				-8.881784197001252e-16
			]
		},
		{
			"children":[
				0
			],
			"name":"\u30dc\u30fc\u30f3.006",
			"rotation":[
				1.784654379832773e-08,
				-4.149001853193113e-08,
				-0.1149657815694809,
				0.993369460105896
			],
			"scale":[
				0.9999999403953552,
				0.9999999403953552,
				0.9999999403953552
			],
			"translation":[
				-1.1175871605928478e-07,
				0.22174692153930664,
				-7.993605777301127e-15
			]
		},
		{
			"children":[
				1
			],
			"name":"\u30dc\u30fc\u30f3.005",
			"rotation":[
				1.3638158158357783e-08,
				2.8323972500743366e-08,
				-0.08089867234230042,
				0.9967223405838013
			],
			"scale":[
				0.9999998807907104,
				0.9999999403953552,
				1
			],
			"translation":[
				8.940696716308594e-08,
				0.1512279212474823,
				8.881784197001252e-15
			]
		},
		{
			"children":[
				2
			],
			"name":"\u30dc\u30fc\u30f3.004",
			"rotation":[
				1.3611387572609601e-08,
				3.064677756015044e-08,
				-0.1245565339922905,
				0.9922125339508057
			],
			"scale":[
				0.9999999403953552,
				0.9999999403953552,
				1
			],
			"translation":[
				1.7881393432617188e-07,
				0.2171066403388977,
				-3.552713678800501e-15
			]
		},
		{
			"children":[
				3
			],
			"name":"\u30dc\u30fc\u30f3.003",
			"rotation":[
				1.135818017417023e-08,
				1.9602088840997567e-08,
				-0.19446299970149994,
				0.9809098839759827
			],
			"scale":[
				1.0000001192092896,
				1,
				1.0000001192092896
			],
			"translation":[
				5.960464477539063e-08,
				0.15302503108978271,
				-3.552713678800501e-15
			]
		},
		{
			"children":[
				4
			],
			"name":"\u30dc\u30fc\u30f3.002",
			"rotation":[
				1.938396554379551e-09,
				-6.155006104791028e-08,
				-0.019386956468224525,
				0.9998120665550232
			],
			"scale":[
				0.9999998807907104,
				0.9999999403953552,
				1
			],
			"translation":[
				5.9604641222676946e-08,
				0.21716070175170898,
				-2.1316282072803006e-14
			]
		},
		{
			"children":[
				5
			],
			"name":"\u30dc\u30fc\u30f3.001",
			"rotation":[
				-2.8603187729459023e-07,
				-2.2938946298012297e-09,
				0.10026068240404129,
				0.9949612021446228
			],
			"translation":[
				7.450569050604372e-09,
				0.17985469102859497,
				-1.4210854715202004e-14
			]
		},
		{
			"children":[
				6
			],
			"name":"\u30dc\u30fc\u30f3",
			"rotation":[
				2.7716643558051146e-07,
				4.298372147104601e-08,
				-0.0637422725558281,
				0.9979663491249084
			],
			"scale":[
				1.0000001192092896,
				1.0000001192092896,
				1.0000001192092896
			],
			"translation":[
				0,
				5.960464477539063e-08,
				0
			]
		},
		{
			"name":"neutral_bone",
			"rotation":[
				-0.7071067690849304,
				0,
				0,
				0.7071067690849304
			]
		},
		{
			"mesh":0,
			"name":"head.001",
			"skin":0
		},
		{
			"children":[
				9,
				7,
				8
			],
			"name":"\u30a2\u30fc\u30de\u30c1\u30e5\u30a2",
			"rotation":[
				0,
				0,
				0.9269661903381348,
				0.375144898891449
			],
			"translation":[
				-1.3107835054397583,
				-0.9113163352012634,
				0
			]
		}
	],
	"animations":[
		{
			"channels":[
				{
					"sampler":0,
					"target":{
						"node":7,
						"path":"translation"
					}
				},
				{
					"sampler":1,
					"target":{
						"node":7,
						"path":"rotation"
					}
				},
				{
					"sampler":2,
					"target":{
						"node":7,
						"path":"scale"
					}
				},
				{
					"sampler":3,
					"target":{
						"node":6,
						"path":"translation"
					}
				},
				{
					"sampler":4,
					"target":{
						"node":6,
						"path":"rotation"
					}
				},
				{
					"sampler":5,
					"target":{
						"node":6,
						"path":"scale"
					}
				},
				{
					"sampler":6,
					"target":{
						"node":5,
						"path":"translation"
					}
				},
				{
					"sampler":7,
					"target":{
						"node":5,
						"path":"rotation"
					}
				},
				{
					"sampler":8,
					"target":{
						"node":5,
						"path":"scale"
					}
				},
				{
					"sampler":9,
					"target":{
						"node":4,
						"path":"translation"
					}
				},
				{
					"sampler":10,
					"target":{
						"node":4,
						"path":"rotation"
					}
				},
				{
					"sampler":11,
					"target":{
						"node":4,
						"path":"scale"
					}
				},
				{
					"sampler":12,
					"target":{
						"node":3,
						"path":"translation"
					}
				},
				{
					"sampler":13,
					"target":{
						"node":3,
						"path":"rotation"
					}
				},
				{
					"sampler":14,
					"target":{
						"node":3,
						"path":"scale"
					}
				},
				{
					"sampler":15,
					"target":{
						"node":2,
						"path":"translation"
					}
				},
				{
					"sampler":16,
					"target":{
						"node":2,
						"path":"rotation"
					}
				},
				{
					"sampler":17,
					"target":{
						"node":2,
						"path":"scale"
					}
				},
				{
					"sampler":18,
					"target":{
						"node":1,
						"path":"translation"
					}
				},
				{
					"sampler":19,
					"target":{
						"node":1,
						"path":"rotation"
					}
				},
				{
					"sampler":20,
					"target":{
						"node":1,
						"path":"scale"
					}
				},
				{
					"sampler":21,
					"target":{
						"node":0,
						"path":"translation"
					}
				},
				{
					"sampler":22,
					"target":{
						"node":0,
						"path":"rotation"
					}
				},
				{
					"sampler":23,
					"target":{
						"node":0,
						"path":"scale"
					}
				}
			],
			"name":"\u30a2\u30fc\u30de\u30c1\u30e5\u30a2Action",
			"samplers":[
				{
					"input":8,
					"interpolation":"LINEAR",
					"output":9
				},
				{
					"input":8,
					"interpolation":"LINEAR",
					"output":10
				},
				{
					"input":11,
					"interpolation":"STEP",
					"output":12
				},
				{
					"input":11,
					"interpolation":"LINEAR",
					"output":13
				},
				{
					"input":11,
					"interpolation":"LINEAR",
					"output":14
				},
				{
					"input":11,
					"interpolation":"LINEAR",
					"output":15
				},
				{
					"input":11,
					"interpolation":"LINEAR",
					"output":16
				},
				{
					"input":11,
					"interpolation":"LINEAR",
					"output":17
				},
				{
					"input":11,
					"interpolation":"LINEAR",
					"output":18
				},
				{
					"input":11,
					"interpolation":"LINEAR",
					"output":19
				},
				{
					"input":11,
					"interpolation":"LINEAR",
					"output":20
				},
				{
					"input":11,
					"interpolation":"STEP",
					"output":21
				},
				{
					"input":11,
					"interpolation":"LINEAR",
					"output":22
				},
				{
					"input":11,
					"interpolation":"LINEAR",
					"output":23
				},
				{
					"input":11,
					"interpolation":"LINEAR",
					"output":24
				},
				{
					"input":11,
					"interpolation":"LINEAR",
					"output":25
				},
				{
					"input":11,
					"interpolation":"LINEAR",
					"output":26
				},
				{
					"input":11,
					"interpolation":"STEP",
					"output":27
				},
				{
					"input":11,
					"interpolation":"LINEAR",
					"output":28
				},
				{
					"input":11,
					"interpolation":"LINEAR",
					"output":29
				},
				{
					"input":11,
					"interpolation":"STEP",
					"output":30
				},
				{
					"input":11,
					"interpolation":"LINEAR",
					"output":31
				},
				{
					"input":11,
					"interpolation":"LINEAR",
					"output":32
				},
				{
					"input":11,
					"interpolation":"STEP",
					"output":33
				}
			]
		}
	],
	"materials":[
		{
			"doubleSided":true,
			"name":"\u30de\u30c6\u30ea\u30a2\u30eb.004",
			"pbrMetallicRoughness":{
				"baseColorTexture":{
					"index":0
				},
				"metallicFactor":0,
				"roughnessFactor":0.5
			}
		}
	],
	"meshes":[
		{
			"name":"\u7acb\u65b9\u4f53.001",
			"primitives":[
				{
					"attributes":{
						"POSITION":0,
						"NORMAL":1,
						"TEXCOORD_0":2,
						"TEXCOORD_1":3,
						"JOINTS_0":4,
						"WEIGHTS_0":5
					},
					"indices":6,
					"material":0
				}
			]
		}
	],
	"textures":[
		{
			"sampler":0,
			"source":0
		}
	],
	"images":[
		{
			"mimeType":"image/png",
			"name":"kirin_head",
			"uri":"kirin_head.png"
		}
	],
	"skins":[
		{
			"inverseBindMatrices":7,
			"joints":[
				7,
				6,
				5,
				4,
				3,
				2,
				1,
				0,
				8
			],
			"name":"\u30a2\u30fc\u30de\u30c1\u30e5\u30a2"
		}
	],
	"accessors":[
		{
			"bufferView":0,
			"componentType":5126,
			"count":9073,
			"max":[
				1.4203684329986572,
				1.711991786956787,
				1.0093482732772827
			],
			"min":[
				-2.497725009918213,
				-1.756730318069458,
				-1.0346152782440186
			],
			"type":"VEC3"
		},
		{
			"bufferView":1,
			"componentType":5126,
			"count":9073,
			"type":"VEC3"
		},
		{
			"bufferView":2,
			"componentType":5126,
			"count":9073,
			"type":"VEC2"
		},
		{
			"bufferView":3,
			"componentType":5126,
			"count":9073,
			"type":"VEC2"
		},
		{
			"bufferView":4,
			"componentType":5121,
			"count":9073,
			"type":"VEC4"
		},
		{
			"bufferView":5,
			"componentType":5126,
			"count":9073,
			"type":"VEC4"
		},
		{
			"bufferView":6,
			"componentType":5123,
			"count":17538,
			"type":"SCALAR"
		},
		{
			"bufferView":7,
			"componentType":5126,
			"count":9,
			"type":"MAT4"
		},
		{
			"bufferView":8,
			"componentType":5126,
			"count":24,
			"max":[
				0.9583333333333334
			],
			"min":[
				0
			],
			"type":"SCALAR"
		},
		{
			"bufferView":9,
			"componentType":5126,
			"count":24,
			"type":"VEC3"
		},
		{
			"bufferView":10,
			"componentType":5126,
			"count":24,
			"type":"VEC4"
		},
		{
			"bufferView":11,
			"componentType":5126,
			"count":2,
			"max":[
				0.9583333333333334
			],
			"min":[
				0
			],
			"type":"SCALAR"
		},
		{
			"bufferView":12,
			"componentType":5126,
			"count":2,
			"type":"VEC3"
		},
		{
			"bufferView":13,
			"componentType":5126,
			"count":2,
			"type":"VEC3"
		},
		{
			"bufferView":14,
			"componentType":5126,
			"count":2,
			"type":"VEC4"
		},
		{
			"bufferView":15,
			"componentType":5126,
			"count":2,
			"type":"VEC3"
		},
		{
			"bufferView":16,
			"componentType":5126,
			"count":2,
			"type":"VEC3"
		},
		{
			"bufferView":17,
			"componentType":5126,
			"count":2,
			"type":"VEC4"
		},
		{
			"bufferView":18,
			"componentType":5126,
			"count":2,
			"type":"VEC3"
		},
		{
			"bufferView":19,
			"componentType":5126,
			"count":2,
			"type":"VEC3"
		},
		{
			"bufferView":20,
			"componentType":5126,
			"count":2,
			"type":"VEC4"
		},
		{
			"bufferView":21,
			"componentType":5126,
			"count":2,
			"type":"VEC3"
		},
		{
			"bufferView":22,
			"componentType":5126,
			"count":2,
			"type":"VEC3"
		},
		{
			"bufferView":23,
			"componentType":5126,
			"count":2,
			"type":"VEC4"
		},
		{
			"bufferView":24,
			"componentType":5126,
			"count":2,
			"type":"VEC3"
		},
		{
			"bufferView":25,
			"componentType":5126,
			"count":2,
			"type":"VEC3"
		},
		{
			"bufferView":26,
			"componentType":5126,
			"count":2,
			"type":"VEC4"
		},
		{
			"bufferView":27,
			"componentType":5126,
			"count":2,
			"type":"VEC3"
		},
		{
			"bufferView":28,
			"componentType":5126,
			"count":2,
			"type":"VEC3"
		},
		{
			"bufferView":29,
			"componentType":5126,
			"count":2,
			"type":"VEC4"
		},
		{
			"bufferView":30,
			"componentType":5126,
			"count":2,
			"type":"VEC3"
		},
		{
			"bufferView":31,
			"componentType":5126,
			"count":2,
			"type":"VEC3"
		},
		{
			"bufferView":32,
			"componentType":5126,
			"count":2,
			"type":"VEC4"
		},
		{
			"bufferView":33,
			"componentType":5126,
			"count":2,
			"type":"VEC3"
		}
	],
	"bufferViews":[
		{
			"buffer":0,
			"byteLength":108876,
			"byteOffset":0,
			"target":34962
		},
		{
			"buffer":0,
			"byteLength":108876,
			"byteOffset":108876,
			"target":34962
		},
		{
			"buffer":0,
			"byteLength":72584,
			"byteOffset":217752,
			"target":34962
		},
		{
			"buffer":0,
			"byteLength":72584,
			"byteOffset":290336,
			"target":34962
		},
		{
			"buffer":0,
			"byteLength":36292,
			"byteOffset":362920,
			"target":34962
		},
		{
			"buffer":0,
			"byteLength":145168,
			"byteOffset":399212,
			"target":34962
		},
		{
			"buffer":0,
			"byteLength":35076,
			"byteOffset":544380,
			"target":34963
		},
		{
			"buffer":0,
			"byteLength":576,
			"byteOffset":579456
		},
		{
			"buffer":0,
			"byteLength":96,
			"byteOffset":580032
		},
		{
			"buffer":0,
			"byteLength":288,
			"byteOffset":580128
		},
		{
			"buffer":0,
			"byteLength":384,
			"byteOffset":580416
		},
		{
			"buffer":0,
			"byteLength":8,
			"byteOffset":580800
		},
		{
			"buffer":0,
			"byteLength":24,
			"byteOffset":580808
		},
		{
			"buffer":0,
			"byteLength":24,
			"byteOffset":580832
		},
		{
			"buffer":0,
			"byteLength":32,
			"byteOffset":580856
		},
		{
			"buffer":0,
			"byteLength":24,
			"byteOffset":580888
		},
		{
			"buffer":0,
			"byteLength":24,
			"byteOffset":580912
		},
		{
			"buffer":0,
			"byteLength":32,
			"byteOffset":580936
		},
		{
			"buffer":0,
			"byteLength":24,
			"byteOffset":580968
		},
		{
			"buffer":0,
			"byteLength":24,
			"byteOffset":580992
		},
		{
			"buffer":0,
			"byteLength":32,
			"byteOffset":581016
		},
		{
			"buffer":0,
			"byteLength":24,
			"byteOffset":581048
		},
		{
			"buffer":0,
			"byteLength":24,
			"byteOffset":581072
		},
		{
			"buffer":0,
			"byteLength":32,
			"byteOffset":581096
		},
		{
			"buffer":0,
			"byteLength":24,
			"byteOffset":581128
		},
		{
			"buffer":0,
			"byteLength":24,
			"byteOffset":581152
		},
		{
			"buffer":0,
			"byteLength":32,
			"byteOffset":581176
		},
		{
			"buffer":0,
			"byteLength":24,
			"byteOffset":581208
		},
		{
			"buffer":0,
			"byteLength":24,
			"byteOffset":581232
		},
		{
			"buffer":0,
			"byteLength":32,
			"byteOffset":581256
		},
		{
			"buffer":0,
			"byteLength":24,
			"byteOffset":581288
		},
		{
			"buffer":0,
			"byteLength":24,
			"byteOffset":581312
		},
		{
			"buffer":0,
			"byteLength":32,
			"byteOffset":581336
		},
		{
			"buffer":0,
			"byteLength":24,
			"byteOffset":581368
		}
	],
	"samplers":[
		{
			"magFilter":9729,
			"minFilter":9987
		}
	],
	"buffers":[
		{
			"byteLength":581392,
			"uri":"kirin_yodare.bin"
		}
	]
}
