{
	"asset":{
		"generator":"Khronos glTF Blender I/O v4.4.55",
		"version":"2.0"
	},
	"scene":0,
	"scenes":[
		{
			"name":"Scene",
			"nodes":[
				4
			]
		}
	],
	"nodes":[
		{
			"name":"\u30dc\u30fc\u30f3",
			"rotation":[
				0.4984051585197449,
				-0.5015896558761597,
				-0.4984050989151001,
				0.501589834690094
			],
			"scale":[
				0.9999998807907104,
				0.9999997019767761,
				0.9999998211860657
			],
			"translation":[
				-8.994415455487736e-12,
				-3.280583769083023e-07,
				-1.3504177331924438e-08
			]
		},
		{
			"children":[
				0
			],
			"name":"\u30dc\u30fc\u30f3.001",
			"rotation":[
				0.5015897750854492,
				0.49840518832206726,
				-0.501589834690094,
				0.4984050691127777
			],
			"translation":[
				-1.0584852695465088,
				-0.5670457482337952,
				0
			]
		},
		{
			"name":"neutral_bone",
			"rotation":[
				-0.7071067690849304,
				0,
				0,
				0.7071067690849304
			]
		},
		{
			"mesh":0,
			"name":"head.001",
			"skin":0
		},
		{
			"children":[
				3,
				1,
				2
			],
			"name":"\u30a2\u30fc\u30de\u30c1\u30e5\u30a2"
		}
	],
	"animations":[
		{
			"channels":[
				{
					"sampler":0,
					"target":{
						"node":1,
						"path":"translation"
					}
				},
				{
					"sampler":1,
					"target":{
						"node":1,
						"path":"rotation"
					}
				},
				{
					"sampler":2,
					"target":{
						"node":1,
						"path":"scale"
					}
				},
				{
					"sampler":3,
					"target":{
						"node":0,
						"path":"translation"
					}
				},
				{
					"sampler":4,
					"target":{
						"node":0,
						"path":"rotation"
					}
				},
				{
					"sampler":5,
					"target":{
						"node":0,
						"path":"scale"
					}
				},
				{
					"sampler":6,
					"target":{
						"node":2,
						"path":"translation"
					}
				},
				{
					"sampler":7,
					"target":{
						"node":2,
						"path":"rotation"
					}
				},
				{
					"sampler":8,
					"target":{
						"node":2,
						"path":"scale"
					}
				}
			],
			"name":"\u30a2\u30fc\u30de\u30c1\u30e5\u30a2",
			"samplers":[
				{
					"input":8,
					"interpolation":"LINEAR",
					"output":9
				},
				{
					"input":10,
					"interpolation":"STEP",
					"output":11
				},
				{
					"input":8,
					"interpolation":"LINEAR",
					"output":12
				},
				{
					"input":8,
					"interpolation":"LINEAR",
					"output":13
				},
				{
					"input":10,
					"interpolation":"STEP",
					"output":14
				},
				{
					"input":10,
					"interpolation":"STEP",
					"output":15
				},
				{
					"input":10,
					"interpolation":"STEP",
					"output":16
				},
				{
					"input":10,
					"interpolation":"STEP",
					"output":17
				},
				{
					"input":10,
					"interpolation":"STEP",
					"output":18
				}
			]
		},
		{
			"channels":[
				{
					"sampler":0,
					"target":{
						"node":1,
						"path":"translation"
					}
				},
				{
					"sampler":1,
					"target":{
						"node":1,
						"path":"rotation"
					}
				},
				{
					"sampler":2,
					"target":{
						"node":1,
						"path":"scale"
					}
				},
				{
					"sampler":3,
					"target":{
						"node":0,
						"path":"translation"
					}
				},
				{
					"sampler":4,
					"target":{
						"node":0,
						"path":"rotation"
					}
				},
				{
					"sampler":5,
					"target":{
						"node":0,
						"path":"scale"
					}
				},
				{
					"sampler":6,
					"target":{
						"node":2,
						"path":"translation"
					}
				},
				{
					"sampler":7,
					"target":{
						"node":2,
						"path":"rotation"
					}
				},
				{
					"sampler":8,
					"target":{
						"node":2,
						"path":"scale"
					}
				}
			],
			"name":"\u30a2\u30fc\u30de\u30c1\u30e5\u30a2.001",
			"samplers":[
				{
					"input":19,
					"interpolation":"LINEAR",
					"output":20
				},
				{
					"input":19,
					"interpolation":"LINEAR",
					"output":21
				},
				{
					"input":19,
					"interpolation":"LINEAR",
					"output":22
				},
				{
					"input":19,
					"interpolation":"LINEAR",
					"output":23
				},
				{
					"input":24,
					"interpolation":"LINEAR",
					"output":25
				},
				{
					"input":24,
					"interpolation":"STEP",
					"output":26
				},
				{
					"input":24,
					"interpolation":"STEP",
					"output":27
				},
				{
					"input":24,
					"interpolation":"STEP",
					"output":28
				},
				{
					"input":24,
					"interpolation":"STEP",
					"output":29
				}
			]
		},
		{
			"channels":[
				{
					"sampler":0,
					"target":{
						"node":1,
						"path":"translation"
					}
				},
				{
					"sampler":1,
					"target":{
						"node":1,
						"path":"rotation"
					}
				},
				{
					"sampler":2,
					"target":{
						"node":1,
						"path":"scale"
					}
				},
				{
					"sampler":3,
					"target":{
						"node":0,
						"path":"translation"
					}
				},
				{
					"sampler":4,
					"target":{
						"node":0,
						"path":"rotation"
					}
				},
				{
					"sampler":5,
					"target":{
						"node":0,
						"path":"scale"
					}
				},
				{
					"sampler":6,
					"target":{
						"node":2,
						"path":"translation"
					}
				},
				{
					"sampler":7,
					"target":{
						"node":2,
						"path":"rotation"
					}
				},
				{
					"sampler":8,
					"target":{
						"node":2,
						"path":"scale"
					}
				}
			],
			"name":"\u30a2\u30fc\u30de\u30c1\u30e5\u30a2.002",
			"samplers":[
				{
					"input":19,
					"interpolation":"LINEAR",
					"output":30
				},
				{
					"input":24,
					"interpolation":"STEP",
					"output":31
				},
				{
					"input":19,
					"interpolation":"LINEAR",
					"output":32
				},
				{
					"input":19,
					"interpolation":"LINEAR",
					"output":33
				},
				{
					"input":24,
					"interpolation":"STEP",
					"output":34
				},
				{
					"input":24,
					"interpolation":"STEP",
					"output":35
				},
				{
					"input":24,
					"interpolation":"STEP",
					"output":36
				},
				{
					"input":24,
					"interpolation":"STEP",
					"output":37
				},
				{
					"input":24,
					"interpolation":"STEP",
					"output":38
				}
			]
		}
	],
	"materials":[
		{
			"doubleSided":true,
			"name":"\u30de\u30c6\u30ea\u30a2\u30eb.002",
			"pbrMetallicRoughness":{
				"baseColorTexture":{
					"index":0
				},
				"metallicFactor":0,
				"roughnessFactor":0.5
			}
		}
	],
	"meshes":[
		{
			"name":"\u7acb\u65b9\u4f53.003",
			"primitives":[
				{
					"attributes":{
						"POSITION":0,
						"NORMAL":1,
						"TEXCOORD_0":2,
						"TEXCOORD_1":3,
						"JOINTS_0":4,
						"WEIGHTS_0":5
					},
					"indices":6,
					"material":0
				}
			]
		}
	],
	"textures":[
		{
			"sampler":0,
			"source":0
		}
	],
	"images":[
		{
			"mimeType":"image/png",
			"name":"head",
			"uri":"head.png"
		}
	],
	"skins":[
		{
			"inverseBindMatrices":7,
			"joints":[
				1,
				0,
				2
			],
			"name":"\u30a2\u30fc\u30de\u30c1\u30e5\u30a2"
		}
	],
	"accessors":[
		{
			"bufferView":0,
			"componentType":5126,
			"count":8740,
			"max":[
				1.4203684329986572,
				1.711991310119629,
				1.0093483924865723
			],
			"min":[
				-2.0576627254486084,
				-1.435752511024475,
				-1.034615159034729
			],
			"type":"VEC3"
		},
		{
			"bufferView":1,
			"componentType":5126,
			"count":8740,
			"type":"VEC3"
		},
		{
			"bufferView":2,
			"componentType":5126,
			"count":8740,
			"type":"VEC2"
		},
		{
			"bufferView":3,
			"componentType":5126,
			"count":8740,
			"type":"VEC2"
		},
		{
			"bufferView":4,
			"componentType":5121,
			"count":8740,
			"type":"VEC4"
		},
		{
			"bufferView":5,
			"componentType":5126,
			"count":8740,
			"type":"VEC4"
		},
		{
			"bufferView":6,
			"componentType":5123,
			"count":15876,
			"type":"SCALAR"
		},
		{
			"bufferView":7,
			"componentType":5126,
			"count":3,
			"type":"MAT4"
		},
		{
			"bufferView":8,
			"componentType":5126,
			"count":21,
			"max":[
				0.8333333333333334
			],
			"min":[
				0
			],
			"type":"SCALAR"
		},
		{
			"bufferView":9,
			"componentType":5126,
			"count":21,
			"type":"VEC3"
		},
		{
			"bufferView":10,
			"componentType":5126,
			"count":2,
			"max":[
				0.8333333333333334
			],
			"min":[
				0
			],
			"type":"SCALAR"
		},
		{
			"bufferView":11,
			"componentType":5126,
			"count":2,
			"type":"VEC4"
		},
		{
			"bufferView":12,
			"componentType":5126,
			"count":21,
			"type":"VEC3"
		},
		{
			"bufferView":13,
			"componentType":5126,
			"count":21,
			"type":"VEC3"
		},
		{
			"bufferView":14,
			"componentType":5126,
			"count":2,
			"type":"VEC4"
		},
		{
			"bufferView":15,
			"componentType":5126,
			"count":2,
			"type":"VEC3"
		},
		{
			"bufferView":16,
			"componentType":5126,
			"count":2,
			"type":"VEC3"
		},
		{
			"bufferView":17,
			"componentType":5126,
			"count":2,
			"type":"VEC4"
		},
		{
			"bufferView":18,
			"componentType":5126,
			"count":2,
			"type":"VEC3"
		},
		{
			"bufferView":19,
			"componentType":5126,
			"count":18,
			"max":[
				0.7083333333333334
			],
			"min":[
				0
			],
			"type":"SCALAR"
		},
		{
			"bufferView":20,
			"componentType":5126,
			"count":18,
			"type":"VEC3"
		},
		{
			"bufferView":21,
			"componentType":5126,
			"count":18,
			"type":"VEC4"
		},
		{
			"bufferView":22,
			"componentType":5126,
			"count":18,
			"type":"VEC3"
		},
		{
			"bufferView":23,
			"componentType":5126,
			"count":18,
			"type":"VEC3"
		},
		{
			"bufferView":24,
			"componentType":5126,
			"count":2,
			"max":[
				0.7083333333333334
			],
			"min":[
				0
			],
			"type":"SCALAR"
		},
		{
			"bufferView":25,
			"componentType":5126,
			"count":2,
			"type":"VEC4"
		},
		{
			"bufferView":26,
			"componentType":5126,
			"count":2,
			"type":"VEC3"
		},
		{
			"bufferView":27,
			"componentType":5126,
			"count":2,
			"type":"VEC3"
		},
		{
			"bufferView":28,
			"componentType":5126,
			"count":2,
			"type":"VEC4"
		},
		{
			"bufferView":29,
			"componentType":5126,
			"count":2,
			"type":"VEC3"
		},
		{
			"bufferView":30,
			"componentType":5126,
			"count":18,
			"type":"VEC3"
		},
		{
			"bufferView":31,
			"componentType":5126,
			"count":2,
			"type":"VEC4"
		},
		{
			"bufferView":32,
			"componentType":5126,
			"count":18,
			"type":"VEC3"
		},
		{
			"bufferView":33,
			"componentType":5126,
			"count":18,
			"type":"VEC3"
		},
		{
			"bufferView":34,
			"componentType":5126,
			"count":2,
			"type":"VEC4"
		},
		{
			"bufferView":35,
			"componentType":5126,
			"count":2,
			"type":"VEC3"
		},
		{
			"bufferView":36,
			"componentType":5126,
			"count":2,
			"type":"VEC3"
		},
		{
			"bufferView":37,
			"componentType":5126,
			"count":2,
			"type":"VEC4"
		},
		{
			"bufferView":38,
			"componentType":5126,
			"count":2,
			"type":"VEC3"
		}
	],
	"bufferViews":[
		{
			"buffer":0,
			"byteLength":104880,
			"byteOffset":0,
			"target":34962
		},
		{
			"buffer":0,
			"byteLength":104880,
			"byteOffset":104880,
			"target":34962
		},
		{
			"buffer":0,
			"byteLength":69920,
			"byteOffset":209760,
			"target":34962
		},
		{
			"buffer":0,
			"byteLength":69920,
			"byteOffset":279680,
			"target":34962
		},
		{
			"buffer":0,
			"byteLength":34960,
			"byteOffset":349600,
			"target":34962
		},
		{
			"buffer":0,
			"byteLength":139840,
			"byteOffset":384560,
			"target":34962
		},
		{
			"buffer":0,
			"byteLength":31752,
			"byteOffset":524400,
			"target":34963
		},
		{
			"buffer":0,
			"byteLength":192,
			"byteOffset":556152
		},
		{
			"buffer":0,
			"byteLength":84,
			"byteOffset":556344
		},
		{
			"buffer":0,
			"byteLength":252,
			"byteOffset":556428
		},
		{
			"buffer":0,
			"byteLength":8,
			"byteOffset":556680
		},
		{
			"buffer":0,
			"byteLength":32,
			"byteOffset":556688
		},
		{
			"buffer":0,
			"byteLength":252,
			"byteOffset":556720
		},
		{
			"buffer":0,
			"byteLength":252,
			"byteOffset":556972
		},
		{
			"buffer":0,
			"byteLength":32,
			"byteOffset":557224
		},
		{
			"buffer":0,
			"byteLength":24,
			"byteOffset":557256
		},
		{
			"buffer":0,
			"byteLength":24,
			"byteOffset":557280
		},
		{
			"buffer":0,
			"byteLength":32,
			"byteOffset":557304
		},
		{
			"buffer":0,
			"byteLength":24,
			"byteOffset":557336
		},
		{
			"buffer":0,
			"byteLength":72,
			"byteOffset":557360
		},
		{
			"buffer":0,
			"byteLength":216,
			"byteOffset":557432
		},
		{
			"buffer":0,
			"byteLength":288,
			"byteOffset":557648
		},
		{
			"buffer":0,
			"byteLength":216,
			"byteOffset":557936
		},
		{
			"buffer":0,
			"byteLength":216,
			"byteOffset":558152
		},
		{
			"buffer":0,
			"byteLength":8,
			"byteOffset":558368
		},
		{
			"buffer":0,
			"byteLength":32,
			"byteOffset":558376
		},
		{
			"buffer":0,
			"byteLength":24,
			"byteOffset":558408
		},
		{
			"buffer":0,
			"byteLength":24,
			"byteOffset":558432
		},
		{
			"buffer":0,
			"byteLength":32,
			"byteOffset":558456
		},
		{
			"buffer":0,
			"byteLength":24,
			"byteOffset":558488
		},
		{
			"buffer":0,
			"byteLength":216,
			"byteOffset":558512
		},
		{
			"buffer":0,
			"byteLength":32,
			"byteOffset":558728
		},
		{
			"buffer":0,
			"byteLength":216,
			"byteOffset":558760
		},
		{
			"buffer":0,
			"byteLength":216,
			"byteOffset":558976
		},
		{
			"buffer":0,
			"byteLength":32,
			"byteOffset":559192
		},
		{
			"buffer":0,
			"byteLength":24,
			"byteOffset":559224
		},
		{
			"buffer":0,
			"byteLength":24,
			"byteOffset":559248
		},
		{
			"buffer":0,
			"byteLength":32,
			"byteOffset":559272
		},
		{
			"buffer":0,
			"byteLength":24,
			"byteOffset":559304
		}
	],
	"samplers":[
		{
			"magFilter":9729,
			"minFilter":9987
		}
	],
	"buffers":[
		{
			"byteLength":559328,
			"uri":"eat_1.bin"
		}
	]
}
