# Blender 4.1.1
# www.blender.org
mtllib leaf.mtl
o 平面
v -0.106584 0.000000 0.718790
v 0.106584 0.000000 0.718790
v -0.100768 0.000000 -0.718790
v 0.100768 0.000000 -0.718790
v -0.379074 0.000000 -0.391511
v -0.459456 0.000000 0.000000
v -0.321203 0.000000 0.391511
v 0.321203 0.000000 0.391511
v 0.459456 0.000000 0.000000
v 0.379074 0.000000 -0.391511
v 0.000000 -0.006680 -0.783022
v 0.000000 -0.006680 0.932241
v 0.000000 -0.006680 0.391511
v 0.000000 -0.006680 -0.391511
v 0.000000 -0.006680 0.000000
v 0.022756 -0.001670 0.783022
v -0.022756 -0.001670 0.783022
v -0.017457 -0.001670 -0.783022
v 0.017457 -0.001670 -0.783022
v -0.064349 -0.001670 0.391511
v 0.064349 -0.001670 0.391511
v -0.087391 -0.001670 -0.000000
v 0.087391 -0.001670 -0.000000
v 0.073994 -0.001670 -0.391511
v -0.073994 -0.001670 -0.391511
v -0.207918 0.000000 0.579110
v 0.238087 0.000000 -0.579110
v -0.238087 0.000000 -0.579110
v -0.453664 0.000000 -0.195756
v -0.410897 0.000000 0.195756
v 0.207918 0.000000 0.579110
v 0.410897 0.000000 0.195756
v 0.453664 0.000000 -0.195756
v -0.000000 -0.006680 0.195756
v 0.008266 -0.004801 -0.783022
v 0.015333 -0.004801 -0.391511
v 0.000000 -0.006680 0.587267
v -0.008928 -0.004801 0.932241
v -0.017007 -0.004801 0.000000
v -0.014127 -0.004801 0.391511
v 0.000000 -0.006680 -0.587267
v -0.000000 -0.006680 -0.195756
v 0.017007 -0.004801 0.000000
v 0.086426 -0.001670 -0.195756
v -0.015333 -0.004801 -0.391511
v -0.086426 -0.001670 -0.195756
v 0.014127 -0.004801 0.391511
v 0.079298 -0.001670 0.195756
v -0.079298 -0.001670 0.195756
v 0.008928 -0.004801 0.932241
v 0.044729 -0.001670 0.587267
v -0.044729 -0.001670 0.587267
v 0.049207 -0.001670 -0.587267
v -0.008266 -0.004801 -0.783022
v -0.049207 -0.001670 -0.587267
v 0.049188 -0.000209 0.774866
v 0.174729 -0.000209 0.391511
v -0.049188 -0.000209 0.774866
v -0.174729 -0.000209 0.391511
v -0.204870 -0.000209 -0.391511
v -0.035927 -0.000209 -0.774866
v 0.204870 -0.000209 -0.391511
v 0.035927 -0.000209 -0.774866
v -0.246735 -0.000209 -0.000000
v 0.246735 -0.000209 -0.000000
v -0.221444 -0.000209 0.195756
v -0.114155 -0.000209 0.585907
v -0.243719 -0.000209 -0.195756
v 0.012234 -0.004801 -0.587267
v 0.243719 -0.000209 -0.195756
v 0.221444 -0.000209 0.195756
v -0.128699 -0.000209 -0.585907
v 0.128699 -0.000209 -0.585907
v -0.016887 -0.004801 -0.195756
v -0.015996 -0.004801 0.195755
v -0.011675 -0.004801 0.587267
v -0.012234 -0.004801 -0.587267
v 0.114155 -0.000209 0.585907
v 0.011675 -0.004801 0.587267
v 0.015996 -0.004801 0.195755
v 0.016887 -0.004801 -0.195756
v -0.106598 -0.023612 0.718808
v 0.106598 -0.023612 0.718808
v -0.100781 -0.023612 -0.718813
v 0.100781 -0.023612 -0.718813
v -0.379079 -0.023612 -0.391516
v -0.459460 -0.023612 0.000001
v -0.321209 -0.023612 0.391517
v 0.321209 -0.023612 0.391517
v 0.459460 -0.023612 0.000001
v 0.379079 -0.023612 -0.391516
v 0.000000 -0.030292 -0.783041
v 0.000000 -0.030292 0.932254
v 0.000000 -0.030292 0.391519
v 0.000000 -0.030292 -0.391519
v 0.000000 -0.030292 0.000001
v 0.023138 -0.025265 0.783104
v -0.023138 -0.025265 0.783104
v -0.017862 -0.025262 -0.783141
v 0.017862 -0.025262 -0.783141
v -0.064511 -0.025279 0.391542
v 0.064511 -0.025279 0.391542
v -0.087504 -0.025281 0.000004
v 0.087504 -0.025281 0.000004
v 0.074134 -0.025280 -0.391540
v -0.074134 -0.025280 -0.391540
v -0.207927 -0.023612 0.579121
v 0.238094 -0.023612 -0.579121
v -0.238094 -0.023612 -0.579121
v -0.453668 -0.023612 -0.195757
v -0.410902 -0.023612 0.195758
v 0.207927 -0.023612 0.579121
v 0.410902 -0.023612 0.195758
v 0.453668 -0.023612 -0.195757
v -0.000000 -0.030292 0.195760
v 0.008929 -0.028360 -0.783095
v 0.015714 -0.028396 -0.391532
v 0.000000 -0.030292 0.587278
v -0.009585 -0.028362 0.932290
v -0.017336 -0.028401 0.000003
v -0.014543 -0.028393 0.391532
v 0.000000 -0.030292 -0.587282
v -0.000000 -0.030292 -0.195758
v 0.017336 -0.028401 0.000003
v 0.086541 -0.025281 -0.195764
v -0.015714 -0.028396 -0.391532
v -0.086541 -0.025281 -0.195764
v 0.014543 -0.028393 0.391532
v 0.079424 -0.025280 0.195771
v -0.079424 -0.025280 0.195771
v 0.009585 -0.028362 0.932290
v 0.044989 -0.025274 0.587326
v -0.044989 -0.025274 0.587326
v 0.049452 -0.025275 -0.587345
v -0.008929 -0.028360 -0.783095
v -0.049452 -0.025275 -0.587345
v 0.049296 -0.023820 0.774929
v 0.174759 -0.023821 0.391527
v -0.049296 -0.023820 0.774929
v -0.174759 -0.023821 0.391527
v -0.204895 -0.023821 -0.391525
v -0.036039 -0.023819 -0.774958
v 0.204895 -0.023821 -0.391525
v 0.036039 -0.023819 -0.774958
v -0.246756 -0.023821 0.000002
v 0.246756 -0.023821 0.000002
v -0.221468 -0.023821 0.195763
v -0.114205 -0.023821 0.585938
v -0.243739 -0.023821 -0.195760
v 0.012775 -0.028378 -0.587319
v 0.243739 -0.023821 -0.195760
v 0.221468 -0.023821 0.195763
v -0.128743 -0.023821 -0.585945
v 0.128743 -0.023821 -0.585945
v -0.017220 -0.028400 -0.195762
v -0.016349 -0.028399 0.195767
v -0.012232 -0.028376 0.587305
v -0.012775 -0.028378 -0.587319
v 0.114205 -0.023821 0.585938
v 0.012232 -0.028376 0.587305
v 0.016349 -0.028399 0.195767
v 0.017220 -0.028400 -0.195762
vn 0.0011 1.0000 -0.0005
vn 0.0103 0.9999 -0.0025
vn 0.0092 1.0000 -0.0012
vn 0.0010 1.0000 -0.0002
vn 0.0023 1.0000 -0.0017
vn 0.0212 0.9997 -0.0073
vn 0.0132 0.9999 -0.0041
vn 0.0014 1.0000 -0.0009
vn 0.0010 1.0000 -0.0000
vn 0.0092 1.0000 0.0001
vn 0.0093 1.0000 0.0018
vn 0.0010 1.0000 0.0004
vn -0.0533 0.9986 0.0067
vn -0.0844 0.9963 0.0137
vn -0.1518 0.9884 0.0031
vn -0.1216 0.9926 0.0019
vn -0.0093 1.0000 -0.0000
vn -0.0010 1.0000 -0.0000
vn -0.0012 1.0000 0.0002
vn -0.0112 0.9999 0.0007
vn -0.0132 0.9999 -0.0010
vn -0.0014 1.0000 -0.0003
vn -0.0011 1.0000 -0.0001
vn -0.0103 0.9999 -0.0004
vn 0.0012 1.0000 0.0009
vn 0.0112 0.9999 0.0044
vn 0.0185 0.9998 0.0091
vn 0.0020 1.0000 0.0020
vn -0.0184 0.9998 0.0023
vn -0.0020 1.0000 0.0008
vn -0.0056 1.0000 0.0027
vn -0.0849 0.9963 0.0138
vn 0.1098 0.9940 0.0001
vn 0.1106 0.9939 0.0009
vn 0.0450 0.9990 0.0029
vn 0.0444 0.9990 0.0002
vn 0.1318 0.9913 -0.0000
vn 0.1167 0.9932 -0.0000
vn 0.0494 0.9988 -0.0003
vn 0.0622 0.9981 -0.0006
vn 0.2059 0.9786 -0.0000
vn 0.1589 0.9873 -0.0000
vn 0.0943 0.9955 -0.0012
vn 0.2405 0.9707 -0.0019
vn 0.1216 0.9926 0.0019
vn 0.1518 0.9884 0.0031
vn 0.0844 0.9963 0.0137
vn 0.0533 0.9986 0.0067
vn -0.0572 0.9983 -0.0064
vn -0.0055 1.0000 -0.0019
vn -0.0023 1.0000 -0.0007
vn -0.0211 0.9998 -0.0021
vn -0.2405 0.9707 -0.0019
vn -0.0943 0.9955 -0.0012
vn -0.1589 0.9873 -0.0000
vn -0.2059 0.9786 -0.0000
vn -0.0622 0.9981 -0.0006
vn -0.0494 0.9988 -0.0003
vn -0.1167 0.9932 -0.0000
vn -0.1318 0.9913 -0.0000
vn -0.0444 0.9990 0.0002
vn -0.0450 0.9990 0.0029
vn -0.1106 0.9939 0.0009
vn -0.1098 0.9940 0.0001
vn -0.0014 -1.0000 0.0003
vn -0.0132 -0.9999 0.0010
vn -0.0103 -0.9999 0.0004
vn -0.0011 -1.0000 0.0001
vn -0.0055 -1.0000 0.0019
vn -0.0572 -0.9983 0.0064
vn -0.0210 -0.9998 0.0021
vn -0.0023 -1.0000 0.0007
vn -0.0010 -1.0000 -0.0000
vn -0.0092 -1.0000 -0.0001
vn -0.0093 -1.0000 -0.0018
vn -0.0010 -1.0000 -0.0004
vn 0.0533 -0.9986 -0.0067
vn 0.0843 -0.9963 -0.0137
vn 0.1482 -0.9890 -0.0030
vn 0.1198 -0.9928 -0.0019
vn 0.0092 -1.0000 -0.0001
vn 0.0010 -1.0000 -0.0000
vn 0.0010 -1.0000 -0.0004
vn 0.0093 -1.0000 -0.0018
vn 0.0132 -0.9999 0.0010
vn 0.0014 -1.0000 0.0003
vn 0.0011 -1.0000 0.0001
vn 0.0103 -0.9999 0.0004
vn -0.0012 -1.0000 -0.0009
vn -0.0112 -0.9999 -0.0044
vn -0.0185 -0.9998 -0.0091
vn -0.0020 -1.0000 -0.0020
vn 0.0112 -0.9999 -0.0044
vn 0.0012 -1.0000 -0.0009
vn 0.0020 -1.0000 -0.0020
vn 0.0185 -0.9998 -0.0091
vn -0.1092 -0.9940 -0.0000
vn -0.1198 -0.9928 -0.0000
vn -0.0533 -0.9986 -0.0004
vn -0.0450 -0.9990 -0.0000
vn -0.1295 -0.9916 -0.0000
vn -0.1151 -0.9934 -0.0000
vn -0.0494 -0.9988 0.0003
vn -0.0622 -0.9981 0.0006
vn -0.1975 -0.9803 -0.0000
vn -0.1548 -0.9880 -0.0000
vn -0.0943 -0.9955 0.0012
vn -0.2426 -0.9701 0.0019
vn -0.1482 -0.9890 -0.0000
vn -0.2115 -0.9774 -0.0000
vn -0.3277 -0.9448 -0.0065
vn -0.0843 -0.9964 -0.0014
vn 0.0572 -0.9983 0.0064
vn 0.0055 -1.0000 0.0019
vn 0.0023 -1.0000 0.0007
vn 0.0210 -0.9998 0.0021
vn 0.0943 -0.9955 0.0106
vn 0.0622 -0.9980 0.0062
vn 0.1295 -0.9916 0.0016
vn 0.1548 -0.9880 0.0012
vn 0.0494 -0.9988 0.0038
vn 0.0444 -0.9990 0.0018
vn 0.1085 -0.9941 0.0006
vn 0.1151 -0.9934 0.0011
vn 0.0444 -0.9990 -0.0002
vn 0.0450 -0.9990 -0.0029
vn 0.1092 -0.9940 -0.0009
vn 0.1085 -0.9941 -0.0001
vn -0.8560 0.0006 0.5169
vn -0.8095 0.0010 0.5872
vn 0.7994 0.0005 -0.6008
vn 0.7132 0.0011 -0.7010
vn -0.7131 0.0006 -0.7011
vn -0.7994 0.0003 -0.6008
vn -0.9345 0.0002 -0.3561
vn -0.9996 0.0002 -0.0296
vn -0.9706 0.0002 0.2408
vn -0.9091 0.0003 0.4165
vn 0.8094 0.0006 0.5872
vn 0.8560 0.0003 0.5169
vn 0.9091 0.0002 0.4165
vn 0.9706 0.0002 0.2408
vn 0.9996 0.0002 -0.0296
vn 0.9345 0.0003 -0.3561
vn -0.0062 0.0029 -1.0000
vn -0.0062 0.0008 -1.0000
vn -0.9955 0.0279 0.0910
vn 0.0039 0.0006 1.0000
vn -0.0004 0.0021 1.0000
vn 0.9956 0.0164 0.0926
vn 0.0007 0.0031 -1.0000
vn 0.0017 0.0050 -1.0000
vn 0.2947 0.0039 0.9556
vn 0.6988 0.0010 0.7153
vn -0.6997 0.0051 0.7144
vn -0.2979 0.0081 0.9546
vn -0.4036 0.0055 -0.9149
vn -0.6541 0.0011 -0.7564
vn 0.6551 0.0061 -0.7555
vn 0.4097 0.0116 -0.9121
vn 0.0014 1.0000 -0.0003
vn 0.0132 0.9999 -0.0010
vn 0.0103 0.9999 -0.0004
vn 0.0011 1.0000 -0.0001
vn 0.0055 1.0000 -0.0019
vn 0.0572 0.9983 -0.0064
vn 0.0211 0.9998 -0.0021
vn 0.0023 1.0000 -0.0007
vn 0.0093 1.0000 -0.0000
vn 0.0112 0.9999 0.0007
vn 0.0012 1.0000 0.0002
vn -0.0844 0.9964 0.0013
vn -0.3225 0.9466 0.0065
vn -0.2216 0.9751 -0.0000
vn -0.1518 0.9884 -0.0000
vn -0.0092 1.0000 0.0001
vn -0.0010 1.0000 0.0004
vn -0.0093 1.0000 0.0018
vn -0.0103 0.9999 -0.0025
vn -0.0011 1.0000 -0.0005
vn -0.0010 1.0000 -0.0002
vn -0.0092 1.0000 -0.0012
vn 0.0020 1.0000 0.0008
vn 0.0184 0.9998 0.0023
vn 0.0849 0.9963 0.0138
vn 0.0056 1.0000 0.0027
vn -0.0112 0.9999 0.0044
vn -0.0012 1.0000 0.0009
vn -0.0020 1.0000 0.0020
vn -0.0185 0.9998 0.0091
vn 0.1106 0.9939 -0.0000
vn 0.1216 0.9926 -0.0000
vn 0.0533 0.9986 0.0004
vn 0.0450 0.9990 -0.0000
vn 0.1167 0.9932 -0.0011
vn 0.1098 0.9940 -0.0006
vn 0.0444 0.9990 -0.0018
vn 0.0494 0.9988 -0.0038
vn 0.1589 0.9873 -0.0013
vn 0.1318 0.9913 -0.0017
vn 0.0622 0.9980 -0.0062
vn 0.0943 0.9955 -0.0106
vn 0.1518 0.9884 -0.0000
vn 0.2216 0.9751 -0.0000
vn 0.3225 0.9466 0.0065
vn 0.0844 0.9964 0.0013
vn -0.0212 0.9997 -0.0073
vn -0.0023 1.0000 -0.0017
vn -0.0014 1.0000 -0.0009
vn -0.0132 0.9999 -0.0041
vn -0.0943 0.9955 -0.0106
vn -0.0622 0.9980 -0.0062
vn -0.1318 0.9913 -0.0017
vn -0.1589 0.9873 -0.0013
vn -0.0494 0.9988 -0.0038
vn -0.0444 0.9990 -0.0018
vn -0.1098 0.9940 -0.0006
vn -0.1167 0.9932 -0.0011
vn -0.0450 0.9990 -0.0000
vn -0.0533 0.9986 0.0004
vn -0.1216 0.9926 -0.0000
vn -0.1106 0.9939 -0.0000
vn -0.0011 -1.0000 0.0005
vn -0.0103 -0.9999 0.0025
vn -0.0092 -1.0000 0.0012
vn -0.0010 -1.0000 0.0002
vn -0.0023 -1.0000 0.0017
vn -0.0211 -0.9998 0.0073
vn -0.0132 -0.9999 0.0041
vn -0.0014 -1.0000 0.0009
vn -0.0093 -1.0000 -0.0000
vn -0.0112 -0.9999 -0.0007
vn -0.0012 -1.0000 -0.0002
vn 0.0843 -0.9964 -0.0014
vn 0.3277 -0.9448 -0.0065
vn 0.2115 -0.9774 -0.0000
vn 0.1482 -0.9890 -0.0000
vn 0.0093 -1.0000 -0.0000
vn 0.0012 -1.0000 -0.0002
vn 0.0112 -0.9999 -0.0007
vn 0.0103 -0.9999 0.0025
vn 0.0011 -1.0000 0.0005
vn 0.0010 -1.0000 0.0002
vn 0.0092 -1.0000 0.0012
vn -0.0020 -1.0000 -0.0008
vn -0.0184 -0.9998 -0.0023
vn -0.0853 -0.9963 -0.0138
vn -0.0056 -1.0000 -0.0027
vn 0.0184 -0.9998 -0.0023
vn 0.0020 -1.0000 -0.0008
vn 0.0056 -1.0000 -0.0027
vn 0.0853 -0.9963 -0.0138
vn -0.1085 -0.9941 -0.0001
vn -0.1092 -0.9940 -0.0009
vn -0.0450 -0.9990 -0.0029
vn -0.0444 -0.9990 -0.0002
vn -0.1151 -0.9934 0.0011
vn -0.1085 -0.9941 0.0006
vn -0.0444 -0.9990 0.0018
vn -0.0494 -0.9988 0.0038
vn -0.1548 -0.9880 0.0012
vn -0.1295 -0.9916 0.0016
vn -0.0622 -0.9980 0.0062
vn -0.0943 -0.9955 0.0106
vn -0.1198 -0.9928 -0.0019
vn -0.1482 -0.9890 -0.0030
vn -0.0843 -0.9963 -0.0137
vn -0.0533 -0.9986 -0.0067
vn 0.0211 -0.9998 0.0073
vn 0.0023 -1.0000 0.0017
vn 0.0014 -1.0000 0.0009
vn 0.0132 -0.9999 0.0041
vn 0.2426 -0.9701 0.0019
vn 0.0943 -0.9955 0.0012
vn 0.1548 -0.9880 -0.0000
vn 0.1975 -0.9803 -0.0000
vn 0.0622 -0.9981 0.0006
vn 0.0494 -0.9988 0.0003
vn 0.1151 -0.9934 -0.0000
vn 0.1295 -0.9916 -0.0000
vn 0.0450 -0.9990 -0.0000
vn 0.0533 -0.9986 -0.0004
vn 0.1198 -0.9928 -0.0000
vn 0.1092 -0.9940 -0.0000
vn -0.8560 0.0003 0.5169
vn -0.8094 0.0006 0.5872
vn 0.7994 0.0003 -0.6008
vn 0.7131 0.0006 -0.7011
vn -0.7132 0.0011 -0.7010
vn -0.7994 0.0005 -0.6008
vn -0.9345 0.0003 -0.3561
vn -0.9091 0.0002 0.4165
vn 0.8095 0.0010 0.5872
vn 0.8560 0.0006 0.5169
vn 0.9091 0.0003 0.4165
vn 0.9345 0.0002 -0.3561
vn -0.0017 0.0050 -1.0000
vn -0.0007 0.0031 -1.0000
vn -0.9956 0.0164 0.0926
vn 0.0004 0.0021 1.0000
vn -0.0039 0.0006 1.0000
vn 0.9955 0.0279 0.0910
vn 0.0062 0.0008 -1.0000
vn 0.0062 0.0029 -1.0000
vn 0.2979 0.0081 0.9546
vn 0.6997 0.0051 0.7144
vn -0.6988 0.0010 0.7153
vn -0.2947 0.0039 0.9556
vn -0.4097 0.0116 -0.9121
vn -0.6551 0.0061 -0.7555
vn 0.6541 0.0011 -0.7564
vn 0.4036 0.0055 -0.9149
vt 0.000000 0.250000
vt 0.229490 0.375000
vt 0.000000 0.375000
vt 0.222395 0.250000
vt 0.401985 0.375000
vt 0.404667 0.500000
vt 0.231334 0.500000
vt 0.000000 0.500000
vt 0.000000 0.000000
vt 0.208339 0.125000
vt 0.000000 0.125000
vt 0.193392 0.000000
vt 0.373639 0.125000
vt 0.391666 0.250000
vt 0.000000 0.625000
vt 0.229719 0.625000
vt 0.402319 0.625000
vt 0.217084 0.750000
vt 0.000000 0.750000
vt 0.658644 0.875000
vt 0.532916 0.750000
vt 0.616060 0.750000
vt 0.703539 1.000000
vt 0.562758 0.875000
vt 0.601770 1.000000
vt 0.500000 0.875000
vt 0.500000 0.750000
vt 0.595333 0.500000
vt 0.770281 0.625000
vt 0.597681 0.625000
vt 0.768666 0.500000
vt 1.000000 0.625000
vt 1.000000 0.750000
vt 0.782916 0.750000
vt 0.777605 0.250000
vt 0.598015 0.375000
vt 0.608334 0.250000
vt 1.000000 0.250000
vt 0.770510 0.375000
vt 1.000000 0.375000
vt 0.000000 0.875000
vt 0.383940 0.750000
vt 0.187243 0.875000
vt 0.341356 0.875000
vt 0.148230 1.000000
vt 0.000000 1.000000
vt 0.812758 0.875000
vt 1.000000 0.875000
vt 1.000000 1.000000
vt 0.851770 1.000000
vt 0.500000 0.500000
vt 0.479719 0.625000
vt 0.481334 0.500000
vt 0.500000 0.625000
vt 0.467084 0.750000
vt 0.500000 0.375000
vt 0.472395 0.250000
vt 0.500000 0.250000
vt 0.479490 0.375000
vt 0.500000 0.125000
vt 0.443392 0.000000
vt 0.500000 0.000000
vt 0.458339 0.125000
vt 0.386784 0.000000
vt 0.437243 0.875000
vt 0.398230 1.000000
vt 0.296461 1.000000
vt 0.806608 0.000000
vt 0.626361 0.125000
vt 0.613216 0.000000
vt 1.000000 0.000000
vt 0.791661 0.125000
vt 1.000000 0.125000
vt 0.541661 0.125000
vt 0.556608 0.000000
vt 0.527605 0.250000
vt 0.520510 0.375000
vt 0.518666 0.500000
vt 0.520281 0.625000
vt 1.000000 0.500000
vt 0.500000 1.000000
s 0
usemtl マテリアル
f 7/1/1 66/2/1 30/3/1
f 59/4/2 49/5/2 66/2/2
f 66/2/3 22/6/3 64/7/3
f 30/3/4 64/7/4 6/8/4
f 1/9/5 67/10/5 26/11/5
f 58/12/6 52/13/6 67/10/6
f 67/10/7 20/14/7 59/4/7
f 26/11/8 59/4/8 7/1/8
f 64/7/9 29/15/9 6/8/9
f 22/6/10 68/16/10 64/7/10
f 46/17/11 60/18/11 68/16/11
f 68/16/12 5/19/12 29/15/12
f 53/20/13 36/21/13 24/22/13
f 19/23/14 69/24/14 53/20/14
f 35/25/15 41/26/15 69/24/15
f 69/24/16 14/27/16 36/21/16
f 23/28/17 70/29/17 44/30/17
f 65/31/18 33/32/18 70/29/18
f 70/29/19 10/33/19 62/34/19
f 44/30/20 62/34/20 24/22/20
f 57/35/21 48/36/21 21/37/21
f 8/38/22 71/39/22 57/35/22
f 32/40/23 65/31/23 71/39/23
f 71/39/24 23/28/24 48/36/24
f 60/18/25 28/41/25 5/19/25
f 25/42/26 72/43/26 60/18/26
f 55/44/27 61/45/27 72/43/27
f 72/43/28 3/46/28 28/41/28
f 24/22/29 73/47/29 53/20/29
f 62/34/30 27/48/30 73/47/30
f 73/47/31 4/49/31 63/50/31
f 53/20/32 63/50/32 19/23/32
f 15/51/33 74/52/33 39/53/33
f 42/54/34 45/55/34 74/52/34
f 74/52/35 25/42/35 46/17/35
f 39/53/36 46/17/36 22/6/36
f 34/56/37 40/57/37 13/58/37
f 15/51/38 75/59/38 34/56/38
f 39/53/39 49/5/39 75/59/39
f 75/59/40 20/14/40 40/57/40
f 37/60/41 38/61/41 12/62/41
f 13/58/42 76/63/42 37/60/42
f 40/57/43 52/13/43 76/63/43
f 76/63/44 17/64/44 38/61/44
f 14/27/45 77/65/45 45/55/45
f 41/26/46 54/66/46 77/65/46
f 77/65/47 18/67/47 55/44/47
f 45/55/48 55/44/48 25/42/48
f 56/68/49 51/69/49 16/70/49
f 2/71/50 78/72/50 56/68/50
f 31/73/51 57/35/51 78/72/51
f 78/72/52 21/37/52 51/69/52
f 16/70/53 79/74/53 50/75/53
f 51/69/54 47/76/54 79/74/54
f 79/74/55 13/58/55 37/60/55
f 50/75/56 37/60/56 12/62/56
f 21/37/57 80/77/57 47/76/57
f 48/36/58 43/78/58 80/77/58
f 80/77/59 15/51/59 34/56/59
f 47/76/60 34/56/60 13/58/60
f 44/30/61 43/78/61 23/28/61
f 24/22/62 81/79/62 44/30/62
f 36/21/63 42/54/63 81/79/63
f 81/79/64 15/51/64 43/78/64
f 88/1/65 147/2/65 140/4/65
f 140/4/66 130/5/66 101/14/66
f 147/2/67 103/6/67 130/5/67
f 111/3/68 145/7/68 147/2/68
f 82/9/69 148/10/69 139/12/69
f 139/12/70 133/13/70 98/64/70
f 148/10/71 101/14/71 133/13/71
f 107/11/72 140/4/72 148/10/72
f 110/15/73 145/7/73 87/8/73
f 149/16/74 103/6/74 145/7/74
f 141/18/75 127/17/75 149/16/75
f 86/19/76 149/16/76 110/15/76
f 117/21/77 134/20/77 105/22/77
f 150/24/78 100/23/78 134/20/78
f 122/26/79 116/25/79 150/24/79
f 95/27/80 150/24/80 117/21/80
f 104/28/81 151/29/81 146/31/81
f 146/31/82 114/32/82 90/80/82
f 151/29/83 91/33/83 114/32/83
f 125/30/84 143/34/84 151/29/84
f 129/36/85 138/35/85 102/37/85
f 152/39/86 89/38/86 138/35/86
f 146/31/87 113/40/87 152/39/87
f 104/28/88 152/39/88 129/36/88
f 109/41/89 141/18/89 86/19/89
f 153/43/90 106/42/90 141/18/90
f 142/45/91 136/44/91 153/43/91
f 84/46/92 153/43/92 109/41/92
f 105/22/93 154/47/93 143/34/93
f 143/34/94 108/48/94 91/33/94
f 154/47/95 85/49/95 108/48/95
f 134/20/96 144/50/96 154/47/96
f 96/51/97 155/52/97 123/54/97
f 123/54/98 126/55/98 95/27/98
f 155/52/99 106/42/99 126/55/99
f 120/53/100 127/17/100 155/52/100
f 121/57/101 115/56/101 94/58/101
f 156/59/102 96/51/102 115/56/102
f 130/5/103 120/53/103 156/59/103
f 101/14/104 156/59/104 121/57/104
f 119/61/105 118/60/105 93/62/105
f 157/63/106 94/58/106 118/60/106
f 133/13/107 121/57/107 157/63/107
f 98/64/108 157/63/108 119/61/108
f 95/27/109 158/65/109 122/26/109
f 122/26/110 135/66/110 92/81/110
f 158/65/111 99/67/111 135/66/111
f 126/55/112 136/44/112 158/65/112
f 132/69/113 137/68/113 97/70/113
f 159/72/114 83/71/114 137/68/114
f 138/35/115 112/73/115 159/72/115
f 102/37/116 159/72/116 132/69/116
f 97/70/117 160/74/117 132/69/117
f 132/69/118 128/76/118 102/37/118
f 160/74/119 94/58/119 128/76/119
f 131/75/120 118/60/120 160/74/120
f 102/37/121 161/77/121 129/36/121
f 129/36/122 124/78/122 104/28/122
f 161/77/123 96/51/123 124/78/123
f 128/76/124 115/56/124 161/77/124
f 124/78/125 125/30/125 104/28/125
f 162/79/126 105/22/126 125/30/126
f 123/54/127 117/21/127 162/79/127
f 96/51/128 162/79/128 124/78/128
f 26/11/129 88/1/129 107/11/129
f 1/9/130 107/11/130 82/9/130
f 27/48/131 91/33/131 108/48/131
f 4/49/132 108/48/132 85/49/132
f 3/46/133 109/41/133 28/41/133
f 28/41/134 86/19/134 5/19/134
f 5/19/135 110/15/135 29/15/135
f 29/15/136 87/8/136 6/8/136
f 30/3/137 87/8/137 111/3/137
f 7/1/138 111/3/138 88/1/138
f 2/71/139 112/73/139 31/73/139
f 31/73/140 89/38/140 8/38/140
f 8/38/141 113/40/141 32/40/141
f 32/40/142 90/80/142 9/80/142
f 33/32/143 90/80/143 114/32/143
f 10/33/144 114/32/144 91/33/144
f 35/25/145 100/23/145 116/25/145
f 11/81/146 116/25/146 92/81/146
f 38/61/147 98/64/147 119/61/147
f 12/62/148 119/61/148 93/62/148
f 12/62/149 131/75/149 50/75/149
f 50/75/150 97/70/150 16/70/150
f 11/81/151 135/66/151 54/66/151
f 54/66/152 99/67/152 18/67/152
f 16/70/153 137/68/153 56/68/153
f 56/68/154 83/71/154 2/71/154
f 58/12/155 82/9/155 139/12/155
f 17/64/156 139/12/156 98/64/156
f 18/67/157 142/45/157 61/45/157
f 61/45/158 84/46/158 3/46/158
f 63/50/159 85/49/159 144/50/159
f 19/23/160 144/50/160 100/23/160
f 7/1/161 59/4/161 66/2/161
f 59/4/162 20/14/162 49/5/162
f 66/2/163 49/5/163 22/6/163
f 30/3/164 66/2/164 64/7/164
f 1/9/165 58/12/165 67/10/165
f 58/12/166 17/64/166 52/13/166
f 67/10/167 52/13/167 20/14/167
f 26/11/168 67/10/168 59/4/168
f 64/7/9 68/16/9 29/15/9
f 22/6/169 46/17/169 68/16/169
f 46/17/170 25/42/170 60/18/170
f 68/16/171 60/18/171 5/19/171
f 53/20/172 69/24/172 36/21/172
f 19/23/173 35/25/173 69/24/173
f 35/25/174 11/81/174 41/26/174
f 69/24/175 41/26/175 14/27/175
f 23/28/176 65/31/176 70/29/176
f 65/31/18 9/80/18 33/32/18
f 70/29/177 33/32/177 10/33/177
f 44/30/178 70/29/178 62/34/178
f 57/35/179 71/39/179 48/36/179
f 8/38/180 32/40/180 71/39/180
f 32/40/181 9/80/181 65/31/181
f 71/39/182 65/31/182 23/28/182
f 60/18/183 72/43/183 28/41/183
f 25/42/184 55/44/184 72/43/184
f 55/44/185 18/67/185 61/45/185
f 72/43/186 61/45/186 3/46/186
f 24/22/187 62/34/187 73/47/187
f 62/34/188 10/33/188 27/48/188
f 73/47/189 27/48/189 4/49/189
f 53/20/190 73/47/190 63/50/190
f 15/51/191 42/54/191 74/52/191
f 42/54/192 14/27/192 45/55/192
f 74/52/193 45/55/193 25/42/193
f 39/53/194 74/52/194 46/17/194
f 34/56/195 75/59/195 40/57/195
f 15/51/196 39/53/196 75/59/196
f 39/53/197 22/6/197 49/5/197
f 75/59/198 49/5/198 20/14/198
f 37/60/199 76/63/199 38/61/199
f 13/58/200 40/57/200 76/63/200
f 40/57/201 20/14/201 52/13/201
f 76/63/202 52/13/202 17/64/202
f 14/27/203 41/26/203 77/65/203
f 41/26/204 11/81/204 54/66/204
f 77/65/205 54/66/205 18/67/205
f 45/55/206 77/65/206 55/44/206
f 56/68/207 78/72/207 51/69/207
f 2/71/208 31/73/208 78/72/208
f 31/73/209 8/38/209 57/35/209
f 78/72/210 57/35/210 21/37/210
f 16/70/211 51/69/211 79/74/211
f 51/69/212 21/37/212 47/76/212
f 79/74/213 47/76/213 13/58/213
f 50/75/214 79/74/214 37/60/214
f 21/37/215 48/36/215 80/77/215
f 48/36/216 23/28/216 43/78/216
f 80/77/217 43/78/217 15/51/217
f 47/76/218 80/77/218 34/56/218
f 44/30/219 81/79/219 43/78/219
f 24/22/220 36/21/220 81/79/220
f 36/21/221 14/27/221 42/54/221
f 81/79/222 42/54/222 15/51/222
f 88/1/223 111/3/223 147/2/223
f 140/4/224 147/2/224 130/5/224
f 147/2/225 145/7/225 103/6/225
f 111/3/226 87/8/226 145/7/226
f 82/9/227 107/11/227 148/10/227
f 139/12/228 148/10/228 133/13/228
f 148/10/229 140/4/229 101/14/229
f 107/11/230 88/1/230 140/4/230
f 110/15/73 149/16/73 145/7/73
f 149/16/231 127/17/231 103/6/231
f 141/18/232 106/42/232 127/17/232
f 86/19/233 141/18/233 149/16/233
f 117/21/234 150/24/234 134/20/234
f 150/24/235 116/25/235 100/23/235
f 122/26/236 92/81/236 116/25/236
f 95/27/237 122/26/237 150/24/237
f 104/28/238 125/30/238 151/29/238
f 146/31/82 151/29/82 114/32/82
f 151/29/239 143/34/239 91/33/239
f 125/30/240 105/22/240 143/34/240
f 129/36/241 152/39/241 138/35/241
f 152/39/242 113/40/242 89/38/242
f 146/31/243 90/80/243 113/40/243
f 104/28/244 146/31/244 152/39/244
f 109/41/245 153/43/245 141/18/245
f 153/43/246 136/44/246 106/42/246
f 142/45/247 99/67/247 136/44/247
f 84/46/248 142/45/248 153/43/248
f 105/22/249 134/20/249 154/47/249
f 143/34/250 154/47/250 108/48/250
f 154/47/251 144/50/251 85/49/251
f 134/20/252 100/23/252 144/50/252
f 96/51/253 120/53/253 155/52/253
f 123/54/254 155/52/254 126/55/254
f 155/52/255 127/17/255 106/42/255
f 120/53/256 103/6/256 127/17/256
f 121/57/257 156/59/257 115/56/257
f 156/59/258 120/53/258 96/51/258
f 130/5/259 103/6/259 120/53/259
f 101/14/260 130/5/260 156/59/260
f 119/61/261 157/63/261 118/60/261
f 157/63/262 121/57/262 94/58/262
f 133/13/263 101/14/263 121/57/263
f 98/64/264 133/13/264 157/63/264
f 95/27/265 126/55/265 158/65/265
f 122/26/266 158/65/266 135/66/266
f 158/65/267 136/44/267 99/67/267
f 126/55/268 106/42/268 136/44/268
f 132/69/269 159/72/269 137/68/269
f 159/72/270 112/73/270 83/71/270
f 138/35/271 89/38/271 112/73/271
f 102/37/272 138/35/272 159/72/272
f 97/70/273 131/75/273 160/74/273
f 132/69/274 160/74/274 128/76/274
f 160/74/275 118/60/275 94/58/275
f 131/75/276 93/62/276 118/60/276
f 102/37/277 128/76/277 161/77/277
f 129/36/278 161/77/278 124/78/278
f 161/77/279 115/56/279 96/51/279
f 128/76/280 94/58/280 115/56/280
f 124/78/281 162/79/281 125/30/281
f 162/79/282 117/21/282 105/22/282
f 123/54/283 95/27/283 117/21/283
f 96/51/284 123/54/284 162/79/284
f 26/11/285 7/1/285 88/1/285
f 1/9/286 26/11/286 107/11/286
f 27/48/287 10/33/287 91/33/287
f 4/49/288 27/48/288 108/48/288
f 3/46/289 84/46/289 109/41/289
f 28/41/290 109/41/290 86/19/290
f 5/19/291 86/19/291 110/15/291
f 29/15/136 110/15/136 87/8/136
f 30/3/137 6/8/137 87/8/137
f 7/1/292 30/3/292 111/3/292
f 2/71/293 83/71/293 112/73/293
f 31/73/294 112/73/294 89/38/294
f 8/38/295 89/38/295 113/40/295
f 32/40/142 113/40/142 90/80/142
f 33/32/143 9/80/143 90/80/143
f 10/33/296 33/32/296 114/32/296
f 35/25/297 19/23/297 100/23/297
f 11/81/298 35/25/298 116/25/298
f 38/61/299 17/64/299 98/64/299
f 12/62/300 38/61/300 119/61/300
f 12/62/301 93/62/301 131/75/301
f 50/75/302 131/75/302 97/70/302
f 11/81/303 92/81/303 135/66/303
f 54/66/304 135/66/304 99/67/304
f 16/70/305 97/70/305 137/68/305
f 56/68/306 137/68/306 83/71/306
f 58/12/307 1/9/307 82/9/307
f 17/64/308 58/12/308 139/12/308
f 18/67/309 99/67/309 142/45/309
f 61/45/310 142/45/310 84/46/310
f 63/50/311 4/49/311 85/49/311
f 19/23/312 63/50/312 144/50/312
