# Blender 4.1.1
# www.blender.org
mtllib unitCircle.mtl
o circle
v 0.000000 0.000000 0.500000
v 0.097545 0.000000 0.490393
v 0.191342 0.000000 0.461940
v 0.277785 0.000000 0.415735
v 0.353553 0.000000 0.353553
v 0.415735 0.000000 0.277785
v 0.461940 0.000000 0.191342
v 0.490393 0.000000 0.097545
v 0.500000 0.000000 0.000000
v 0.490393 0.000000 -0.097545
v 0.461940 0.000000 -0.191342
v 0.415735 0.000000 -0.277785
v 0.353553 0.000000 -0.353553
v 0.277785 0.000000 -0.415735
v 0.191342 0.000000 -0.461940
v 0.097545 0.000000 -0.490393
v 0.000000 0.000000 -0.500000
v -0.097545 0.000000 -0.490393
v -0.191342 0.000000 -0.461940
v -0.277785 0.000000 -0.415735
v -0.353553 0.000000 -0.353553
v -0.415735 0.000000 -0.277785
v -0.461940 0.000000 -0.191342
v -0.490393 0.000000 -0.097545
v -0.500000 0.000000 0.000000
v -0.490393 0.000000 0.097545
v -0.461940 0.000000 0.191342
v -0.415735 0.000000 0.277785
v -0.353553 0.000000 0.353553
v -0.277785 0.000000 0.415735
v -0.191342 0.000000 0.461940
v -0.097545 0.000000 0.490393
vn -0.0000 1.0000 -0.0000
vt 0.006173 0.500370
vt 0.499630 0.006173
vt 0.993827 0.499630
vt 0.984410 0.595978
vt 0.849450 0.848927
vt 0.956378 0.688637
vt 0.910808 0.774048
vt 0.774663 0.910396
vt 0.689321 0.956095
vt 0.596704 0.984266
vt 0.500370 0.993827
vt 0.404022 0.984410
vt 0.151073 0.849450
vt 0.311363 0.956378
vt 0.225952 0.910808
vt 0.089604 0.774664
vt 0.043905 0.689321
vt 0.015734 0.596704
vt 0.015590 0.404022
vt 0.150550 0.151073
vt 0.043622 0.311363
vt 0.089192 0.225952
vt 0.225336 0.089604
vt 0.310679 0.043905
vt 0.403296 0.015734
vt 0.595978 0.015590
vt 0.848927 0.150550
vt 0.688637 0.043622
vt 0.774048 0.089192
vt 0.910396 0.225336
vt 0.956095 0.310679
vt 0.984266 0.403296
s 1
usemtl マテリアル.003
f 17/1/1 25/2/1 1/3/1
f 1/3/1 2/4/1 5/5/1
f 2/4/1 3/6/1 5/5/1
f 3/6/1 4/7/1 5/5/1
f 5/5/1 6/8/1 7/9/1
f 7/9/1 8/10/1 5/5/1
f 8/10/1 9/11/1 5/5/1
f 9/11/1 10/12/1 13/13/1
f 10/12/1 11/14/1 13/13/1
f 11/14/1 12/15/1 13/13/1
f 13/13/1 14/16/1 15/17/1
f 15/17/1 16/18/1 13/13/1
f 16/18/1 17/1/1 13/13/1
f 17/1/1 18/19/1 21/20/1
f 18/19/1 19/21/1 21/20/1
f 19/21/1 20/22/1 21/20/1
f 21/20/1 22/23/1 23/24/1
f 23/24/1 24/25/1 21/20/1
f 24/25/1 25/2/1 21/20/1
f 25/2/1 26/26/1 29/27/1
f 26/26/1 27/28/1 29/27/1
f 27/28/1 28/29/1 29/27/1
f 29/27/1 30/30/1 31/31/1
f 31/31/1 32/32/1 29/27/1
f 32/32/1 1/3/1 29/27/1
f 1/3/1 5/5/1 9/11/1
f 9/11/1 13/13/1 17/1/1
f 17/1/1 21/20/1 25/2/1
f 25/2/1 29/27/1 1/3/1
f 1/3/1 9/11/1 17/1/1
