{
	"asset":{
		"generator":"Khronos glTF Blender I/O v4.1.63",
		"version":"2.0"
	},
	"scene":0,
	"scenes":[
		{
			"name":"Scene",
			"nodes":[
				8
			]
		}
	],
	"nodes":[
		{
			"name":"\u6700\u5de6",
			"rotation":[
				-1.820112487393999e-07,
				-2.498929418948137e-08,
				0.6894012689590454,
				0.7243796586990356
			],
			"scale":[
				1,
				0.9999999403953552,
				1
			],
			"translation":[
				3.5390257835388184e-08,
				0.9637755155563354,
				1.7319479184152442e-14
			]
		},
		{
			"name":"\u5de6",
			"rotation":[
				-2.4341596827071044e-07,
				7.3724670812680415e-09,
				0.7842190861701965,
				0.6204840540885925
			],
			"scale":[
				0.9999999403953552,
				1,
				1
			],
			"translation":[
				3.5390257835388184e-08,
				0.9637755155563354,
				1.7319479184152442e-14
			]
		},
		{
			"children":[
				0,
				1
			],
			"name":"\u30dc\u30fc\u30f3.001",
			"rotation":[
				8.116335692420762e-08,
				7.211848185306735e-08,
				-0.7305007576942444,
				0.6829119920730591
			],
			"scale":[
				1,
				0.9999999403953552,
				1
			],
			"translation":[
				8.742345158907483e-08,
				1,
				0
			]
		},
		{
			"name":"\u53f3",
			"rotation":[
				-1.5562186206352635e-07,
				1.9355612224103425e-08,
				-0.7553063035011292,
				0.655371904373169
			],
			"scale":[
				0.9999999403953552,
				1,
				1
			],
			"translation":[
				3.644153423465468e-08,
				0.9300651550292969,
				3.566121363322589e-15
			]
		},
		{
			"name":"\u6700\u53f3",
			"rotation":[
				-1.439436232431035e-07,
				1.9514572180412415e-09,
				-0.6175432801246643,
				0.7865369319915771
			],
			"scale":[
				0.9999999403953552,
				0.9999998807907104,
				1
			],
			"translation":[
				3.644153423465468e-08,
				0.9300651550292969,
				3.566121363322589e-15
			]
		},
		{
			"children":[
				3,
				4
			],
			"name":"\u30dc\u30fc\u30f3.002",
			"rotation":[
				5.443198958232642e-08,
				-5.4431986029612744e-08,
				0.7071068286895752,
				0.7071067094802856
			],
			"scale":[
				1,
				0.9999999403953552,
				1
			],
			"translation":[
				8.742345158907483e-08,
				1,
				0
			]
		},
		{
			"children":[
				2,
				5
			],
			"name":"\u30dc\u30fc\u30f3",
			"rotation":[
				0,
				0,
				8.881784197001252e-16,
				1
			],
			"scale":[
				0.9999999403953552,
				1,
				1
			],
			"translation":[
				8.096544945601636e-08,
				-1.9737292689114838e-08,
				0
			]
		},
		{
			"mesh":0,
			"name":"\u5186\u67f1.001",
			"skin":0
		},
		{
			"children":[
				7,
				6
			],
			"name":"\u30a2\u30fc\u30de\u30c1\u30e5\u30a2",
			"rotation":[
				0,
				0,
				1,
				4.371138828673793e-08
			],
			"scale":[
				0.999199390411377,
				0.6074400544166565,
				1
			],
			"translation":[
				0.5512919425964355,
				0.244143545627594,
				0
			]
		}
	],
	"materials":[
		{
			"doubleSided":true,
			"name":"Material",
			"pbrMetallicRoughness":{
				"baseColorTexture":{
					"index":0
				},
				"metallicFactor":0,
				"roughnessFactor":0.5
			}
		}
	],
	"meshes":[
		{
			"name":"\u5186\u67f1.001",
			"primitives":[
				{
					"attributes":{
						"POSITION":0,
						"NORMAL":1,
						"TEXCOORD_0":2,
						"TEXCOORD_1":3,
						"JOINTS_0":4,
						"WEIGHTS_0":5
					},
					"indices":6,
					"material":0
				}
			]
		}
	],
	"textures":[
		{
			"sampler":0,
			"source":0
		}
	],
	"images":[
		{
			"mimeType":"image/png",
			"name":"body",
			"uri":"body.png"
		}
	],
	"skins":[
		{
			"inverseBindMatrices":7,
			"joints":[
				6,
				2,
				0,
				1,
				5,
				3,
				4
			],
			"name":"\u30a2\u30fc\u30de\u30c1\u30e5\u30a2"
		}
	],
	"accessors":[
		{
			"bufferView":0,
			"componentType":5126,
			"count":4283,
			"max":[
				2.743150472640991,
				0.75,
				0.9999998211860657
			],
			"min":[
				-0.9999998211860657,
				-1.3298678398132324,
				-0.9999998211860657
			],
			"type":"VEC3"
		},
		{
			"bufferView":1,
			"componentType":5126,
			"count":4283,
			"type":"VEC3"
		},
		{
			"bufferView":2,
			"componentType":5126,
			"count":4283,
			"type":"VEC2"
		},
		{
			"bufferView":3,
			"componentType":5126,
			"count":4283,
			"type":"VEC2"
		},
		{
			"bufferView":4,
			"componentType":5121,
			"count":4283,
			"type":"VEC4"
		},
		{
			"bufferView":5,
			"componentType":5126,
			"count":4283,
			"type":"VEC4"
		},
		{
			"bufferView":6,
			"componentType":5123,
			"count":6408,
			"type":"SCALAR"
		},
		{
			"bufferView":7,
			"componentType":5126,
			"count":7,
			"type":"MAT4"
		}
	],
	"bufferViews":[
		{
			"buffer":0,
			"byteLength":51396,
			"byteOffset":0,
			"target":34962
		},
		{
			"buffer":0,
			"byteLength":51396,
			"byteOffset":51396,
			"target":34962
		},
		{
			"buffer":0,
			"byteLength":34264,
			"byteOffset":102792,
			"target":34962
		},
		{
			"buffer":0,
			"byteLength":34264,
			"byteOffset":137056,
			"target":34962
		},
		{
			"buffer":0,
			"byteLength":17132,
			"byteOffset":171320,
			"target":34962
		},
		{
			"buffer":0,
			"byteLength":68528,
			"byteOffset":188452,
			"target":34962
		},
		{
			"buffer":0,
			"byteLength":12816,
			"byteOffset":256980,
			"target":34963
		},
		{
			"buffer":0,
			"byteLength":448,
			"byteOffset":269796
		}
	],
	"samplers":[
		{
			"magFilter":9729,
			"minFilter":9987
		}
	],
	"buffers":[
		{
			"byteLength":270244,
			"uri":"idle.bin"
		}
	]
}
