{
	"asset":{
		"generator":"Khronos glTF Blender I/O v4.1.63",
		"version":"2.0"
	},
	"scene":0,
	"scenes":[
		{
			"name":"Scene",
			"nodes":[
				4,
				5
			]
		}
	],
	"nodes":[
		{
			"name":"\u30dc\u30fc\u30f3.001",
			"rotation":[
				4.266858155688169e-08,
				6.022659704285616e-08,
				-0.7016471028327942,
				0.7125247120857239
			],
			"scale":[
				0.9999999403953552,
				0.9999999403953552,
				1
			],
			"translation":[
				8.708701670911978e-08,
				0.801534116268158,
				-2.053267156450732e-15
			]
		},
		{
			"children":[
				0
			],
			"name":"\u30dc\u30fc\u30f3",
			"rotation":[
				0,
				-1.0823265839121632e-08,
				-1.0823264062764792e-08,
				1
			],
			"translation":[
				-5.122507928945197e-08,
				-2.584742730959988e-08,
				0
			]
		},
		{
			"name":"neutral_bone",
			"rotation":[
				-0.7071067690849304,
				0,
				0,
				0.7071067690849304
			]
		},
		{
			"mesh":0,
			"name":"head.001",
			"skin":0
		},
		{
			"children":[
				3,
				1,
				2
			],
			"name":"\u30a2\u30fc\u30de\u30c1\u30e5\u30a2",
			"rotation":[
				0,
				0,
				1,
				4.371138828673793e-08
			],
			"translation":[
				-1.0679352283477783,
				-0.5859466195106506,
				0
			]
		},
		{
			"mesh":1,
			"name":"Cube",
			"rotation":[
				0.7071068286895752,
				0,
				0,
				0.7071068286895752
			],
			"translation":[
				0,
				-2,
				0
			]
		}
	],
	"animations":[
		{
			"channels":[
				{
					"sampler":0,
					"target":{
						"node":1,
						"path":"translation"
					}
				},
				{
					"sampler":1,
					"target":{
						"node":1,
						"path":"rotation"
					}
				},
				{
					"sampler":2,
					"target":{
						"node":1,
						"path":"scale"
					}
				},
				{
					"sampler":3,
					"target":{
						"node":0,
						"path":"translation"
					}
				},
				{
					"sampler":4,
					"target":{
						"node":0,
						"path":"rotation"
					}
				},
				{
					"sampler":5,
					"target":{
						"node":0,
						"path":"scale"
					}
				}
			],
			"name":"\u30a2\u30fc\u30de\u30c1\u30e5\u30a2Action",
			"samplers":[
				{
					"input":12,
					"interpolation":"LINEAR",
					"output":13
				},
				{
					"input":14,
					"interpolation":"STEP",
					"output":15
				},
				{
					"input":12,
					"interpolation":"LINEAR",
					"output":16
				},
				{
					"input":14,
					"interpolation":"STEP",
					"output":17
				},
				{
					"input":12,
					"interpolation":"LINEAR",
					"output":18
				},
				{
					"input":14,
					"interpolation":"STEP",
					"output":19
				}
			]
		},
		{
			"channels":[
				{
					"sampler":0,
					"target":{
						"node":3,
						"path":"translation"
					}
				},
				{
					"sampler":1,
					"target":{
						"node":3,
						"path":"rotation"
					}
				},
				{
					"sampler":2,
					"target":{
						"node":3,
						"path":"scale"
					}
				}
			],
			"name":"head.001Action.001",
			"samplers":[
				{
					"input":20,
					"interpolation":"LINEAR",
					"output":21
				},
				{
					"input":20,
					"interpolation":"LINEAR",
					"output":22
				},
				{
					"input":20,
					"interpolation":"LINEAR",
					"output":23
				}
			]
		}
	],
	"materials":[
		{
			"doubleSided":true,
			"name":"\u30de\u30c6\u30ea\u30a2\u30eb.004",
			"pbrMetallicRoughness":{
				"baseColorTexture":{
					"index":0
				},
				"metallicFactor":0,
				"roughnessFactor":0.5
			}
		},
		{
			"doubleSided":true,
			"name":"Material.001",
			"pbrMetallicRoughness":{
				"baseColorTexture":{
					"index":1
				},
				"metallicFactor":0,
				"roughnessFactor":0.5
			}
		}
	],
	"meshes":[
		{
			"name":"\u7acb\u65b9\u4f53.001",
			"primitives":[
				{
					"attributes":{
						"POSITION":0,
						"NORMAL":1,
						"TEXCOORD_0":2,
						"TEXCOORD_1":3,
						"JOINTS_0":4,
						"WEIGHTS_0":5
					},
					"indices":6,
					"material":0
				}
			]
		},
		{
			"name":"Cube.001",
			"primitives":[
				{
					"attributes":{
						"POSITION":8,
						"NORMAL":9,
						"TEXCOORD_0":10
					},
					"indices":11,
					"material":1
				}
			]
		}
	],
	"textures":[
		{
			"sampler":0,
			"source":0
		},
		{
			"sampler":0,
			"source":1
		}
	],
	"images":[
		{
			"mimeType":"image/png",
			"name":"head",
			"uri":"head.png"
		},
		{
			"mimeType":"image/png",
			"name":"neck",
			"uri":"neck.png"
		}
	],
	"skins":[
		{
			"inverseBindMatrices":7,
			"joints":[
				1,
				0,
				2
			],
			"name":"\u30a2\u30fc\u30de\u30c1\u30e5\u30a2"
		}
	],
	"accessors":[
		{
			"bufferView":0,
			"componentType":5126,
			"count":8730,
			"max":[
				1.4203684329986572,
				1.711991786956787,
				1.0093482732772827
			],
			"min":[
				-2.0576624870300293,
				-1.4357527494430542,
				-1.0346152782440186
			],
			"type":"VEC3"
		},
		{
			"bufferView":1,
			"componentType":5126,
			"count":8730,
			"type":"VEC3"
		},
		{
			"bufferView":2,
			"componentType":5126,
			"count":8730,
			"type":"VEC2"
		},
		{
			"bufferView":3,
			"componentType":5126,
			"count":8730,
			"type":"VEC2"
		},
		{
			"bufferView":4,
			"componentType":5121,
			"count":8730,
			"type":"VEC4"
		},
		{
			"bufferView":5,
			"componentType":5126,
			"count":8730,
			"type":"VEC4"
		},
		{
			"bufferView":6,
			"componentType":5123,
			"count":15876,
			"type":"SCALAR"
		},
		{
			"bufferView":7,
			"componentType":5126,
			"count":3,
			"type":"MAT4"
		},
		{
			"bufferView":8,
			"componentType":5126,
			"count":5800,
			"max":[
				1,
				1,
				1
			],
			"min":[
				-1,
				-1,
				-1
			],
			"type":"VEC3"
		},
		{
			"bufferView":9,
			"componentType":5126,
			"count":5800,
			"type":"VEC3"
		},
		{
			"bufferView":10,
			"componentType":5126,
			"count":5800,
			"type":"VEC2"
		},
		{
			"bufferView":11,
			"componentType":5123,
			"count":6084,
			"type":"SCALAR"
		},
		{
			"bufferView":12,
			"componentType":5126,
			"count":11,
			"max":[
				0.4583333333333333
			],
			"min":[
				0.041666666666666664
			],
			"type":"SCALAR"
		},
		{
			"bufferView":13,
			"componentType":5126,
			"count":11,
			"type":"VEC3"
		},
		{
			"bufferView":14,
			"componentType":5126,
			"count":2,
			"max":[
				0.4583333333333333
			],
			"min":[
				0.041666666666666664
			],
			"type":"SCALAR"
		},
		{
			"bufferView":15,
			"componentType":5126,
			"count":2,
			"type":"VEC4"
		},
		{
			"bufferView":16,
			"componentType":5126,
			"count":11,
			"type":"VEC3"
		},
		{
			"bufferView":17,
			"componentType":5126,
			"count":2,
			"type":"VEC3"
		},
		{
			"bufferView":18,
			"componentType":5126,
			"count":11,
			"type":"VEC4"
		},
		{
			"bufferView":19,
			"componentType":5126,
			"count":2,
			"type":"VEC3"
		},
		{
			"bufferView":20,
			"componentType":5126,
			"count":15,
			"max":[
				0.625
			],
			"min":[
				0.041666666666666664
			],
			"type":"SCALAR"
		},
		{
			"bufferView":21,
			"componentType":5126,
			"count":15,
			"type":"VEC3"
		},
		{
			"bufferView":22,
			"componentType":5126,
			"count":15,
			"type":"VEC4"
		},
		{
			"bufferView":23,
			"componentType":5126,
			"count":15,
			"type":"VEC3"
		}
	],
	"bufferViews":[
		{
			"buffer":0,
			"byteLength":104760,
			"byteOffset":0,
			"target":34962
		},
		{
			"buffer":0,
			"byteLength":104760,
			"byteOffset":104760,
			"target":34962
		},
		{
			"buffer":0,
			"byteLength":69840,
			"byteOffset":209520,
			"target":34962
		},
		{
			"buffer":0,
			"byteLength":69840,
			"byteOffset":279360,
			"target":34962
		},
		{
			"buffer":0,
			"byteLength":34920,
			"byteOffset":349200,
			"target":34962
		},
		{
			"buffer":0,
			"byteLength":139680,
			"byteOffset":384120,
			"target":34962
		},
		{
			"buffer":0,
			"byteLength":31752,
			"byteOffset":523800,
			"target":34963
		},
		{
			"buffer":0,
			"byteLength":192,
			"byteOffset":555552
		},
		{
			"buffer":0,
			"byteLength":69600,
			"byteOffset":555744,
			"target":34962
		},
		{
			"buffer":0,
			"byteLength":69600,
			"byteOffset":625344,
			"target":34962
		},
		{
			"buffer":0,
			"byteLength":46400,
			"byteOffset":694944,
			"target":34962
		},
		{
			"buffer":0,
			"byteLength":12168,
			"byteOffset":741344,
			"target":34963
		},
		{
			"buffer":0,
			"byteLength":44,
			"byteOffset":753512
		},
		{
			"buffer":0,
			"byteLength":132,
			"byteOffset":753556
		},
		{
			"buffer":0,
			"byteLength":8,
			"byteOffset":753688
		},
		{
			"buffer":0,
			"byteLength":32,
			"byteOffset":753696
		},
		{
			"buffer":0,
			"byteLength":132,
			"byteOffset":753728
		},
		{
			"buffer":0,
			"byteLength":24,
			"byteOffset":753860
		},
		{
			"buffer":0,
			"byteLength":176,
			"byteOffset":753884
		},
		{
			"buffer":0,
			"byteLength":24,
			"byteOffset":754060
		},
		{
			"buffer":0,
			"byteLength":60,
			"byteOffset":754084
		},
		{
			"buffer":0,
			"byteLength":180,
			"byteOffset":754144
		},
		{
			"buffer":0,
			"byteLength":240,
			"byteOffset":754324
		},
		{
			"buffer":0,
			"byteLength":180,
			"byteOffset":754564
		}
	],
	"samplers":[
		{
			"magFilter":9729,
			"minFilter":9987
		}
	],
	"buffers":[
		{
			"byteLength":754744,
			"uri":"eat_2.bin"
		}
	]
}
