{
	"asset":{
		"generator":"Khronos glTF Blender I/O v4.4.55",
		"version":"2.0"
	},
	"scene":0,
	"scenes":[
		{
			"name":"Scene",
			"nodes":[
				8
			]
		}
	],
	"nodes":[
		{
			"name":"\u6700\u5de6",
			"rotation":[
				-1.621454117639587e-07,
				-5.056364571487393e-08,
				0.6894012093544006,
				0.7243796586990356
			],
			"translation":[
				2.235175067255568e-08,
				0.963775634765625,
				-9.992007221626409e-15
			]
		},
		{
			"name":"\u5de6",
			"rotation":[
				-2.533198824039573e-07,
				1.0956633822445383e-08,
				0.7842190861701965,
				0.6204840540885925
			],
			"translation":[
				1.4156104555240745e-07,
				0.963775634765625,
				-6.439293542825908e-15
			]
		},
		{
			"children":[
				0,
				1
			],
			"name":"\u30dc\u30fc\u30f3.001",
			"rotation":[
				8.851915822560841e-08,
				6.520190254377667e-08,
				-0.7305006980895996,
				0.6829119920730591
			],
			"scale":[
				1,
				0.9999998807907104,
				1
			],
			"translation":[
				2.662374072315288e-07,
				0.9999999403953552,
				1.0658141036401503e-14
			]
		},
		{
			"name":"\u53f3",
			"rotation":[
				-2.1679169037724932e-07,
				3.295562223115667e-08,
				-0.7553062438964844,
				0.6553720831871033
			],
			"translation":[
				4.95748331275081e-08,
				0.9300649166107178,
				2.1316282072803006e-14
			]
		},
		{
			"name":"\u6700\u53f3",
			"rotation":[
				-1.9206611057143164e-07,
				6.222068549277537e-08,
				-0.6175432205200195,
				0.7865369915962219
			],
			"translation":[
				-6.963445287055947e-08,
				0.9300649166107178,
				3.552713678800501e-14
			]
		},
		{
			"children":[
				3,
				4
			],
			"name":"\u30dc\u30fc\u30f3.002",
			"rotation":[
				5.32563859678703e-08,
				-1.0726195398547134e-07,
				0.7071067094802856,
				0.7071068286895752
			],
			"scale":[
				0.9999998807907104,
				0.9999998807907104,
				1
			],
			"translation":[
				2.0663274824528344e-07,
				0.9999999403953552,
				8.881784197001252e-15
			]
		},
		{
			"children":[
				2,
				5
			],
			"name":"\u30dc\u30fc\u30f3",
			"rotation":[
				-8.557136332854043e-09,
				1.7114274442064925e-08,
				8.881784197001252e-16,
				1
			],
			"scale":[
				0.9999999403953552,
				1,
				1
			],
			"translation":[
				1.4057009423140698e-07,
				-4.953960797138279e-08,
				0
			]
		},
		{
			"mesh":0,
			"name":"\u5186\u67f1.001",
			"skin":0
		},
		{
			"children":[
				7,
				6
			],
			"name":"\u30a2\u30fc\u30de\u30c1\u30e5\u30a2",
			"rotation":[
				0,
				0,
				1,
				4.371138828673793e-08
			],
			"scale":[
				0.999199390411377,
				0.6074400544166565,
				1
			],
			"translation":[
				0.5512919425964355,
				0.244143545627594,
				0
			]
		}
	],
	"animations":[
		{
			"channels":[
				{
					"sampler":0,
					"target":{
						"node":6,
						"path":"translation"
					}
				},
				{
					"sampler":1,
					"target":{
						"node":6,
						"path":"rotation"
					}
				},
				{
					"sampler":2,
					"target":{
						"node":6,
						"path":"scale"
					}
				},
				{
					"sampler":3,
					"target":{
						"node":2,
						"path":"translation"
					}
				},
				{
					"sampler":4,
					"target":{
						"node":2,
						"path":"rotation"
					}
				},
				{
					"sampler":5,
					"target":{
						"node":2,
						"path":"scale"
					}
				},
				{
					"sampler":6,
					"target":{
						"node":0,
						"path":"translation"
					}
				},
				{
					"sampler":7,
					"target":{
						"node":0,
						"path":"rotation"
					}
				},
				{
					"sampler":8,
					"target":{
						"node":0,
						"path":"scale"
					}
				},
				{
					"sampler":9,
					"target":{
						"node":1,
						"path":"translation"
					}
				},
				{
					"sampler":10,
					"target":{
						"node":1,
						"path":"rotation"
					}
				},
				{
					"sampler":11,
					"target":{
						"node":1,
						"path":"scale"
					}
				},
				{
					"sampler":12,
					"target":{
						"node":5,
						"path":"translation"
					}
				},
				{
					"sampler":13,
					"target":{
						"node":5,
						"path":"rotation"
					}
				},
				{
					"sampler":14,
					"target":{
						"node":5,
						"path":"scale"
					}
				},
				{
					"sampler":15,
					"target":{
						"node":3,
						"path":"translation"
					}
				},
				{
					"sampler":16,
					"target":{
						"node":3,
						"path":"rotation"
					}
				},
				{
					"sampler":17,
					"target":{
						"node":3,
						"path":"scale"
					}
				},
				{
					"sampler":18,
					"target":{
						"node":4,
						"path":"translation"
					}
				},
				{
					"sampler":19,
					"target":{
						"node":4,
						"path":"rotation"
					}
				},
				{
					"sampler":20,
					"target":{
						"node":4,
						"path":"scale"
					}
				}
			],
			"name":"\u30a2\u30fc\u30de\u30c1\u30e5\u30a2Action",
			"samplers":[
				{
					"input":8,
					"interpolation":"STEP",
					"output":9
				},
				{
					"input":8,
					"interpolation":"STEP",
					"output":10
				},
				{
					"input":8,
					"interpolation":"STEP",
					"output":11
				},
				{
					"input":8,
					"interpolation":"STEP",
					"output":12
				},
				{
					"input":8,
					"interpolation":"STEP",
					"output":13
				},
				{
					"input":8,
					"interpolation":"STEP",
					"output":14
				},
				{
					"input":8,
					"interpolation":"STEP",
					"output":15
				},
				{
					"input":16,
					"interpolation":"LINEAR",
					"output":17
				},
				{
					"input":8,
					"interpolation":"STEP",
					"output":18
				},
				{
					"input":8,
					"interpolation":"STEP",
					"output":19
				},
				{
					"input":16,
					"interpolation":"LINEAR",
					"output":20
				},
				{
					"input":8,
					"interpolation":"LINEAR",
					"output":21
				},
				{
					"input":8,
					"interpolation":"STEP",
					"output":22
				},
				{
					"input":8,
					"interpolation":"STEP",
					"output":23
				},
				{
					"input":8,
					"interpolation":"STEP",
					"output":24
				},
				{
					"input":8,
					"interpolation":"STEP",
					"output":25
				},
				{
					"input":16,
					"interpolation":"LINEAR",
					"output":26
				},
				{
					"input":8,
					"interpolation":"STEP",
					"output":27
				},
				{
					"input":8,
					"interpolation":"STEP",
					"output":28
				},
				{
					"input":16,
					"interpolation":"LINEAR",
					"output":29
				},
				{
					"input":8,
					"interpolation":"LINEAR",
					"output":30
				}
			]
		}
	],
	"materials":[
		{
			"doubleSided":true,
			"name":"Material.001",
			"pbrMetallicRoughness":{
				"baseColorTexture":{
					"index":0
				},
				"metallicFactor":0,
				"roughnessFactor":0.5
			}
		}
	],
	"meshes":[
		{
			"name":"\u5186\u67f1.001",
			"primitives":[
				{
					"attributes":{
						"POSITION":0,
						"NORMAL":1,
						"TEXCOORD_0":2,
						"TEXCOORD_1":3,
						"JOINTS_0":4,
						"WEIGHTS_0":5
					},
					"indices":6,
					"material":0
				}
			]
		}
	],
	"textures":[
		{
			"sampler":0,
			"source":0
		}
	],
	"images":[
		{
			"mimeType":"image/png",
			"name":"body",
			"uri":"body.png"
		}
	],
	"skins":[
		{
			"inverseBindMatrices":7,
			"joints":[
				6,
				2,
				0,
				1,
				5,
				3,
				4
			],
			"name":"\u30a2\u30fc\u30de\u30c1\u30e5\u30a2"
		}
	],
	"accessors":[
		{
			"bufferView":0,
			"componentType":5126,
			"count":4576,
			"max":[
				2.743149995803833,
				0.7500002980232239,
				0.9999998211860657
			],
			"min":[
				-1.000000238418579,
				-1.3298676013946533,
				-0.9999998211860657
			],
			"type":"VEC3"
		},
		{
			"bufferView":1,
			"componentType":5126,
			"count":4576,
			"type":"VEC3"
		},
		{
			"bufferView":2,
			"componentType":5126,
			"count":4576,
			"type":"VEC2"
		},
		{
			"bufferView":3,
			"componentType":5126,
			"count":4576,
			"type":"VEC2"
		},
		{
			"bufferView":4,
			"componentType":5121,
			"count":4576,
			"type":"VEC4"
		},
		{
			"bufferView":5,
			"componentType":5126,
			"count":4576,
			"type":"VEC4"
		},
		{
			"bufferView":6,
			"componentType":5123,
			"count":6408,
			"type":"SCALAR"
		},
		{
			"bufferView":7,
			"componentType":5126,
			"count":7,
			"type":"MAT4"
		},
		{
			"bufferView":8,
			"componentType":5126,
			"count":2,
			"max":[
				0.7083333333333334
			],
			"min":[
				0.041666666666666664
			],
			"type":"SCALAR"
		},
		{
			"bufferView":9,
			"componentType":5126,
			"count":2,
			"type":"VEC3"
		},
		{
			"bufferView":10,
			"componentType":5126,
			"count":2,
			"type":"VEC4"
		},
		{
			"bufferView":11,
			"componentType":5126,
			"count":2,
			"type":"VEC3"
		},
		{
			"bufferView":12,
			"componentType":5126,
			"count":2,
			"type":"VEC3"
		},
		{
			"bufferView":13,
			"componentType":5126,
			"count":2,
			"type":"VEC4"
		},
		{
			"bufferView":14,
			"componentType":5126,
			"count":2,
			"type":"VEC3"
		},
		{
			"bufferView":15,
			"componentType":5126,
			"count":2,
			"type":"VEC3"
		},
		{
			"bufferView":16,
			"componentType":5126,
			"count":17,
			"max":[
				0.7083333333333334
			],
			"min":[
				0.041666666666666664
			],
			"type":"SCALAR"
		},
		{
			"bufferView":17,
			"componentType":5126,
			"count":17,
			"type":"VEC4"
		},
		{
			"bufferView":18,
			"componentType":5126,
			"count":2,
			"type":"VEC3"
		},
		{
			"bufferView":19,
			"componentType":5126,
			"count":2,
			"type":"VEC3"
		},
		{
			"bufferView":20,
			"componentType":5126,
			"count":17,
			"type":"VEC4"
		},
		{
			"bufferView":21,
			"componentType":5126,
			"count":2,
			"type":"VEC3"
		},
		{
			"bufferView":22,
			"componentType":5126,
			"count":2,
			"type":"VEC3"
		},
		{
			"bufferView":23,
			"componentType":5126,
			"count":2,
			"type":"VEC4"
		},
		{
			"bufferView":24,
			"componentType":5126,
			"count":2,
			"type":"VEC3"
		},
		{
			"bufferView":25,
			"componentType":5126,
			"count":2,
			"type":"VEC3"
		},
		{
			"bufferView":26,
			"componentType":5126,
			"count":17,
			"type":"VEC4"
		},
		{
			"bufferView":27,
			"componentType":5126,
			"count":2,
			"type":"VEC3"
		},
		{
			"bufferView":28,
			"componentType":5126,
			"count":2,
			"type":"VEC3"
		},
		{
			"bufferView":29,
			"componentType":5126,
			"count":17,
			"type":"VEC4"
		},
		{
			"bufferView":30,
			"componentType":5126,
			"count":2,
			"type":"VEC3"
		}
	],
	"bufferViews":[
		{
			"buffer":0,
			"byteLength":54912,
			"byteOffset":0,
			"target":34962
		},
		{
			"buffer":0,
			"byteLength":54912,
			"byteOffset":54912,
			"target":34962
		},
		{
			"buffer":0,
			"byteLength":36608,
			"byteOffset":109824,
			"target":34962
		},
		{
			"buffer":0,
			"byteLength":36608,
			"byteOffset":146432,
			"target":34962
		},
		{
			"buffer":0,
			"byteLength":18304,
			"byteOffset":183040,
			"target":34962
		},
		{
			"buffer":0,
			"byteLength":73216,
			"byteOffset":201344,
			"target":34962
		},
		{
			"buffer":0,
			"byteLength":12816,
			"byteOffset":274560,
			"target":34963
		},
		{
			"buffer":0,
			"byteLength":448,
			"byteOffset":287376
		},
		{
			"buffer":0,
			"byteLength":8,
			"byteOffset":287824
		},
		{
			"buffer":0,
			"byteLength":24,
			"byteOffset":287832
		},
		{
			"buffer":0,
			"byteLength":32,
			"byteOffset":287856
		},
		{
			"buffer":0,
			"byteLength":24,
			"byteOffset":287888
		},
		{
			"buffer":0,
			"byteLength":24,
			"byteOffset":287912
		},
		{
			"buffer":0,
			"byteLength":32,
			"byteOffset":287936
		},
		{
			"buffer":0,
			"byteLength":24,
			"byteOffset":287968
		},
		{
			"buffer":0,
			"byteLength":24,
			"byteOffset":287992
		},
		{
			"buffer":0,
			"byteLength":68,
			"byteOffset":288016
		},
		{
			"buffer":0,
			"byteLength":272,
			"byteOffset":288084
		},
		{
			"buffer":0,
			"byteLength":24,
			"byteOffset":288356
		},
		{
			"buffer":0,
			"byteLength":24,
			"byteOffset":288380
		},
		{
			"buffer":0,
			"byteLength":272,
			"byteOffset":288404
		},
		{
			"buffer":0,
			"byteLength":24,
			"byteOffset":288676
		},
		{
			"buffer":0,
			"byteLength":24,
			"byteOffset":288700
		},
		{
			"buffer":0,
			"byteLength":32,
			"byteOffset":288724
		},
		{
			"buffer":0,
			"byteLength":24,
			"byteOffset":288756
		},
		{
			"buffer":0,
			"byteLength":24,
			"byteOffset":288780
		},
		{
			"buffer":0,
			"byteLength":272,
			"byteOffset":288804
		},
		{
			"buffer":0,
			"byteLength":24,
			"byteOffset":289076
		},
		{
			"buffer":0,
			"byteLength":24,
			"byteOffset":289100
		},
		{
			"buffer":0,
			"byteLength":272,
			"byteOffset":289124
		},
		{
			"buffer":0,
			"byteLength":24,
			"byteOffset":289396
		}
	],
	"samplers":[
		{
			"magFilter":9729,
			"minFilter":9987
		}
	],
	"buffers":[
		{
			"byteLength":289420,
			"uri":"walk.bin"
		}
	]
}
