{
	"asset":{
		"generator":"Khronos glTF Blender I/O v4.1.63",
		"version":"2.0"
	},
	"scene":0,
	"scenes":[
		{
			"name":"Scene",
			"nodes":[
				8
			]
		}
	],
	"nodes":[
		{
			"name":"\u6700\u5de6",
			"rotation":[
				-1.820112487393999e-07,
				-2.498929418948137e-08,
				0.6894012689590454,
				0.7243796586990356
			],
			"scale":[
				1,
				0.9999999403953552,
				1
			],
			"translation":[
				3.5390257835388184e-08,
				0.9637755155563354,
				1.7319479184152442e-14
			]
		},
		{
			"name":"\u5de6",
			"rotation":[
				-2.4341596827071044e-07,
				7.3724670812680415e-09,
				0.7842190861701965,
				0.6204840540885925
			],
			"scale":[
				0.9999999403953552,
				1,
				1
			],
			"translation":[
				3.5390257835388184e-08,
				0.9637755155563354,
				1.7319479184152442e-14
			]
		},
		{
			"children":[
				0,
				1
			],
			"name":"\u30dc\u30fc\u30f3.001",
			"rotation":[
				8.116335692420762e-08,
				7.211848185306735e-08,
				-0.7305007576942444,
				0.6829119920730591
			],
			"scale":[
				1,
				0.9999999403953552,
				1
			],
			"translation":[
				8.742345158907483e-08,
				1,
				0
			]
		},
		{
			"name":"\u53f3",
			"rotation":[
				-1.5562186206352635e-07,
				1.9355612224103425e-08,
				-0.7553063035011292,
				0.655371904373169
			],
			"scale":[
				0.9999999403953552,
				1,
				1
			],
			"translation":[
				3.644153423465468e-08,
				0.9300651550292969,
				3.566121363322589e-15
			]
		},
		{
			"name":"\u6700\u53f3",
			"rotation":[
				-1.439436232431035e-07,
				1.9514572180412415e-09,
				-0.6175432801246643,
				0.7865369319915771
			],
			"scale":[
				0.9999999403953552,
				0.9999998807907104,
				1
			],
			"translation":[
				3.644153423465468e-08,
				0.9300651550292969,
				3.566121363322589e-15
			]
		},
		{
			"children":[
				3,
				4
			],
			"name":"\u30dc\u30fc\u30f3.002",
			"rotation":[
				5.443198958232642e-08,
				-5.4431986029612744e-08,
				0.7071068286895752,
				0.7071067094802856
			],
			"scale":[
				1,
				0.9999999403953552,
				1
			],
			"translation":[
				8.742345158907483e-08,
				1,
				0
			]
		},
		{
			"children":[
				2,
				5
			],
			"name":"\u30dc\u30fc\u30f3",
			"rotation":[
				0,
				0,
				8.881784197001252e-16,
				1
			],
			"scale":[
				0.9999999403953552,
				1,
				1
			],
			"translation":[
				8.096544945601636e-08,
				-1.9737292689114838e-08,
				0
			]
		},
		{
			"mesh":0,
			"name":"\u5186\u67f1.001",
			"skin":0
		},
		{
			"children":[
				7,
				6
			],
			"name":"\u30a2\u30fc\u30de\u30c1\u30e5\u30a2",
			"rotation":[
				0,
				0,
				1,
				4.371138828673793e-08
			],
			"scale":[
				0.999199390411377,
				0.6074400544166565,
				1
			],
			"translation":[
				0.5512919425964355,
				0.244143545627594,
				0
			]
		}
	],
	"animations":[
		{
			"channels":[
				{
					"sampler":0,
					"target":{
						"node":6,
						"path":"translation"
					}
				},
				{
					"sampler":1,
					"target":{
						"node":6,
						"path":"rotation"
					}
				},
				{
					"sampler":2,
					"target":{
						"node":6,
						"path":"scale"
					}
				},
				{
					"sampler":3,
					"target":{
						"node":2,
						"path":"translation"
					}
				},
				{
					"sampler":4,
					"target":{
						"node":2,
						"path":"rotation"
					}
				},
				{
					"sampler":5,
					"target":{
						"node":2,
						"path":"scale"
					}
				},
				{
					"sampler":6,
					"target":{
						"node":0,
						"path":"translation"
					}
				},
				{
					"sampler":7,
					"target":{
						"node":0,
						"path":"rotation"
					}
				},
				{
					"sampler":8,
					"target":{
						"node":0,
						"path":"scale"
					}
				},
				{
					"sampler":9,
					"target":{
						"node":1,
						"path":"translation"
					}
				},
				{
					"sampler":10,
					"target":{
						"node":1,
						"path":"rotation"
					}
				},
				{
					"sampler":11,
					"target":{
						"node":1,
						"path":"scale"
					}
				},
				{
					"sampler":12,
					"target":{
						"node":5,
						"path":"translation"
					}
				},
				{
					"sampler":13,
					"target":{
						"node":5,
						"path":"rotation"
					}
				},
				{
					"sampler":14,
					"target":{
						"node":5,
						"path":"scale"
					}
				},
				{
					"sampler":15,
					"target":{
						"node":3,
						"path":"translation"
					}
				},
				{
					"sampler":16,
					"target":{
						"node":3,
						"path":"rotation"
					}
				},
				{
					"sampler":17,
					"target":{
						"node":3,
						"path":"scale"
					}
				},
				{
					"sampler":18,
					"target":{
						"node":4,
						"path":"translation"
					}
				},
				{
					"sampler":19,
					"target":{
						"node":4,
						"path":"rotation"
					}
				},
				{
					"sampler":20,
					"target":{
						"node":4,
						"path":"scale"
					}
				}
			],
			"name":"\u30a2\u30fc\u30de\u30c1\u30e5\u30a2Action",
			"samplers":[
				{
					"input":8,
					"interpolation":"STEP",
					"output":9
				},
				{
					"input":8,
					"interpolation":"STEP",
					"output":10
				},
				{
					"input":8,
					"interpolation":"STEP",
					"output":11
				},
				{
					"input":8,
					"interpolation":"STEP",
					"output":12
				},
				{
					"input":8,
					"interpolation":"STEP",
					"output":13
				},
				{
					"input":8,
					"interpolation":"STEP",
					"output":14
				},
				{
					"input":8,
					"interpolation":"STEP",
					"output":15
				},
				{
					"input":16,
					"interpolation":"LINEAR",
					"output":17
				},
				{
					"input":8,
					"interpolation":"STEP",
					"output":18
				},
				{
					"input":8,
					"interpolation":"STEP",
					"output":19
				},
				{
					"input":16,
					"interpolation":"LINEAR",
					"output":20
				},
				{
					"input":8,
					"interpolation":"STEP",
					"output":21
				},
				{
					"input":8,
					"interpolation":"STEP",
					"output":22
				},
				{
					"input":8,
					"interpolation":"STEP",
					"output":23
				},
				{
					"input":8,
					"interpolation":"STEP",
					"output":24
				},
				{
					"input":8,
					"interpolation":"STEP",
					"output":25
				},
				{
					"input":16,
					"interpolation":"LINEAR",
					"output":26
				},
				{
					"input":8,
					"interpolation":"STEP",
					"output":27
				},
				{
					"input":8,
					"interpolation":"STEP",
					"output":28
				},
				{
					"input":16,
					"interpolation":"LINEAR",
					"output":29
				},
				{
					"input":8,
					"interpolation":"LINEAR",
					"output":30
				}
			]
		}
	],
	"materials":[
		{
			"doubleSided":true,
			"name":"Material",
			"pbrMetallicRoughness":{
				"baseColorTexture":{
					"index":0
				},
				"metallicFactor":0,
				"roughnessFactor":0.5
			}
		}
	],
	"meshes":[
		{
			"name":"\u5186\u67f1.001",
			"primitives":[
				{
					"attributes":{
						"POSITION":0,
						"NORMAL":1,
						"TEXCOORD_0":2,
						"TEXCOORD_1":3,
						"JOINTS_0":4,
						"WEIGHTS_0":5
					},
					"indices":6,
					"material":0
				}
			]
		}
	],
	"textures":[
		{
			"sampler":0,
			"source":0
		}
	],
	"images":[
		{
			"mimeType":"image/png",
			"name":"body",
			"uri":"body.png"
		}
	],
	"skins":[
		{
			"inverseBindMatrices":7,
			"joints":[
				6,
				2,
				0,
				1,
				5,
				3,
				4
			],
			"name":"\u30a2\u30fc\u30de\u30c1\u30e5\u30a2"
		}
	],
	"accessors":[
		{
			"bufferView":0,
			"componentType":5126,
			"count":4283,
			"max":[
				2.743150472640991,
				0.75,
				0.9999998211860657
			],
			"min":[
				-0.9999998211860657,
				-1.3298678398132324,
				-0.9999998211860657
			],
			"type":"VEC3"
		},
		{
			"bufferView":1,
			"componentType":5126,
			"count":4283,
			"type":"VEC3"
		},
		{
			"bufferView":2,
			"componentType":5126,
			"count":4283,
			"type":"VEC2"
		},
		{
			"bufferView":3,
			"componentType":5126,
			"count":4283,
			"type":"VEC2"
		},
		{
			"bufferView":4,
			"componentType":5121,
			"count":4283,
			"type":"VEC4"
		},
		{
			"bufferView":5,
			"componentType":5126,
			"count":4283,
			"type":"VEC4"
		},
		{
			"bufferView":6,
			"componentType":5123,
			"count":6408,
			"type":"SCALAR"
		},
		{
			"bufferView":7,
			"componentType":5126,
			"count":7,
			"type":"MAT4"
		},
		{
			"bufferView":8,
			"componentType":5126,
			"count":2,
			"max":[
				0.7083333333333334
			],
			"min":[
				0.041666666666666664
			],
			"type":"SCALAR"
		},
		{
			"bufferView":9,
			"componentType":5126,
			"count":2,
			"type":"VEC3"
		},
		{
			"bufferView":10,
			"componentType":5126,
			"count":2,
			"type":"VEC4"
		},
		{
			"bufferView":11,
			"componentType":5126,
			"count":2,
			"type":"VEC3"
		},
		{
			"bufferView":12,
			"componentType":5126,
			"count":2,
			"type":"VEC3"
		},
		{
			"bufferView":13,
			"componentType":5126,
			"count":2,
			"type":"VEC4"
		},
		{
			"bufferView":14,
			"componentType":5126,
			"count":2,
			"type":"VEC3"
		},
		{
			"bufferView":15,
			"componentType":5126,
			"count":2,
			"type":"VEC3"
		},
		{
			"bufferView":16,
			"componentType":5126,
			"count":17,
			"max":[
				0.7083333333333334
			],
			"min":[
				0.041666666666666664
			],
			"type":"SCALAR"
		},
		{
			"bufferView":17,
			"componentType":5126,
			"count":17,
			"type":"VEC4"
		},
		{
			"bufferView":18,
			"componentType":5126,
			"count":2,
			"type":"VEC3"
		},
		{
			"bufferView":19,
			"componentType":5126,
			"count":2,
			"type":"VEC3"
		},
		{
			"bufferView":20,
			"componentType":5126,
			"count":17,
			"type":"VEC4"
		},
		{
			"bufferView":21,
			"componentType":5126,
			"count":2,
			"type":"VEC3"
		},
		{
			"bufferView":22,
			"componentType":5126,
			"count":2,
			"type":"VEC3"
		},
		{
			"bufferView":23,
			"componentType":5126,
			"count":2,
			"type":"VEC4"
		},
		{
			"bufferView":24,
			"componentType":5126,
			"count":2,
			"type":"VEC3"
		},
		{
			"bufferView":25,
			"componentType":5126,
			"count":2,
			"type":"VEC3"
		},
		{
			"bufferView":26,
			"componentType":5126,
			"count":17,
			"type":"VEC4"
		},
		{
			"bufferView":27,
			"componentType":5126,
			"count":2,
			"type":"VEC3"
		},
		{
			"bufferView":28,
			"componentType":5126,
			"count":2,
			"type":"VEC3"
		},
		{
			"bufferView":29,
			"componentType":5126,
			"count":17,
			"type":"VEC4"
		},
		{
			"bufferView":30,
			"componentType":5126,
			"count":2,
			"type":"VEC3"
		}
	],
	"bufferViews":[
		{
			"buffer":0,
			"byteLength":51396,
			"byteOffset":0,
			"target":34962
		},
		{
			"buffer":0,
			"byteLength":51396,
			"byteOffset":51396,
			"target":34962
		},
		{
			"buffer":0,
			"byteLength":34264,
			"byteOffset":102792,
			"target":34962
		},
		{
			"buffer":0,
			"byteLength":34264,
			"byteOffset":137056,
			"target":34962
		},
		{
			"buffer":0,
			"byteLength":17132,
			"byteOffset":171320,
			"target":34962
		},
		{
			"buffer":0,
			"byteLength":68528,
			"byteOffset":188452,
			"target":34962
		},
		{
			"buffer":0,
			"byteLength":12816,
			"byteOffset":256980,
			"target":34963
		},
		{
			"buffer":0,
			"byteLength":448,
			"byteOffset":269796
		},
		{
			"buffer":0,
			"byteLength":8,
			"byteOffset":270244
		},
		{
			"buffer":0,
			"byteLength":24,
			"byteOffset":270252
		},
		{
			"buffer":0,
			"byteLength":32,
			"byteOffset":270276
		},
		{
			"buffer":0,
			"byteLength":24,
			"byteOffset":270308
		},
		{
			"buffer":0,
			"byteLength":24,
			"byteOffset":270332
		},
		{
			"buffer":0,
			"byteLength":32,
			"byteOffset":270356
		},
		{
			"buffer":0,
			"byteLength":24,
			"byteOffset":270388
		},
		{
			"buffer":0,
			"byteLength":24,
			"byteOffset":270412
		},
		{
			"buffer":0,
			"byteLength":68,
			"byteOffset":270436
		},
		{
			"buffer":0,
			"byteLength":272,
			"byteOffset":270504
		},
		{
			"buffer":0,
			"byteLength":24,
			"byteOffset":270776
		},
		{
			"buffer":0,
			"byteLength":24,
			"byteOffset":270800
		},
		{
			"buffer":0,
			"byteLength":272,
			"byteOffset":270824
		},
		{
			"buffer":0,
			"byteLength":24,
			"byteOffset":271096
		},
		{
			"buffer":0,
			"byteLength":24,
			"byteOffset":271120
		},
		{
			"buffer":0,
			"byteLength":32,
			"byteOffset":271144
		},
		{
			"buffer":0,
			"byteLength":24,
			"byteOffset":271176
		},
		{
			"buffer":0,
			"byteLength":24,
			"byteOffset":271200
		},
		{
			"buffer":0,
			"byteLength":272,
			"byteOffset":271224
		},
		{
			"buffer":0,
			"byteLength":24,
			"byteOffset":271496
		},
		{
			"buffer":0,
			"byteLength":24,
			"byteOffset":271520
		},
		{
			"buffer":0,
			"byteLength":272,
			"byteOffset":271544
		},
		{
			"buffer":0,
			"byteLength":24,
			"byteOffset":271816
		}
	],
	"samplers":[
		{
			"magFilter":9729,
			"minFilter":9987
		}
	],
	"buffers":[
		{
			"byteLength":271840,
			"uri":"wolk.bin"
		}
	]
}
