{
	"asset":{
		"generator":"Khronos glTF Blender I/O v4.4.55",
		"version":"2.0"
	},
	"scene":0,
	"scenes":[
		{
			"name":"Scene",
			"nodes":[
				5,
				6
			]
		}
	],
	"nodes":[
		{
			"name":"Bone.001",
			"rotation":[
				6.572936683824082e-08,
				3.0146331653213565e-08,
				-0.7016471028327942,
				0.7125247120857239
			],
			"scale":[
				0.9999999403953552,
				0.9999999403953552,
				1
			],
			"translation":[
				2.0629632047075575e-07,
				0.8015339970588684,
				0
			]
		},
		{
			"children":[
				0
			],
			"name":"Bone",
			"rotation":[
				-8.557136332854043e-09,
				-2.7937536728472878e-08,
				-1.0823264062764792e-08,
				1
			],
			"translation":[
				-5.122507928945197e-08,
				-2.584742730959988e-08,
				0
			]
		},
		{
			"name":"neutral_bone",
			"rotation":[
				-0.7071067690849304,
				0,
				0,
				0.7071067690849304
			],
			"translation":[
				-5.122507928945197e-08,
				-2.584742730959988e-08,
				0
			]
		},
		{
			"mesh":0,
			"name":"Body.001",
			"skin":0
		},
		{
			"name":"head.001"
		},
		{
			"children":[
				3,
				4,
				1,
				2
			],
			"name":"Armature",
			"rotation":[
				0,
				0,
				1,
				4.371138828673793e-08
			],
			"translation":[
				-1.0679352283477783,
				-0.5859466195106506,
				0
			]
		},
		{
			"mesh":1,
			"name":"Cube",
			"rotation":[
				0.70710688829422,
				0,
				0,
				0.7071066498756409
			],
			"translation":[
				0,
				-2,
				0
			]
		}
	],
	"animations":[
		{
			"channels":[
				{
					"sampler":0,
					"target":{
						"node":1,
						"path":"translation"
					}
				},
				{
					"sampler":1,
					"target":{
						"node":1,
						"path":"rotation"
					}
				},
				{
					"sampler":2,
					"target":{
						"node":1,
						"path":"scale"
					}
				},
				{
					"sampler":3,
					"target":{
						"node":0,
						"path":"translation"
					}
				},
				{
					"sampler":4,
					"target":{
						"node":0,
						"path":"rotation"
					}
				},
				{
					"sampler":5,
					"target":{
						"node":0,
						"path":"scale"
					}
				},
				{
					"sampler":6,
					"target":{
						"node":2,
						"path":"translation"
					}
				},
				{
					"sampler":7,
					"target":{
						"node":2,
						"path":"rotation"
					}
				},
				{
					"sampler":8,
					"target":{
						"node":2,
						"path":"scale"
					}
				}
			],
			"name":"\u30a2\u30fc\u30de\u30c1\u30e5\u30a2Action",
			"samplers":[
				{
					"input":12,
					"interpolation":"LINEAR",
					"output":13
				},
				{
					"input":14,
					"interpolation":"STEP",
					"output":15
				},
				{
					"input":12,
					"interpolation":"LINEAR",
					"output":16
				},
				{
					"input":14,
					"interpolation":"STEP",
					"output":17
				},
				{
					"input":12,
					"interpolation":"LINEAR",
					"output":18
				},
				{
					"input":14,
					"interpolation":"STEP",
					"output":19
				},
				{
					"input":14,
					"interpolation":"STEP",
					"output":20
				},
				{
					"input":14,
					"interpolation":"STEP",
					"output":21
				},
				{
					"input":14,
					"interpolation":"STEP",
					"output":22
				}
			]
		},
		{
			"channels":[
				{
					"sampler":0,
					"target":{
						"node":1,
						"path":"translation"
					}
				},
				{
					"sampler":1,
					"target":{
						"node":1,
						"path":"rotation"
					}
				},
				{
					"sampler":2,
					"target":{
						"node":1,
						"path":"scale"
					}
				},
				{
					"sampler":3,
					"target":{
						"node":0,
						"path":"translation"
					}
				},
				{
					"sampler":4,
					"target":{
						"node":0,
						"path":"rotation"
					}
				},
				{
					"sampler":5,
					"target":{
						"node":0,
						"path":"scale"
					}
				},
				{
					"sampler":6,
					"target":{
						"node":2,
						"path":"translation"
					}
				},
				{
					"sampler":7,
					"target":{
						"node":2,
						"path":"rotation"
					}
				},
				{
					"sampler":8,
					"target":{
						"node":2,
						"path":"scale"
					}
				}
			],
			"name":"\u30a2\u30fc\u30de\u30c1\u30e5\u30a2Action.001",
			"samplers":[
				{
					"input":12,
					"interpolation":"LINEAR",
					"output":23
				},
				{
					"input":14,
					"interpolation":"STEP",
					"output":24
				},
				{
					"input":12,
					"interpolation":"LINEAR",
					"output":25
				},
				{
					"input":14,
					"interpolation":"STEP",
					"output":26
				},
				{
					"input":12,
					"interpolation":"LINEAR",
					"output":27
				},
				{
					"input":14,
					"interpolation":"STEP",
					"output":28
				},
				{
					"input":14,
					"interpolation":"STEP",
					"output":29
				},
				{
					"input":14,
					"interpolation":"STEP",
					"output":30
				},
				{
					"input":14,
					"interpolation":"STEP",
					"output":31
				}
			]
		},
		{
			"channels":[
				{
					"sampler":0,
					"target":{
						"node":4,
						"path":"translation"
					}
				},
				{
					"sampler":1,
					"target":{
						"node":4,
						"path":"rotation"
					}
				},
				{
					"sampler":2,
					"target":{
						"node":4,
						"path":"scale"
					}
				}
			],
			"name":"head.001Action.002",
			"samplers":[
				{
					"input":32,
					"interpolation":"LINEAR",
					"output":33
				},
				{
					"input":32,
					"interpolation":"LINEAR",
					"output":34
				},
				{
					"input":32,
					"interpolation":"LINEAR",
					"output":35
				}
			]
		}
	],
	"materials":[
		{
			"doubleSided":true,
			"name":"\u30de\u30c6\u30ea\u30a2\u30eb.001",
			"pbrMetallicRoughness":{
				"baseColorTexture":{
					"index":0
				},
				"metallicFactor":0,
				"roughnessFactor":0.5
			}
		},
		{
			"doubleSided":true,
			"name":"Material.001",
			"pbrMetallicRoughness":{
				"baseColorTexture":{
					"index":1
				},
				"metallicFactor":0,
				"roughnessFactor":0.5
			}
		}
	],
	"meshes":[
		{
			"name":"Body.002",
			"primitives":[
				{
					"attributes":{
						"POSITION":0,
						"NORMAL":1,
						"TEXCOORD_0":2,
						"TEXCOORD_1":3,
						"JOINTS_0":4,
						"WEIGHTS_0":5
					},
					"indices":6,
					"material":0
				}
			]
		},
		{
			"name":"Cube.001",
			"primitives":[
				{
					"attributes":{
						"POSITION":8,
						"NORMAL":9,
						"TEXCOORD_0":10
					},
					"indices":11,
					"material":1
				}
			]
		}
	],
	"textures":[
		{
			"sampler":0,
			"source":0
		},
		{
			"sampler":0,
			"source":1
		}
	],
	"images":[
		{
			"mimeType":"image/png",
			"name":"head",
			"uri":"head.png"
		},
		{
			"mimeType":"image/png",
			"name":"neck",
			"uri":"neck.png"
		}
	],
	"skins":[
		{
			"inverseBindMatrices":7,
			"joints":[
				1,
				0,
				2
			],
			"name":"Armature"
		}
	],
	"accessors":[
		{
			"bufferView":0,
			"componentType":5126,
			"count":8771,
			"max":[
				1.4203685522079468,
				1.7119916677474976,
				1.0093481540679932
			],
			"min":[
				-2.0576624870300293,
				-1.4357526302337646,
				-1.034615159034729
			],
			"type":"VEC3"
		},
		{
			"bufferView":1,
			"componentType":5126,
			"count":8771,
			"type":"VEC3"
		},
		{
			"bufferView":2,
			"componentType":5126,
			"count":8771,
			"type":"VEC2"
		},
		{
			"bufferView":3,
			"componentType":5126,
			"count":8771,
			"type":"VEC2"
		},
		{
			"bufferView":4,
			"componentType":5121,
			"count":8771,
			"type":"VEC4"
		},
		{
			"bufferView":5,
			"componentType":5126,
			"count":8771,
			"type":"VEC4"
		},
		{
			"bufferView":6,
			"componentType":5123,
			"count":15876,
			"type":"SCALAR"
		},
		{
			"bufferView":7,
			"componentType":5126,
			"count":3,
			"type":"MAT4"
		},
		{
			"bufferView":8,
			"componentType":5126,
			"count":5800,
			"max":[
				1,
				1,
				1
			],
			"min":[
				-1,
				-1,
				-1
			],
			"type":"VEC3"
		},
		{
			"bufferView":9,
			"componentType":5126,
			"count":5800,
			"type":"VEC3"
		},
		{
			"bufferView":10,
			"componentType":5126,
			"count":5800,
			"type":"VEC2"
		},
		{
			"bufferView":11,
			"componentType":5123,
			"count":6084,
			"type":"SCALAR"
		},
		{
			"bufferView":12,
			"componentType":5126,
			"count":11,
			"max":[
				0.4583333333333333
			],
			"min":[
				0.041666666666666664
			],
			"type":"SCALAR"
		},
		{
			"bufferView":13,
			"componentType":5126,
			"count":11,
			"type":"VEC3"
		},
		{
			"bufferView":14,
			"componentType":5126,
			"count":2,
			"max":[
				0.4583333333333333
			],
			"min":[
				0.041666666666666664
			],
			"type":"SCALAR"
		},
		{
			"bufferView":15,
			"componentType":5126,
			"count":2,
			"type":"VEC4"
		},
		{
			"bufferView":16,
			"componentType":5126,
			"count":11,
			"type":"VEC3"
		},
		{
			"bufferView":17,
			"componentType":5126,
			"count":2,
			"type":"VEC3"
		},
		{
			"bufferView":18,
			"componentType":5126,
			"count":11,
			"type":"VEC4"
		},
		{
			"bufferView":19,
			"componentType":5126,
			"count":2,
			"type":"VEC3"
		},
		{
			"bufferView":20,
			"componentType":5126,
			"count":2,
			"type":"VEC3"
		},
		{
			"bufferView":21,
			"componentType":5126,
			"count":2,
			"type":"VEC4"
		},
		{
			"bufferView":22,
			"componentType":5126,
			"count":2,
			"type":"VEC3"
		},
		{
			"bufferView":23,
			"componentType":5126,
			"count":11,
			"type":"VEC3"
		},
		{
			"bufferView":24,
			"componentType":5126,
			"count":2,
			"type":"VEC4"
		},
		{
			"bufferView":25,
			"componentType":5126,
			"count":11,
			"type":"VEC3"
		},
		{
			"bufferView":26,
			"componentType":5126,
			"count":2,
			"type":"VEC3"
		},
		{
			"bufferView":27,
			"componentType":5126,
			"count":11,
			"type":"VEC4"
		},
		{
			"bufferView":28,
			"componentType":5126,
			"count":2,
			"type":"VEC3"
		},
		{
			"bufferView":29,
			"componentType":5126,
			"count":2,
			"type":"VEC3"
		},
		{
			"bufferView":30,
			"componentType":5126,
			"count":2,
			"type":"VEC4"
		},
		{
			"bufferView":31,
			"componentType":5126,
			"count":2,
			"type":"VEC3"
		},
		{
			"bufferView":32,
			"componentType":5126,
			"count":15,
			"max":[
				0.625
			],
			"min":[
				0.041666666666666664
			],
			"type":"SCALAR"
		},
		{
			"bufferView":33,
			"componentType":5126,
			"count":15,
			"type":"VEC3"
		},
		{
			"bufferView":34,
			"componentType":5126,
			"count":15,
			"type":"VEC4"
		},
		{
			"bufferView":35,
			"componentType":5126,
			"count":15,
			"type":"VEC3"
		}
	],
	"bufferViews":[
		{
			"buffer":0,
			"byteLength":105252,
			"byteOffset":0,
			"target":34962
		},
		{
			"buffer":0,
			"byteLength":105252,
			"byteOffset":105252,
			"target":34962
		},
		{
			"buffer":0,
			"byteLength":70168,
			"byteOffset":210504,
			"target":34962
		},
		{
			"buffer":0,
			"byteLength":70168,
			"byteOffset":280672,
			"target":34962
		},
		{
			"buffer":0,
			"byteLength":35084,
			"byteOffset":350840,
			"target":34962
		},
		{
			"buffer":0,
			"byteLength":140336,
			"byteOffset":385924,
			"target":34962
		},
		{
			"buffer":0,
			"byteLength":31752,
			"byteOffset":526260,
			"target":34963
		},
		{
			"buffer":0,
			"byteLength":192,
			"byteOffset":558012
		},
		{
			"buffer":0,
			"byteLength":69600,
			"byteOffset":558204,
			"target":34962
		},
		{
			"buffer":0,
			"byteLength":69600,
			"byteOffset":627804,
			"target":34962
		},
		{
			"buffer":0,
			"byteLength":46400,
			"byteOffset":697404,
			"target":34962
		},
		{
			"buffer":0,
			"byteLength":12168,
			"byteOffset":743804,
			"target":34963
		},
		{
			"buffer":0,
			"byteLength":44,
			"byteOffset":755972
		},
		{
			"buffer":0,
			"byteLength":132,
			"byteOffset":756016
		},
		{
			"buffer":0,
			"byteLength":8,
			"byteOffset":756148
		},
		{
			"buffer":0,
			"byteLength":32,
			"byteOffset":756156
		},
		{
			"buffer":0,
			"byteLength":132,
			"byteOffset":756188
		},
		{
			"buffer":0,
			"byteLength":24,
			"byteOffset":756320
		},
		{
			"buffer":0,
			"byteLength":176,
			"byteOffset":756344
		},
		{
			"buffer":0,
			"byteLength":24,
			"byteOffset":756520
		},
		{
			"buffer":0,
			"byteLength":24,
			"byteOffset":756544
		},
		{
			"buffer":0,
			"byteLength":32,
			"byteOffset":756568
		},
		{
			"buffer":0,
			"byteLength":24,
			"byteOffset":756600
		},
		{
			"buffer":0,
			"byteLength":132,
			"byteOffset":756624
		},
		{
			"buffer":0,
			"byteLength":32,
			"byteOffset":756756
		},
		{
			"buffer":0,
			"byteLength":132,
			"byteOffset":756788
		},
		{
			"buffer":0,
			"byteLength":24,
			"byteOffset":756920
		},
		{
			"buffer":0,
			"byteLength":176,
			"byteOffset":756944
		},
		{
			"buffer":0,
			"byteLength":24,
			"byteOffset":757120
		},
		{
			"buffer":0,
			"byteLength":24,
			"byteOffset":757144
		},
		{
			"buffer":0,
			"byteLength":32,
			"byteOffset":757168
		},
		{
			"buffer":0,
			"byteLength":24,
			"byteOffset":757200
		},
		{
			"buffer":0,
			"byteLength":60,
			"byteOffset":757224
		},
		{
			"buffer":0,
			"byteLength":180,
			"byteOffset":757284
		},
		{
			"buffer":0,
			"byteLength":240,
			"byteOffset":757464
		},
		{
			"buffer":0,
			"byteLength":180,
			"byteOffset":757704
		}
	],
	"samplers":[
		{
			"magFilter":9729,
			"minFilter":9987
		}
	],
	"buffers":[
		{
			"byteLength":757884,
			"uri":"eat_2.bin"
		}
	]
}
