{
	"asset":{
		"generator":"Khronos glTF Blender I/O v4.1.63",
		"version":"2.0"
	},
	"scene":0,
	"scenes":[
		{
			"name":"Scene",
			"nodes":[
				0
			]
		}
	],
	"nodes":[
		{
			"mesh":0,
			"name":"head.001"
		}
	],
	"animations":[
		{
			"channels":[
				{
					"sampler":0,
					"target":{
						"node":0,
						"path":"translation"
					}
				},
				{
					"sampler":1,
					"target":{
						"node":0,
						"path":"rotation"
					}
				},
				{
					"sampler":2,
					"target":{
						"node":0,
						"path":"scale"
					}
				}
			],
			"name":"head.001Action",
			"samplers":[
				{
					"input":5,
					"interpolation":"STEP",
					"output":6
				},
				{
					"input":5,
					"interpolation":"STEP",
					"output":7
				},
				{
					"input":5,
					"interpolation":"STEP",
					"output":8
				}
			]
		}
	],
	"materials":[
		{
			"doubleSided":true,
			"name":"\u30de\u30c6\u30ea\u30a2\u30eb.004",
			"pbrMetallicRoughness":{
				"baseColorTexture":{
					"index":0
				},
				"metallicFactor":0,
				"roughnessFactor":0.5
			}
		}
	],
	"meshes":[
		{
			"name":"\u7acb\u65b9\u4f53.001",
			"primitives":[
				{
					"attributes":{
						"POSITION":0,
						"NORMAL":1,
						"TEXCOORD_0":2,
						"TEXCOORD_1":3
					},
					"indices":4,
					"material":0
				}
			]
		}
	],
	"textures":[
		{
			"sampler":0,
			"source":0
		}
	],
	"images":[
		{
			"mimeType":"image/png",
			"name":"head",
			"uri":"head.png"
		}
	],
	"accessors":[
		{
			"bufferView":0,
			"componentType":5126,
			"count":6892,
			"max":[
				1.4203684329986572,
				1.711991786956787,
				1.0093482732772827
			],
			"min":[
				-2.0576624870300293,
				-1,
				-1.0346152782440186
			],
			"type":"VEC3"
		},
		{
			"bufferView":1,
			"componentType":5126,
			"count":6892,
			"type":"VEC3"
		},
		{
			"bufferView":2,
			"componentType":5126,
			"count":6892,
			"type":"VEC2"
		},
		{
			"bufferView":3,
			"componentType":5126,
			"count":6892,
			"type":"VEC2"
		},
		{
			"bufferView":4,
			"componentType":5123,
			"count":15744,
			"type":"SCALAR"
		},
		{
			"bufferView":5,
			"componentType":5126,
			"count":2,
			"max":[
				0.08333333333333333
			],
			"min":[
				0
			],
			"type":"SCALAR"
		},
		{
			"bufferView":6,
			"componentType":5126,
			"count":2,
			"type":"VEC3"
		},
		{
			"bufferView":7,
			"componentType":5126,
			"count":2,
			"type":"VEC4"
		},
		{
			"bufferView":8,
			"componentType":5126,
			"count":2,
			"type":"VEC3"
		}
	],
	"bufferViews":[
		{
			"buffer":0,
			"byteLength":82704,
			"byteOffset":0,
			"target":34962
		},
		{
			"buffer":0,
			"byteLength":82704,
			"byteOffset":82704,
			"target":34962
		},
		{
			"buffer":0,
			"byteLength":55136,
			"byteOffset":165408,
			"target":34962
		},
		{
			"buffer":0,
			"byteLength":55136,
			"byteOffset":220544,
			"target":34962
		},
		{
			"buffer":0,
			"byteLength":31488,
			"byteOffset":275680,
			"target":34963
		},
		{
			"buffer":0,
			"byteLength":8,
			"byteOffset":307168
		},
		{
			"buffer":0,
			"byteLength":24,
			"byteOffset":307176
		},
		{
			"buffer":0,
			"byteLength":32,
			"byteOffset":307200
		},
		{
			"buffer":0,
			"byteLength":24,
			"byteOffset":307232
		}
	],
	"samplers":[
		{
			"magFilter":9729,
			"minFilter":9987
		}
	],
	"buffers":[
		{
			"byteLength":307256,
			"uri":"kirin.bin"
		}
	]
}
