{
	"asset":{
		"generator":"Khronos glTF Blender I/O v4.4.55",
		"version":"2.0"
	},
	"scene":0,
	"scenes":[
		{
			"name":"Scene",
			"nodes":[
				3
			]
		}
	],
	"nodes":[
		{
			"name":"Bone",
			"rotation":[
				-8.557136332854043e-09,
				1.7114272665708086e-08,
				-2.928983286277023e-16,
				1
			]
		},
		{
			"name":"neutral_bone",
			"rotation":[
				-0.7071067690849304,
				0,
				0,
				0.7071067690849304
			]
		},
		{
			"mesh":0,
			"name":"head.001",
			"skin":0
		},
		{
			"children":[
				2,
				0,
				1
			],
			"name":"Armature"
		}
	],
	"materials":[
		{
			"doubleSided":true,
			"name":"\u30de\u30c6\u30ea\u30a2\u30eb.004",
			"pbrMetallicRoughness":{
				"baseColorTexture":{
					"index":0
				},
				"metallicFactor":0,
				"roughnessFactor":0.5
			}
		}
	],
	"meshes":[
		{
			"name":"\u7acb\u65b9\u4f53.001",
			"primitives":[
				{
					"attributes":{
						"POSITION":0,
						"NORMAL":1,
						"TEXCOORD_0":2,
						"TEXCOORD_1":3,
						"JOINTS_0":4,
						"WEIGHTS_0":5
					},
					"indices":6,
					"material":0
				}
			]
		}
	],
	"textures":[
		{
			"sampler":0,
			"source":0
		}
	],
	"images":[
		{
			"mimeType":"image/png",
			"name":"head",
			"uri":"head.png"
		}
	],
	"skins":[
		{
			"inverseBindMatrices":7,
			"joints":[
				0,
				1
			],
			"name":"Armature"
		}
	],
	"accessors":[
		{
			"bufferView":0,
			"componentType":5126,
			"count":8668,
			"max":[
				1.4203684329986572,
				1.711991786956787,
				1.0093481540679932
			],
			"min":[
				-2.0576624870300293,
				-1,
				-1.034615159034729
			],
			"type":"VEC3"
		},
		{
			"bufferView":1,
			"componentType":5126,
			"count":8668,
			"type":"VEC3"
		},
		{
			"bufferView":2,
			"componentType":5126,
			"count":8668,
			"type":"VEC2"
		},
		{
			"bufferView":3,
			"componentType":5126,
			"count":8668,
			"type":"VEC2"
		},
		{
			"bufferView":4,
			"componentType":5121,
			"count":8668,
			"type":"VEC4"
		},
		{
			"bufferView":5,
			"componentType":5126,
			"count":8668,
			"type":"VEC4"
		},
		{
			"bufferView":6,
			"componentType":5123,
			"count":15738,
			"type":"SCALAR"
		},
		{
			"bufferView":7,
			"componentType":5126,
			"count":2,
			"type":"MAT4"
		}
	],
	"bufferViews":[
		{
			"buffer":0,
			"byteLength":104016,
			"byteOffset":0,
			"target":34962
		},
		{
			"buffer":0,
			"byteLength":104016,
			"byteOffset":104016,
			"target":34962
		},
		{
			"buffer":0,
			"byteLength":69344,
			"byteOffset":208032,
			"target":34962
		},
		{
			"buffer":0,
			"byteLength":69344,
			"byteOffset":277376,
			"target":34962
		},
		{
			"buffer":0,
			"byteLength":34672,
			"byteOffset":346720,
			"target":34962
		},
		{
			"buffer":0,
			"byteLength":138688,
			"byteOffset":381392,
			"target":34962
		},
		{
			"buffer":0,
			"byteLength":31476,
			"byteOffset":520080,
			"target":34963
		},
		{
			"buffer":0,
			"byteLength":128,
			"byteOffset":551556
		}
	],
	"samplers":[
		{
			"magFilter":9729,
			"minFilter":9987
		}
	],
	"buffers":[
		{
			"byteLength":551684,
			"uri":"kirin.bin"
		}
	]
}
