{
	"asset":{
		"generator":"Khronos glTF Blender I/O v4.4.55",
		"version":"2.0"
	},
	"scene":0,
	"scenes":[
		{
			"name":"Scene",
			"nodes":[
				2,
				13
			]
		}
	],
	"nodes":[
		{
			"name":"Bone",
			"rotation":[
				-8.557136332854043e-09,
				2.4203236748121526e-08,
				-4.1422078995684666e-16,
				1
			]
		},
		{
			"name":"neutral_bone",
			"rotation":[
				-0.7071067690849304,
				0,
				0,
				0.7071067690849304
			]
		},
		{
			"children":[
				0,
				1
			],
			"name":"Armature"
		},
		{
			"name":"Bone.007",
			"rotation":[
				-3.781951107839632e-08,
				3.772365175791492e-08,
				-0.229064479470253,
				0.9734112620353699
			],
			"translation":[
				1.7881392011531716e-07,
				0.13075262308120728,
				-4.263256414560601e-14
			]
		},
		{
			"children":[
				3
			],
			"name":"Bone.006",
			"rotation":[
				-9.602565853583656e-09,
				-3.8249691414193876e-08,
				-0.11496578902006149,
				0.993369460105896
			],
			"scale":[
				1,
				0.9999999403953552,
				1
			],
			"translation":[
				8.195637946073475e-08,
				0.22174637019634247,
				-2.886579864025407e-14
			]
		},
		{
			"children":[
				4
			],
			"name":"Bone.005",
			"rotation":[
				-9.787199495292498e-09,
				7.54736717567539e-08,
				-0.08089834451675415,
				0.996722400188446
			],
			"translation":[
				1.7881393432617188e-07,
				0.15122798085212708,
				-5.329070518200751e-15
			]
		},
		{
			"children":[
				5
			],
			"name":"Bone.004",
			"rotation":[
				-7.47654915755902e-09,
				-4.6527155461717484e-08,
				-0.12455660849809647,
				0.9922124743461609
			],
			"translation":[
				-5.960464477539063e-08,
				0.21710604429244995,
				1.7763568394002505e-15
			]
		},
		{
			"children":[
				6
			],
			"name":"Bone.003",
			"rotation":[
				4.047005397467274e-09,
				2.982199021062115e-08,
				-0.1944631189107895,
				0.9809098243713379
			],
			"translation":[
				1.7881393432617188e-07,
				0.1530250906944275,
				3.552713678800501e-14
			]
		},
		{
			"children":[
				7
			],
			"name":"Bone.002",
			"rotation":[
				7.360554388213814e-10,
				-5.693438964726738e-08,
				-0.01938677579164505,
				0.9998120665550232
			],
			"translation":[
				5.960464477539063e-08,
				0.21716082096099854,
				7.105427357601002e-15
			]
		},
		{
			"children":[
				8
			],
			"name":"Bone.001",
			"rotation":[
				-2.523555338029837e-07,
				-1.1297250246400381e-08,
				0.10026082396507263,
				0.9949612021446228
			],
			"scale":[
				0.9999999403953552,
				1,
				1
			],
			"translation":[
				-3.5762786865234375e-07,
				0.17985427379608154,
				-2.1316282072803006e-14
			]
		},
		{
			"children":[
				9
			],
			"name":"Bone",
			"rotation":[
				8.267689644014808e-09,
				1.6780828104856482e-07,
				0.9011684060096741,
				0.4334692060947418
			],
			"scale":[
				1,
				0.9999999403953552,
				1
			],
			"translation":[
				-1.3107835054397583,
				-0.911316454410553,
				0
			]
		},
		{
			"name":"neutral_bone",
			"rotation":[
				-0.265267550945282,
				-0.6554640531539917,
				0.6554640531539917,
				0.265267550945282
			],
			"scale":[
				0.9999999403953552,
				1,
				0.9999999403953552
			],
			"translation":[
				-1.3107835054397583,
				-0.9113163948059082,
				0
			]
		},
		{
			"mesh":0,
			"name":"head.001",
			"skin":0
		},
		{
			"children":[
				12,
				10,
				11
			],
			"name":"Armature.001"
		}
	],
	"animations":[
		{
			"channels":[
				{
					"sampler":0,
					"target":{
						"node":10,
						"path":"translation"
					}
				},
				{
					"sampler":1,
					"target":{
						"node":10,
						"path":"rotation"
					}
				},
				{
					"sampler":2,
					"target":{
						"node":10,
						"path":"scale"
					}
				},
				{
					"sampler":3,
					"target":{
						"node":9,
						"path":"translation"
					}
				},
				{
					"sampler":4,
					"target":{
						"node":9,
						"path":"rotation"
					}
				},
				{
					"sampler":5,
					"target":{
						"node":9,
						"path":"scale"
					}
				},
				{
					"sampler":6,
					"target":{
						"node":8,
						"path":"translation"
					}
				},
				{
					"sampler":7,
					"target":{
						"node":8,
						"path":"rotation"
					}
				},
				{
					"sampler":8,
					"target":{
						"node":8,
						"path":"scale"
					}
				},
				{
					"sampler":9,
					"target":{
						"node":7,
						"path":"translation"
					}
				},
				{
					"sampler":10,
					"target":{
						"node":7,
						"path":"rotation"
					}
				},
				{
					"sampler":11,
					"target":{
						"node":7,
						"path":"scale"
					}
				},
				{
					"sampler":12,
					"target":{
						"node":6,
						"path":"translation"
					}
				},
				{
					"sampler":13,
					"target":{
						"node":6,
						"path":"rotation"
					}
				},
				{
					"sampler":14,
					"target":{
						"node":6,
						"path":"scale"
					}
				},
				{
					"sampler":15,
					"target":{
						"node":5,
						"path":"translation"
					}
				},
				{
					"sampler":16,
					"target":{
						"node":5,
						"path":"rotation"
					}
				},
				{
					"sampler":17,
					"target":{
						"node":5,
						"path":"scale"
					}
				},
				{
					"sampler":18,
					"target":{
						"node":4,
						"path":"translation"
					}
				},
				{
					"sampler":19,
					"target":{
						"node":4,
						"path":"rotation"
					}
				},
				{
					"sampler":20,
					"target":{
						"node":4,
						"path":"scale"
					}
				},
				{
					"sampler":21,
					"target":{
						"node":3,
						"path":"translation"
					}
				},
				{
					"sampler":22,
					"target":{
						"node":3,
						"path":"rotation"
					}
				},
				{
					"sampler":23,
					"target":{
						"node":3,
						"path":"scale"
					}
				},
				{
					"sampler":24,
					"target":{
						"node":11,
						"path":"translation"
					}
				},
				{
					"sampler":25,
					"target":{
						"node":11,
						"path":"rotation"
					}
				},
				{
					"sampler":26,
					"target":{
						"node":11,
						"path":"scale"
					}
				}
			],
			"name":"\u30a2\u30fc\u30de\u30c1\u30e5\u30a2Action",
			"samplers":[
				{
					"input":8,
					"interpolation":"LINEAR",
					"output":9
				},
				{
					"input":8,
					"interpolation":"LINEAR",
					"output":10
				},
				{
					"input":11,
					"interpolation":"STEP",
					"output":12
				},
				{
					"input":11,
					"interpolation":"LINEAR",
					"output":13
				},
				{
					"input":11,
					"interpolation":"LINEAR",
					"output":14
				},
				{
					"input":11,
					"interpolation":"LINEAR",
					"output":15
				},
				{
					"input":11,
					"interpolation":"LINEAR",
					"output":16
				},
				{
					"input":11,
					"interpolation":"LINEAR",
					"output":17
				},
				{
					"input":11,
					"interpolation":"LINEAR",
					"output":18
				},
				{
					"input":11,
					"interpolation":"LINEAR",
					"output":19
				},
				{
					"input":11,
					"interpolation":"LINEAR",
					"output":20
				},
				{
					"input":11,
					"interpolation":"LINEAR",
					"output":21
				},
				{
					"input":11,
					"interpolation":"LINEAR",
					"output":22
				},
				{
					"input":11,
					"interpolation":"LINEAR",
					"output":23
				},
				{
					"input":11,
					"interpolation":"LINEAR",
					"output":24
				},
				{
					"input":11,
					"interpolation":"LINEAR",
					"output":25
				},
				{
					"input":11,
					"interpolation":"LINEAR",
					"output":26
				},
				{
					"input":11,
					"interpolation":"LINEAR",
					"output":27
				},
				{
					"input":11,
					"interpolation":"LINEAR",
					"output":28
				},
				{
					"input":11,
					"interpolation":"LINEAR",
					"output":29
				},
				{
					"input":11,
					"interpolation":"LINEAR",
					"output":30
				},
				{
					"input":11,
					"interpolation":"LINEAR",
					"output":31
				},
				{
					"input":11,
					"interpolation":"LINEAR",
					"output":32
				},
				{
					"input":11,
					"interpolation":"LINEAR",
					"output":33
				},
				{
					"input":11,
					"interpolation":"STEP",
					"output":34
				},
				{
					"input":11,
					"interpolation":"STEP",
					"output":35
				},
				{
					"input":11,
					"interpolation":"STEP",
					"output":36
				}
			]
		}
	],
	"materials":[
		{
			"doubleSided":true,
			"name":"\u30de\u30c6\u30ea\u30a2\u30eb.001",
			"pbrMetallicRoughness":{
				"baseColorTexture":{
					"index":0
				},
				"metallicFactor":0,
				"roughnessFactor":0.5
			}
		}
	],
	"meshes":[
		{
			"name":"\u7acb\u65b9\u4f53.002",
			"primitives":[
				{
					"attributes":{
						"POSITION":0,
						"NORMAL":1,
						"TEXCOORD_0":2,
						"TEXCOORD_1":3,
						"JOINTS_0":4,
						"WEIGHTS_0":5
					},
					"indices":6,
					"material":0
				}
			]
		}
	],
	"textures":[
		{
			"sampler":0,
			"source":0
		}
	],
	"images":[
		{
			"mimeType":"image/png",
			"name":"kirin_head",
			"uri":"kirin_head.png"
		}
	],
	"skins":[
		{
			"inverseBindMatrices":7,
			"joints":[
				10,
				9,
				8,
				7,
				6,
				5,
				4,
				3,
				11
			],
			"name":"Armature.001"
		},
		{
			"inverseBindMatrices":37,
			"joints":[
				0,
				1
			],
			"name":"Armature"
		}
	],
	"accessors":[
		{
			"bufferView":0,
			"componentType":5126,
			"count":9174,
			"max":[
				1.4203683137893677,
				1.711991786956787,
				1.0093480348587036
			],
			"min":[
				-2.4977245330810547,
				-1.756730556488037,
				-1.0346150398254395
			],
			"type":"VEC3"
		},
		{
			"bufferView":1,
			"componentType":5126,
			"count":9174,
			"type":"VEC3"
		},
		{
			"bufferView":2,
			"componentType":5126,
			"count":9174,
			"type":"VEC2"
		},
		{
			"bufferView":3,
			"componentType":5126,
			"count":9174,
			"type":"VEC2"
		},
		{
			"bufferView":4,
			"componentType":5121,
			"count":9174,
			"type":"VEC4"
		},
		{
			"bufferView":5,
			"componentType":5126,
			"count":9174,
			"type":"VEC4"
		},
		{
			"bufferView":6,
			"componentType":5123,
			"count":17538,
			"type":"SCALAR"
		},
		{
			"bufferView":7,
			"componentType":5126,
			"count":9,
			"type":"MAT4"
		},
		{
			"bufferView":8,
			"componentType":5126,
			"count":24,
			"max":[
				0.9583333333333334
			],
			"min":[
				0
			],
			"type":"SCALAR"
		},
		{
			"bufferView":9,
			"componentType":5126,
			"count":24,
			"type":"VEC3"
		},
		{
			"bufferView":10,
			"componentType":5126,
			"count":24,
			"type":"VEC4"
		},
		{
			"bufferView":11,
			"componentType":5126,
			"count":2,
			"max":[
				0.9583333333333334
			],
			"min":[
				0
			],
			"type":"SCALAR"
		},
		{
			"bufferView":12,
			"componentType":5126,
			"count":2,
			"type":"VEC3"
		},
		{
			"bufferView":13,
			"componentType":5126,
			"count":2,
			"type":"VEC3"
		},
		{
			"bufferView":14,
			"componentType":5126,
			"count":2,
			"type":"VEC4"
		},
		{
			"bufferView":15,
			"componentType":5126,
			"count":2,
			"type":"VEC3"
		},
		{
			"bufferView":16,
			"componentType":5126,
			"count":2,
			"type":"VEC3"
		},
		{
			"bufferView":17,
			"componentType":5126,
			"count":2,
			"type":"VEC4"
		},
		{
			"bufferView":18,
			"componentType":5126,
			"count":2,
			"type":"VEC3"
		},
		{
			"bufferView":19,
			"componentType":5126,
			"count":2,
			"type":"VEC3"
		},
		{
			"bufferView":20,
			"componentType":5126,
			"count":2,
			"type":"VEC4"
		},
		{
			"bufferView":21,
			"componentType":5126,
			"count":2,
			"type":"VEC3"
		},
		{
			"bufferView":22,
			"componentType":5126,
			"count":2,
			"type":"VEC3"
		},
		{
			"bufferView":23,
			"componentType":5126,
			"count":2,
			"type":"VEC4"
		},
		{
			"bufferView":24,
			"componentType":5126,
			"count":2,
			"type":"VEC3"
		},
		{
			"bufferView":25,
			"componentType":5126,
			"count":2,
			"type":"VEC3"
		},
		{
			"bufferView":26,
			"componentType":5126,
			"count":2,
			"type":"VEC4"
		},
		{
			"bufferView":27,
			"componentType":5126,
			"count":2,
			"type":"VEC3"
		},
		{
			"bufferView":28,
			"componentType":5126,
			"count":2,
			"type":"VEC3"
		},
		{
			"bufferView":29,
			"componentType":5126,
			"count":2,
			"type":"VEC4"
		},
		{
			"bufferView":30,
			"componentType":5126,
			"count":2,
			"type":"VEC3"
		},
		{
			"bufferView":31,
			"componentType":5126,
			"count":2,
			"type":"VEC3"
		},
		{
			"bufferView":32,
			"componentType":5126,
			"count":2,
			"type":"VEC4"
		},
		{
			"bufferView":33,
			"componentType":5126,
			"count":2,
			"type":"VEC3"
		},
		{
			"bufferView":34,
			"componentType":5126,
			"count":2,
			"type":"VEC3"
		},
		{
			"bufferView":35,
			"componentType":5126,
			"count":2,
			"type":"VEC4"
		},
		{
			"bufferView":36,
			"componentType":5126,
			"count":2,
			"type":"VEC3"
		},
		{
			"bufferView":37,
			"componentType":5126,
			"count":2,
			"type":"MAT4"
		}
	],
	"bufferViews":[
		{
			"buffer":0,
			"byteLength":110088,
			"byteOffset":0,
			"target":34962
		},
		{
			"buffer":0,
			"byteLength":110088,
			"byteOffset":110088,
			"target":34962
		},
		{
			"buffer":0,
			"byteLength":73392,
			"byteOffset":220176,
			"target":34962
		},
		{
			"buffer":0,
			"byteLength":73392,
			"byteOffset":293568,
			"target":34962
		},
		{
			"buffer":0,
			"byteLength":36696,
			"byteOffset":366960,
			"target":34962
		},
		{
			"buffer":0,
			"byteLength":146784,
			"byteOffset":403656,
			"target":34962
		},
		{
			"buffer":0,
			"byteLength":35076,
			"byteOffset":550440,
			"target":34963
		},
		{
			"buffer":0,
			"byteLength":576,
			"byteOffset":585516
		},
		{
			"buffer":0,
			"byteLength":96,
			"byteOffset":586092
		},
		{
			"buffer":0,
			"byteLength":288,
			"byteOffset":586188
		},
		{
			"buffer":0,
			"byteLength":384,
			"byteOffset":586476
		},
		{
			"buffer":0,
			"byteLength":8,
			"byteOffset":586860
		},
		{
			"buffer":0,
			"byteLength":24,
			"byteOffset":586868
		},
		{
			"buffer":0,
			"byteLength":24,
			"byteOffset":586892
		},
		{
			"buffer":0,
			"byteLength":32,
			"byteOffset":586916
		},
		{
			"buffer":0,
			"byteLength":24,
			"byteOffset":586948
		},
		{
			"buffer":0,
			"byteLength":24,
			"byteOffset":586972
		},
		{
			"buffer":0,
			"byteLength":32,
			"byteOffset":586996
		},
		{
			"buffer":0,
			"byteLength":24,
			"byteOffset":587028
		},
		{
			"buffer":0,
			"byteLength":24,
			"byteOffset":587052
		},
		{
			"buffer":0,
			"byteLength":32,
			"byteOffset":587076
		},
		{
			"buffer":0,
			"byteLength":24,
			"byteOffset":587108
		},
		{
			"buffer":0,
			"byteLength":24,
			"byteOffset":587132
		},
		{
			"buffer":0,
			"byteLength":32,
			"byteOffset":587156
		},
		{
			"buffer":0,
			"byteLength":24,
			"byteOffset":587188
		},
		{
			"buffer":0,
			"byteLength":24,
			"byteOffset":587212
		},
		{
			"buffer":0,
			"byteLength":32,
			"byteOffset":587236
		},
		{
			"buffer":0,
			"byteLength":24,
			"byteOffset":587268
		},
		{
			"buffer":0,
			"byteLength":24,
			"byteOffset":587292
		},
		{
			"buffer":0,
			"byteLength":32,
			"byteOffset":587316
		},
		{
			"buffer":0,
			"byteLength":24,
			"byteOffset":587348
		},
		{
			"buffer":0,
			"byteLength":24,
			"byteOffset":587372
		},
		{
			"buffer":0,
			"byteLength":32,
			"byteOffset":587396
		},
		{
			"buffer":0,
			"byteLength":24,
			"byteOffset":587428
		},
		{
			"buffer":0,
			"byteLength":24,
			"byteOffset":587452
		},
		{
			"buffer":0,
			"byteLength":32,
			"byteOffset":587476
		},
		{
			"buffer":0,
			"byteLength":24,
			"byteOffset":587508
		},
		{
			"buffer":0,
			"byteLength":128,
			"byteOffset":587532
		}
	],
	"samplers":[
		{
			"magFilter":9729,
			"minFilter":9987
		}
	],
	"buffers":[
		{
			"byteLength":587660,
			"uri":"yodare.bin"
		}
	]
}
