{
	"asset":{
		"generator":"Khronos glTF Blender I/O v4.1.63",
		"version":"2.0"
	},
	"scene":0,
	"scenes":[
		{
			"name":"Scene",
			"nodes":[
				4
			]
		}
	],
	"nodes":[
		{
			"name":"\u30dc\u30fc\u30f3",
			"rotation":[
				0.4984051287174225,
				-0.5015897750854492,
				-0.49840518832206726,
				0.5015897154808044
			],
			"translation":[
				-6.655425342783072e-12,
				-3.685709089040756e-07,
				2.7008354663848877e-08
			]
		},
		{
			"children":[
				0
			],
			"name":"\u30dc\u30fc\u30f3.001",
			"rotation":[
				0.501589834690094,
				0.4984050691127777,
				-0.5015897154808044,
				0.4984050989151001
			],
			"scale":[
				1,
				0.9999997615814209,
				1
			],
			"translation":[
				-1.0584852695465088,
				-0.5670457482337952,
				0
			]
		},
		{
			"name":"neutral_bone",
			"rotation":[
				-0.7071067690849304,
				0,
				0,
				0.7071067690849304
			]
		},
		{
			"mesh":0,
			"name":"head.001",
			"skin":0
		},
		{
			"children":[
				3,
				1,
				2
			],
			"name":"\u30a2\u30fc\u30de\u30c1\u30e5\u30a2"
		}
	],
	"animations":[
		{
			"channels":[
				{
					"sampler":0,
					"target":{
						"node":1,
						"path":"translation"
					}
				},
				{
					"sampler":1,
					"target":{
						"node":1,
						"path":"rotation"
					}
				},
				{
					"sampler":2,
					"target":{
						"node":1,
						"path":"scale"
					}
				},
				{
					"sampler":3,
					"target":{
						"node":0,
						"path":"translation"
					}
				},
				{
					"sampler":4,
					"target":{
						"node":0,
						"path":"rotation"
					}
				},
				{
					"sampler":5,
					"target":{
						"node":0,
						"path":"scale"
					}
				}
			],
			"name":"\u30a2\u30fc\u30de\u30c1\u30e5\u30a2Action.001",
			"samplers":[
				{
					"input":8,
					"interpolation":"LINEAR",
					"output":9
				},
				{
					"input":10,
					"interpolation":"LINEAR",
					"output":11
				},
				{
					"input":8,
					"interpolation":"LINEAR",
					"output":12
				},
				{
					"input":8,
					"interpolation":"LINEAR",
					"output":13
				},
				{
					"input":10,
					"interpolation":"LINEAR",
					"output":14
				},
				{
					"input":10,
					"interpolation":"STEP",
					"output":15
				}
			]
		}
	],
	"materials":[
		{
			"doubleSided":true,
			"name":"\u30de\u30c6\u30ea\u30a2\u30eb.004",
			"pbrMetallicRoughness":{
				"baseColorTexture":{
					"index":0
				},
				"metallicFactor":0,
				"roughnessFactor":0.5
			}
		}
	],
	"meshes":[
		{
			"name":"\u7acb\u65b9\u4f53.001",
			"primitives":[
				{
					"attributes":{
						"POSITION":0,
						"NORMAL":1,
						"TEXCOORD_0":2,
						"TEXCOORD_1":3,
						"JOINTS_0":4,
						"WEIGHTS_0":5
					},
					"indices":6,
					"material":0
				}
			]
		}
	],
	"textures":[
		{
			"sampler":0,
			"source":0
		}
	],
	"images":[
		{
			"mimeType":"image/png",
			"name":"head",
			"uri":"head.png"
		}
	],
	"skins":[
		{
			"inverseBindMatrices":7,
			"joints":[
				1,
				0,
				2
			],
			"name":"\u30a2\u30fc\u30de\u30c1\u30e5\u30a2"
		}
	],
	"accessors":[
		{
			"bufferView":0,
			"componentType":5126,
			"count":8730,
			"max":[
				1.4203683137893677,
				1.711991786956787,
				1.0093482732772827
			],
			"min":[
				-2.0576624870300293,
				-1.4357527494430542,
				-1.0346152782440186
			],
			"type":"VEC3"
		},
		{
			"bufferView":1,
			"componentType":5126,
			"count":8730,
			"type":"VEC3"
		},
		{
			"bufferView":2,
			"componentType":5126,
			"count":8730,
			"type":"VEC2"
		},
		{
			"bufferView":3,
			"componentType":5126,
			"count":8730,
			"type":"VEC2"
		},
		{
			"bufferView":4,
			"componentType":5121,
			"count":8730,
			"type":"VEC4"
		},
		{
			"bufferView":5,
			"componentType":5126,
			"count":8730,
			"type":"VEC4"
		},
		{
			"bufferView":6,
			"componentType":5123,
			"count":15876,
			"type":"SCALAR"
		},
		{
			"bufferView":7,
			"componentType":5126,
			"count":3,
			"type":"MAT4"
		},
		{
			"bufferView":8,
			"componentType":5126,
			"count":73,
			"max":[
				3
			],
			"min":[
				0
			],
			"type":"SCALAR"
		},
		{
			"bufferView":9,
			"componentType":5126,
			"count":73,
			"type":"VEC3"
		},
		{
			"bufferView":10,
			"componentType":5126,
			"count":2,
			"max":[
				3
			],
			"min":[
				0
			],
			"type":"SCALAR"
		},
		{
			"bufferView":11,
			"componentType":5126,
			"count":2,
			"type":"VEC4"
		},
		{
			"bufferView":12,
			"componentType":5126,
			"count":73,
			"type":"VEC3"
		},
		{
			"bufferView":13,
			"componentType":5126,
			"count":73,
			"type":"VEC3"
		},
		{
			"bufferView":14,
			"componentType":5126,
			"count":2,
			"type":"VEC4"
		},
		{
			"bufferView":15,
			"componentType":5126,
			"count":2,
			"type":"VEC3"
		}
	],
	"bufferViews":[
		{
			"buffer":0,
			"byteLength":104760,
			"byteOffset":0,
			"target":34962
		},
		{
			"buffer":0,
			"byteLength":104760,
			"byteOffset":104760,
			"target":34962
		},
		{
			"buffer":0,
			"byteLength":69840,
			"byteOffset":209520,
			"target":34962
		},
		{
			"buffer":0,
			"byteLength":69840,
			"byteOffset":279360,
			"target":34962
		},
		{
			"buffer":0,
			"byteLength":34920,
			"byteOffset":349200,
			"target":34962
		},
		{
			"buffer":0,
			"byteLength":139680,
			"byteOffset":384120,
			"target":34962
		},
		{
			"buffer":0,
			"byteLength":31752,
			"byteOffset":523800,
			"target":34963
		},
		{
			"buffer":0,
			"byteLength":192,
			"byteOffset":555552
		},
		{
			"buffer":0,
			"byteLength":292,
			"byteOffset":555744
		},
		{
			"buffer":0,
			"byteLength":876,
			"byteOffset":556036
		},
		{
			"buffer":0,
			"byteLength":8,
			"byteOffset":556912
		},
		{
			"buffer":0,
			"byteLength":32,
			"byteOffset":556920
		},
		{
			"buffer":0,
			"byteLength":876,
			"byteOffset":556952
		},
		{
			"buffer":0,
			"byteLength":876,
			"byteOffset":557828
		},
		{
			"buffer":0,
			"byteLength":32,
			"byteOffset":558704
		},
		{
			"buffer":0,
			"byteLength":24,
			"byteOffset":558736
		}
	],
	"samplers":[
		{
			"magFilter":9729,
			"minFilter":9987
		}
	],
	"buffers":[
		{
			"byteLength":558760,
			"uri":"eat_3.bin"
		}
	]
}
