{
	"asset":{
		"generator":"Khronos glTF Blender I/O v4.1.63",
		"version":"2.0"
	},
	"scene":0,
	"scenes":[
		{
			"name":"Scene",
			"nodes":[
				4
			]
		}
	],
	"nodes":[
		{
			"name":"\u30dc\u30fc\u30f3.001",
			"rotation":[
				-0.5103468894958496,
				-0.48943448066711426,
				-0.5103468298912048,
				0.48943448066711426
			],
			"translation":[
				-1.2294780304955566e-08,
				3.476970178439842e-08,
				0
			]
		},
		{
			"children":[
				0
			],
			"name":"\u30dc\u30fc\u30f3",
			"translation":[
				-1.2294780304955566e-08,
				3.476970178439842e-08,
				0
			]
		},
		{
			"name":"neutral_bone",
			"rotation":[
				-0.7071067690849304,
				0,
				0,
				0.7071067690849304
			]
		},
		{
			"mesh":0,
			"name":"head.001",
			"skin":0
		},
		{
			"children":[
				3,
				1,
				2
			],
			"name":"\u30a2\u30fc\u30de\u30c1\u30e5\u30a2",
			"rotation":[
				0,
				0,
				-0.7071068286895752,
				0.7071068286895752
			],
			"translation":[
				-1.0823235511779785,
				-0.7954380512237549,
				0
			]
		}
	],
	"animations":[
		{
			"channels":[
				{
					"sampler":0,
					"target":{
						"node":1,
						"path":"translation"
					}
				},
				{
					"sampler":1,
					"target":{
						"node":1,
						"path":"rotation"
					}
				},
				{
					"sampler":2,
					"target":{
						"node":1,
						"path":"scale"
					}
				},
				{
					"sampler":3,
					"target":{
						"node":0,
						"path":"translation"
					}
				},
				{
					"sampler":4,
					"target":{
						"node":0,
						"path":"rotation"
					}
				},
				{
					"sampler":5,
					"target":{
						"node":0,
						"path":"scale"
					}
				}
			],
			"name":"\u30a2\u30fc\u30de\u30c1\u30e5\u30a2Action",
			"samplers":[
				{
					"input":8,
					"interpolation":"STEP",
					"output":9
				},
				{
					"input":8,
					"interpolation":"STEP",
					"output":10
				},
				{
					"input":11,
					"interpolation":"LINEAR",
					"output":12
				},
				{
					"input":11,
					"interpolation":"LINEAR",
					"output":13
				},
				{
					"input":8,
					"interpolation":"STEP",
					"output":14
				},
				{
					"input":8,
					"interpolation":"STEP",
					"output":15
				}
			]
		}
	],
	"materials":[
		{
			"doubleSided":true,
			"name":"\u30de\u30c6\u30ea\u30a2\u30eb.004",
			"pbrMetallicRoughness":{
				"baseColorTexture":{
					"index":0
				},
				"metallicFactor":0,
				"roughnessFactor":0.5
			}
		}
	],
	"meshes":[
		{
			"name":"\u7acb\u65b9\u4f53.001",
			"primitives":[
				{
					"attributes":{
						"POSITION":0,
						"NORMAL":1,
						"TEXCOORD_0":2,
						"TEXCOORD_1":3,
						"JOINTS_0":4,
						"WEIGHTS_0":5
					},
					"indices":6,
					"material":0
				}
			]
		}
	],
	"textures":[
		{
			"sampler":0,
			"source":0
		}
	],
	"images":[
		{
			"mimeType":"image/png",
			"name":"kirin_head",
			"uri":"kirin_head.png"
		}
	],
	"skins":[
		{
			"inverseBindMatrices":7,
			"joints":[
				1,
				0,
				2
			],
			"name":"\u30a2\u30fc\u30de\u30c1\u30e5\u30a2"
		}
	],
	"accessors":[
		{
			"bufferView":0,
			"componentType":5126,
			"count":8712,
			"max":[
				1.4203684329986572,
				1.711991786956787,
				1.0093481540679932
			],
			"min":[
				-2.0576624870300293,
				-1.756730318069458,
				-1.0346152782440186
			],
			"type":"VEC3"
		},
		{
			"bufferView":1,
			"componentType":5126,
			"count":8712,
			"type":"VEC3"
		},
		{
			"bufferView":2,
			"componentType":5126,
			"count":8712,
			"type":"VEC2"
		},
		{
			"bufferView":3,
			"componentType":5126,
			"count":8712,
			"type":"VEC2"
		},
		{
			"bufferView":4,
			"componentType":5121,
			"count":8712,
			"type":"VEC4"
		},
		{
			"bufferView":5,
			"componentType":5126,
			"count":8712,
			"type":"VEC4"
		},
		{
			"bufferView":6,
			"componentType":5123,
			"count":15822,
			"type":"SCALAR"
		},
		{
			"bufferView":7,
			"componentType":5126,
			"count":3,
			"type":"MAT4"
		},
		{
			"bufferView":8,
			"componentType":5126,
			"count":2,
			"max":[
				2.375
			],
			"min":[
				0
			],
			"type":"SCALAR"
		},
		{
			"bufferView":9,
			"componentType":5126,
			"count":2,
			"type":"VEC3"
		},
		{
			"bufferView":10,
			"componentType":5126,
			"count":2,
			"type":"VEC4"
		},
		{
			"bufferView":11,
			"componentType":5126,
			"count":58,
			"max":[
				2.375
			],
			"min":[
				0
			],
			"type":"SCALAR"
		},
		{
			"bufferView":12,
			"componentType":5126,
			"count":58,
			"type":"VEC3"
		},
		{
			"bufferView":13,
			"componentType":5126,
			"count":58,
			"type":"VEC3"
		},
		{
			"bufferView":14,
			"componentType":5126,
			"count":2,
			"type":"VEC4"
		},
		{
			"bufferView":15,
			"componentType":5126,
			"count":2,
			"type":"VEC3"
		}
	],
	"bufferViews":[
		{
			"buffer":0,
			"byteLength":104544,
			"byteOffset":0,
			"target":34962
		},
		{
			"buffer":0,
			"byteLength":104544,
			"byteOffset":104544,
			"target":34962
		},
		{
			"buffer":0,
			"byteLength":69696,
			"byteOffset":209088,
			"target":34962
		},
		{
			"buffer":0,
			"byteLength":69696,
			"byteOffset":278784,
			"target":34962
		},
		{
			"buffer":0,
			"byteLength":34848,
			"byteOffset":348480,
			"target":34962
		},
		{
			"buffer":0,
			"byteLength":139392,
			"byteOffset":383328,
			"target":34962
		},
		{
			"buffer":0,
			"byteLength":31644,
			"byteOffset":522720,
			"target":34963
		},
		{
			"buffer":0,
			"byteLength":192,
			"byteOffset":554364
		},
		{
			"buffer":0,
			"byteLength":8,
			"byteOffset":554556
		},
		{
			"buffer":0,
			"byteLength":24,
			"byteOffset":554564
		},
		{
			"buffer":0,
			"byteLength":32,
			"byteOffset":554588
		},
		{
			"buffer":0,
			"byteLength":232,
			"byteOffset":554620
		},
		{
			"buffer":0,
			"byteLength":696,
			"byteOffset":554852
		},
		{
			"buffer":0,
			"byteLength":696,
			"byteOffset":555548
		},
		{
			"buffer":0,
			"byteLength":32,
			"byteOffset":556244
		},
		{
			"buffer":0,
			"byteLength":24,
			"byteOffset":556276
		}
	],
	"samplers":[
		{
			"magFilter":9729,
			"minFilter":9987
		}
	],
	"buffers":[
		{
			"byteLength":556300,
			"uri":"kirin_tired.bin"
		}
	]
}
